%TF.GenerationSoftware,KiCad,Pcbnew,10.0.4*%
%TF.CreationDate,2026-09-22T12:02:09+01:00*%
%TF.ProjectId,BSPD KiCAD,42535044-204b-4694-9341-442e6b696361,v03*%
%TF.SameCoordinates,Original*%
%TF.FileFunction,Soldermask,Top*%
%TF.FilePolarity,Negative*%
%FSLAX46Y46*%
G04 Gerber Fmt 4.6, Leading zero omitted, Abs format (unit mm)*
G04 Created by KiCad (PCBNEW 10.0.4) date 2026-09-22 12:02:09*
%MOMM*%
%LPD*%
G01*
G04 APERTURE LIST*
G04 Aperture macros list*
%AMRoundRect*
0 Rectangle with rounded corners*
0 $1 Rounding radius*
0 $2 $3 $4 $5 $6 $7 $8 $9 X,Y pos of 4 corners*
0 Add a 4 corners polygon primitive as box body*
4,1,4,$2,$3,$4,$5,$6,$7,$8,$9,$2,$3,0*
0 Add four circle primitives for the rounded corners*
1,1,$1+$1,$2,$3*
1,1,$1+$1,$4,$5*
1,1,$1+$1,$6,$7*
1,1,$1+$1,$8,$9*
0 Add four rect primitives between the rounded corners*
20,1,$1+$1,$2,$3,$4,$5,0*
20,1,$1+$1,$4,$5,$6,$7,0*
20,1,$1+$1,$6,$7,$8,$9,0*
20,1,$1+$1,$8,$9,$2,$3,0*%
G04 Aperture macros list end*
%ADD10C,1.600000*%
%ADD11R,1.200000X1.200000*%
%ADD12C,1.200000*%
%ADD13RoundRect,0.250000X-0.600000X-0.725000X0.600000X-0.725000X0.600000X0.725000X-0.600000X0.725000X0*%
%ADD14O,1.700000X1.950000*%
%ADD15R,1.300000X1.300000*%
%ADD16C,1.300000*%
%ADD17RoundRect,0.249999X-0.850001X-0.850001X0.850001X-0.850001X0.850001X0.850001X-0.850001X0.850001X0*%
%ADD18C,2.200000*%
%ADD19C,3.200000*%
%ADD20RoundRect,0.150000X-0.512500X-0.150000X0.512500X-0.150000X0.512500X0.150000X-0.512500X0.150000X0*%
%ADD21C,3.000000*%
%ADD22R,2.300000X2.300000*%
%ADD23C,2.300000*%
%ADD24RoundRect,0.150000X0.150000X-0.512500X0.150000X0.512500X-0.150000X0.512500X-0.150000X-0.512500X0*%
%ADD25C,1.440000*%
%ADD26R,1.130000X1.130000*%
%ADD27C,1.130000*%
%ADD28RoundRect,0.150000X-0.150000X0.587500X-0.150000X-0.587500X0.150000X-0.587500X0.150000X0.587500X0*%
%ADD29RoundRect,0.250000X0.550000X0.550000X-0.550000X0.550000X-0.550000X-0.550000X0.550000X-0.550000X0*%
%ADD30RoundRect,0.250000X-0.550000X-0.550000X0.550000X-0.550000X0.550000X0.550000X-0.550000X0.550000X0*%
%ADD31RoundRect,0.250000X-0.600000X-0.750000X0.600000X-0.750000X0.600000X0.750000X-0.600000X0.750000X0*%
%ADD32O,1.700000X2.000000*%
%ADD33RoundRect,0.375000X0.625000X0.375000X-0.625000X0.375000X-0.625000X-0.375000X0.625000X-0.375000X0*%
%ADD34RoundRect,0.500000X0.500000X1.400000X-0.500000X1.400000X-0.500000X-1.400000X0.500000X-1.400000X0*%
G04 APERTURE END LIST*
D10*
%TO.C,R20*%
X-149405000Y-92325000D03*
X-159565000Y-92325000D03*
%TD*%
D11*
%TO.C,C7*%
X-173930000Y-91962500D03*
D12*
X-173930000Y-89462500D03*
%TD*%
D10*
%TO.C,R29*%
X-159685000Y-75450000D03*
X-149525000Y-75450000D03*
%TD*%
D13*
%TO.C,J1*%
X-193975000Y-73050000D03*
D14*
X-191475000Y-73050000D03*
X-188975000Y-73050000D03*
%TD*%
D15*
%TO.C,LED5*%
X-163730000Y-71635000D03*
D16*
X-163730000Y-74175000D03*
%TD*%
D17*
%TO.C,D10*%
X-171010000Y-106700000D03*
D18*
X-160850000Y-106700000D03*
%TD*%
D19*
%TO.C,H1*%
X-151825000Y-39600000D03*
%TD*%
D11*
%TO.C,C12*%
X-173600000Y-59775000D03*
D12*
X-173600000Y-57275000D03*
%TD*%
D10*
%TO.C,R17*%
X-173570000Y-44125000D03*
X-183730000Y-44125000D03*
%TD*%
%TO.C,R4*%
X-173430000Y-86325000D03*
X-183590000Y-86325000D03*
%TD*%
%TO.C,R1*%
X-173415000Y-82925000D03*
X-183575000Y-82925000D03*
%TD*%
%TO.C,R9*%
X-173450000Y-68725000D03*
X-183610000Y-68725000D03*
%TD*%
D11*
%TO.C,C8*%
X-170050000Y-69475000D03*
D12*
X-167550000Y-69475000D03*
%TD*%
D10*
%TO.C,R26*%
X-149500000Y-82225000D03*
X-159660000Y-82225000D03*
%TD*%
%TO.C,R12*%
X-149505000Y-68575000D03*
X-159665000Y-68575000D03*
%TD*%
%TO.C,R2*%
X-173550000Y-50925000D03*
X-183710000Y-50925000D03*
%TD*%
D11*
%TO.C,C9*%
X-180662500Y-41287500D03*
D12*
X-180662500Y-38787500D03*
%TD*%
D10*
%TO.C,R14*%
X-183675000Y-47525000D03*
X-173515000Y-47525000D03*
%TD*%
D11*
%TO.C,C6*%
X-163425000Y-110250000D03*
D12*
X-160925000Y-110250000D03*
%TD*%
D20*
%TO.C,U6*%
X-169962500Y-72150000D03*
X-169962500Y-73100000D03*
X-169962500Y-74050000D03*
X-167687500Y-74050000D03*
X-167687500Y-72150000D03*
%TD*%
D10*
%TO.C,R22*%
X-159685000Y-85625000D03*
X-149525000Y-85625000D03*
%TD*%
D21*
%TO.C,TP1*%
X-177850000Y-90725000D03*
%TD*%
D11*
%TO.C,C14*%
X-168500000Y-109850000D03*
D12*
X-166000000Y-109850000D03*
%TD*%
D17*
%TO.C,D9*%
X-196860000Y-79300000D03*
D18*
X-186700000Y-79300000D03*
%TD*%
D10*
%TO.C,R3*%
X-159680000Y-61825000D03*
X-149520000Y-61825000D03*
%TD*%
%TO.C,R27*%
X-159710000Y-72050000D03*
X-149550000Y-72050000D03*
%TD*%
D22*
%TO.C,K1*%
X-195600000Y-83500000D03*
D23*
X-195600000Y-93660000D03*
X-195600000Y-101280000D03*
X-187980000Y-83500000D03*
%TD*%
D24*
%TO.C,U18*%
X-177887500Y-41162500D03*
X-176937500Y-41162500D03*
X-175987500Y-41162500D03*
X-175987500Y-38887500D03*
X-177887500Y-38887500D03*
%TD*%
D10*
%TO.C,R5*%
X-173600000Y-54350000D03*
X-183760000Y-54350000D03*
%TD*%
D25*
%TO.C,RV3*%
X-153120000Y-53875000D03*
X-155660000Y-53875000D03*
X-158200000Y-53875000D03*
%TD*%
D10*
%TO.C,R23*%
X-149475000Y-88900000D03*
X-159635000Y-88900000D03*
%TD*%
D26*
%TO.C,U19*%
X-170820000Y-49705000D03*
D27*
X-170820000Y-52245000D03*
X-170820000Y-54785000D03*
X-170820000Y-57325000D03*
X-170820000Y-59865000D03*
X-170820000Y-62405000D03*
X-170820000Y-64945000D03*
X-162880000Y-64945000D03*
X-162880000Y-62405000D03*
X-162880000Y-59865000D03*
X-162880000Y-57325000D03*
X-162880000Y-54785000D03*
X-162880000Y-52245000D03*
X-162880000Y-49705000D03*
%TD*%
D25*
%TO.C,RV1*%
X-180940000Y-95925000D03*
X-178400000Y-95925000D03*
X-175860000Y-95925000D03*
%TD*%
D10*
%TO.C,R6*%
X-159680000Y-58425000D03*
X-149520000Y-58425000D03*
%TD*%
%TO.C,R15*%
X-150395000Y-45000000D03*
X-160555000Y-45000000D03*
%TD*%
D24*
%TO.C,U9*%
X-158375000Y-110625000D03*
X-157425000Y-110625000D03*
X-156475000Y-110625000D03*
X-156475000Y-108350000D03*
X-158375000Y-108350000D03*
%TD*%
D21*
%TO.C,TP6*%
X-153250000Y-48975000D03*
%TD*%
D15*
%TO.C,LED2*%
X-169770000Y-45465000D03*
D16*
X-169770000Y-42925000D03*
%TD*%
D11*
%TO.C,C5*%
X-186675000Y-54962500D03*
D12*
X-186675000Y-52462500D03*
%TD*%
D28*
%TO.C,Q1*%
X-184475000Y-64187500D03*
X-186375000Y-64187500D03*
X-185425000Y-66062500D03*
%TD*%
D10*
%TO.C,R13*%
X-183560000Y-75950000D03*
X-173400000Y-75950000D03*
%TD*%
D21*
%TO.C,TP2*%
X-177325000Y-58850000D03*
%TD*%
D10*
%TO.C,R24*%
X-153175000Y-105710000D03*
X-153175000Y-95550000D03*
%TD*%
D11*
%TO.C,C4*%
X-186800000Y-60967500D03*
D12*
X-186800000Y-58467500D03*
%TD*%
D21*
%TO.C,TP4*%
X-182600000Y-90850000D03*
%TD*%
D29*
%TO.C,C10*%
X-157104900Y-97475000D03*
D10*
X-159604900Y-97475000D03*
%TD*%
D15*
%TO.C,LED1*%
X-169497500Y-76735000D03*
D16*
X-169497500Y-79275000D03*
%TD*%
D19*
%TO.C,H2*%
X-194075000Y-110500000D03*
%TD*%
D10*
%TO.C,R11*%
X-159710000Y-65200000D03*
X-149550000Y-65200000D03*
%TD*%
%TO.C,R7*%
X-173805000Y-104050000D03*
X-183965000Y-104050000D03*
%TD*%
%TO.C,R10*%
X-173525000Y-72075000D03*
X-183685000Y-72075000D03*
%TD*%
%TO.C,R25*%
X-149750000Y-95510000D03*
X-149750000Y-105670000D03*
%TD*%
D19*
%TO.C,H3*%
X-151300000Y-110650000D03*
%TD*%
D10*
%TO.C,R28*%
X-159660000Y-78875000D03*
X-149500000Y-78875000D03*
%TD*%
D26*
%TO.C,U5*%
X-170857500Y-83560000D03*
D27*
X-170857500Y-86100000D03*
X-170857500Y-88640000D03*
X-170857500Y-91180000D03*
X-170857500Y-93720000D03*
X-170857500Y-96260000D03*
X-170857500Y-98800000D03*
X-162917500Y-98800000D03*
X-162917500Y-96260000D03*
X-162917500Y-93720000D03*
X-162917500Y-91180000D03*
X-162917500Y-88640000D03*
X-162917500Y-86100000D03*
X-162917500Y-83560000D03*
%TD*%
D10*
%TO.C,R30*%
X-160900000Y-103330000D03*
X-171060000Y-103330000D03*
%TD*%
D19*
%TO.C,H4*%
X-194050000Y-39600000D03*
%TD*%
D10*
%TO.C,R16*%
X-183510000Y-79425000D03*
X-173350000Y-79425000D03*
%TD*%
D21*
%TO.C,TP5*%
X-181750000Y-58850000D03*
%TD*%
D10*
%TO.C,R8*%
X-183960000Y-100550000D03*
X-173800000Y-100550000D03*
%TD*%
D30*
%TO.C,C13*%
X-176590000Y-108670000D03*
D10*
X-174090000Y-108670000D03*
%TD*%
D15*
%TO.C,LED3*%
X-164470000Y-45490000D03*
D16*
X-164470000Y-42950000D03*
%TD*%
D15*
%TO.C,LED4*%
X-163917500Y-79375000D03*
D16*
X-163917500Y-76835000D03*
%TD*%
D31*
%TO.C,J3*%
X-192975000Y-65800000D03*
D32*
X-190475000Y-65800000D03*
%TD*%
D25*
%TO.C,RV2*%
X-180330000Y-63950000D03*
X-177790000Y-63950000D03*
X-175250000Y-63950000D03*
%TD*%
D31*
%TO.C,J2*%
X-185075000Y-109225000D03*
D32*
X-182575000Y-109225000D03*
%TD*%
D10*
%TO.C,R18*%
X-171005000Y-39950000D03*
X-160845000Y-39950000D03*
%TD*%
D33*
%TO.C,U4*%
X-190375000Y-61030000D03*
X-190375000Y-58730000D03*
D34*
X-196675000Y-58730000D03*
D33*
X-190375000Y-56430000D03*
%TD*%
D21*
%TO.C,TP3*%
X-158925000Y-48825000D03*
%TD*%
M02*
