M48
; DRILL file KiCad 10.0.4 date 2026-09-22T12:02:09
; FORMAT={-:-/ absolute / metric / decimal}
; #@! TF.CreationDate,2026-09-22T12:02:09+01:00
; #@! TF.GenerationSoftware,Kicad,Pcbnew,10.0.4
; #@! TF.FileFunction,MixedPlating,1,2
FMAT,2
METRIC
; #@! TA.AperFunction,Plated,PTH,ViaDrill
T1C0.300
; #@! TA.AperFunction,Plated,PTH,ComponentDrill
T2C0.700
; #@! TA.AperFunction,Plated,PTH,ComponentDrill
T3C0.730
; #@! TA.AperFunction,Plated,PTH,ComponentDrill
T4C0.800
; #@! TA.AperFunction,Plated,PTH,ComponentDrill
T5C0.950
; #@! TA.AperFunction,Plated,PTH,ComponentDrill
T6C1.000
; #@! TA.AperFunction,Plated,PTH,ComponentDrill
T7C1.100
; #@! TA.AperFunction,Plated,PTH,ComponentDrill
T8C1.300
; #@! TA.AperFunction,Plated,PTH,ComponentDrill
T9C1.600
; #@! TA.AperFunction,NonPlated,NPTH,ComponentDrill
T10C3.200
%
G90
G05
T1
X-179.275Y-74.95
X-176.938Y-42.6
X-168.85Y-75.175
X-163.173Y-107.954
X-163.161Y-104.25
X-162.867Y-106.812
X-157.475Y-106.225
X-156.35Y-85.525
T2
X-186.8Y-58.467
X-186.8Y-60.967
X-186.675Y-52.462
X-186.675Y-54.962
X-180.662Y-38.788
X-180.662Y-41.288
X-173.93Y-89.462
X-173.93Y-91.962
X-173.6Y-57.275
X-173.6Y-59.775
X-170.05Y-69.475
X-168.5Y-109.85
X-167.55Y-69.475
X-166.0Y-109.85
X-163.425Y-110.25
X-160.925Y-110.25
T3
X-170.857Y-83.56
X-170.857Y-86.1
X-170.857Y-88.64
X-170.857Y-91.18
X-170.857Y-93.72
X-170.857Y-96.26
X-170.857Y-98.8
X-170.82Y-49.705
X-170.82Y-52.245
X-170.82Y-54.785
X-170.82Y-57.325
X-170.82Y-59.865
X-170.82Y-62.405
X-170.82Y-64.945
X-162.917Y-83.56
X-162.917Y-86.1
X-162.917Y-88.64
X-162.917Y-91.18
X-162.917Y-93.72
X-162.917Y-96.26
X-162.917Y-98.8
X-162.88Y-49.705
X-162.88Y-52.245
X-162.88Y-54.785
X-162.88Y-57.325
X-162.88Y-59.865
X-162.88Y-62.405
X-162.88Y-64.945
T4
X-183.965Y-104.05
X-183.96Y-100.55
X-183.76Y-54.35
X-183.73Y-44.125
X-183.71Y-50.925
X-183.685Y-72.075
X-183.675Y-47.525
X-183.61Y-68.725
X-183.59Y-86.325
X-183.575Y-82.925
X-183.56Y-75.95
X-183.51Y-79.425
X-180.94Y-95.925
X-180.33Y-63.95
X-178.4Y-95.925
X-177.79Y-63.95
X-176.59Y-108.67
X-175.86Y-95.925
X-175.25Y-63.95
X-174.09Y-108.67
X-173.805Y-104.05
X-173.8Y-100.55
X-173.6Y-54.35
X-173.57Y-44.125
X-173.55Y-50.925
X-173.525Y-72.075
X-173.515Y-47.525
X-173.45Y-68.725
X-173.43Y-86.325
X-173.415Y-82.925
X-173.4Y-75.95
X-173.35Y-79.425
X-171.06Y-103.33
X-171.005Y-39.95
X-169.77Y-42.925
X-169.77Y-45.465
X-169.498Y-76.735
X-169.498Y-79.275
X-164.47Y-42.95
X-164.47Y-45.49
X-163.917Y-76.835
X-163.917Y-79.375
X-163.73Y-71.635
X-163.73Y-74.175
X-160.9Y-103.33
X-160.845Y-39.95
X-160.555Y-45.0
X-159.71Y-65.2
X-159.71Y-72.05
X-159.685Y-75.45
X-159.685Y-85.625
X-159.68Y-58.425
X-159.68Y-61.825
X-159.665Y-68.575
X-159.66Y-78.875
X-159.66Y-82.225
X-159.635Y-88.9
X-159.605Y-97.475
X-159.565Y-92.325
X-158.2Y-53.875
X-157.105Y-97.475
X-155.66Y-53.875
X-153.175Y-95.55
X-153.175Y-105.71
X-153.12Y-53.875
X-150.395Y-45.0
X-149.75Y-95.51
X-149.75Y-105.67
X-149.55Y-65.2
X-149.55Y-72.05
X-149.525Y-75.45
X-149.525Y-85.625
X-149.52Y-58.425
X-149.52Y-61.825
X-149.505Y-68.575
X-149.5Y-78.875
X-149.5Y-82.225
X-149.475Y-88.9
X-149.405Y-92.325
T5
X-193.975Y-73.05
X-191.475Y-73.05
X-188.975Y-73.05
T6
X-192.975Y-65.8
X-190.475Y-65.8
X-185.075Y-109.225
X-182.575Y-109.225
T7
X-196.86Y-79.3
X-186.7Y-79.3
X-171.01Y-106.7
X-160.85Y-106.7
T8
X-195.6Y-83.5
X-195.6Y-93.66
X-195.6Y-101.28
X-187.98Y-83.5
T9
X-182.6Y-90.85
X-181.75Y-58.85
X-177.85Y-90.725
X-177.325Y-58.85
X-158.925Y-48.825
X-153.25Y-48.975
T10
X-194.075Y-110.5
X-194.05Y-39.6
X-151.825Y-39.6
X-151.3Y-110.65
M30
