%TF.GenerationSoftware,KiCad,Pcbnew,10.0.4*%
%TF.CreationDate,2026-10-08T16:30:41+01:00*%
%TF.ProjectId,BSPD KiCAD,42535044-204b-4694-9341-442e6b696361,v03*%
%TF.SameCoordinates,Original*%
%TF.FileFunction,Copper,L2,Bot*%
%TF.FilePolarity,Positive*%
%FSLAX46Y46*%
G04 Gerber Fmt 4.6, Leading zero omitted, Abs format (unit mm)*
G04 Created by KiCad (PCBNEW 10.0.4) date 2026-10-08 16:30:41*
%MOMM*%
%LPD*%
G01*
G04 APERTURE LIST*
G04 Aperture macros list*
%AMRoundRect*
0 Rectangle with rounded corners*
0 $1 Rounding radius*
0 $2 $3 $4 $5 $6 $7 $8 $9 X,Y pos of 4 corners*
0 Add a 4 corners polygon primitive as box body*
4,1,4,$2,$3,$4,$5,$6,$7,$8,$9,$2,$3,0*
0 Add four circle primitives for the rounded corners*
1,1,$1+$1,$2,$3*
1,1,$1+$1,$4,$5*
1,1,$1+$1,$6,$7*
1,1,$1+$1,$8,$9*
0 Add four rect primitives between the rounded corners*
20,1,$1+$1,$2,$3,$4,$5,0*
20,1,$1+$1,$4,$5,$6,$7,0*
20,1,$1+$1,$6,$7,$8,$9,0*
20,1,$1+$1,$8,$9,$2,$3,0*%
G04 Aperture macros list end*
%TA.AperFunction,ComponentPad*%
%ADD10C,1.600000*%
%TD*%
%TA.AperFunction,ComponentPad*%
%ADD11R,1.200000X1.200000*%
%TD*%
%TA.AperFunction,ComponentPad*%
%ADD12C,1.200000*%
%TD*%
%TA.AperFunction,ComponentPad*%
%ADD13RoundRect,0.250000X-0.600000X-0.725000X0.600000X-0.725000X0.600000X0.725000X-0.600000X0.725000X0*%
%TD*%
%TA.AperFunction,ComponentPad*%
%ADD14O,1.700000X1.950000*%
%TD*%
%TA.AperFunction,ComponentPad*%
%ADD15R,1.300000X1.300000*%
%TD*%
%TA.AperFunction,ComponentPad*%
%ADD16C,1.300000*%
%TD*%
%TA.AperFunction,ComponentPad*%
%ADD17RoundRect,0.249999X-0.850001X-0.850001X0.850001X-0.850001X0.850001X0.850001X-0.850001X0.850001X0*%
%TD*%
%TA.AperFunction,ComponentPad*%
%ADD18C,2.200000*%
%TD*%
%TA.AperFunction,ComponentPad*%
%ADD19C,3.000000*%
%TD*%
%TA.AperFunction,ComponentPad*%
%ADD20R,2.300000X2.300000*%
%TD*%
%TA.AperFunction,ComponentPad*%
%ADD21C,2.300000*%
%TD*%
%TA.AperFunction,ComponentPad*%
%ADD22C,1.440000*%
%TD*%
%TA.AperFunction,ComponentPad*%
%ADD23R,1.130000X1.130000*%
%TD*%
%TA.AperFunction,ComponentPad*%
%ADD24C,1.130000*%
%TD*%
%TA.AperFunction,ComponentPad*%
%ADD25RoundRect,0.250000X0.550000X0.550000X-0.550000X0.550000X-0.550000X-0.550000X0.550000X-0.550000X0*%
%TD*%
%TA.AperFunction,ComponentPad*%
%ADD26RoundRect,0.250000X-0.550000X-0.550000X0.550000X-0.550000X0.550000X0.550000X-0.550000X0.550000X0*%
%TD*%
%TA.AperFunction,ComponentPad*%
%ADD27RoundRect,0.250000X-0.600000X-0.750000X0.600000X-0.750000X0.600000X0.750000X-0.600000X0.750000X0*%
%TD*%
%TA.AperFunction,ComponentPad*%
%ADD28O,1.700000X2.000000*%
%TD*%
%TA.AperFunction,SMDPad,CuDef*%
%ADD29RoundRect,0.150000X-0.150000X0.825000X-0.150000X-0.825000X0.150000X-0.825000X0.150000X0.825000X0*%
%TD*%
%TA.AperFunction,SMDPad,CuDef*%
%ADD30RoundRect,0.250000X-0.450000X0.262500X-0.450000X-0.262500X0.450000X-0.262500X0.450000X0.262500X0*%
%TD*%
%TA.AperFunction,SMDPad,CuDef*%
%ADD31RoundRect,0.250000X-0.475000X0.250000X-0.475000X-0.250000X0.475000X-0.250000X0.475000X0.250000X0*%
%TD*%
%TA.AperFunction,SMDPad,CuDef*%
%ADD32RoundRect,0.150000X0.512500X0.150000X-0.512500X0.150000X-0.512500X-0.150000X0.512500X-0.150000X0*%
%TD*%
%TA.AperFunction,ViaPad*%
%ADD33C,0.650000*%
%TD*%
%TA.AperFunction,Conductor*%
%ADD34C,0.250000*%
%TD*%
%TA.AperFunction,Conductor*%
%ADD35C,0.500000*%
%TD*%
G04 APERTURE END LIST*
D10*
%TO.P,R20,1*%
%TO.N,Net-(R20-Pad1)*%
X-149405000Y-92325000D03*
%TO.P,R20,2*%
%TO.N,/500ms*%
X-159565000Y-92325000D03*
%TD*%
D11*
%TO.P,C7,1*%
%TO.N,GLV-*%
X-173930000Y-91962500D03*
D12*
%TO.P,C7,2*%
%TO.N,GLV+*%
X-173930000Y-89462500D03*
%TD*%
D10*
%TO.P,R29,1*%
%TO.N,Net-(LED5-K)*%
X-159685000Y-75450000D03*
%TO.P,R29,2*%
%TO.N,Net-(Q1-G)*%
X-149525000Y-75450000D03*
%TD*%
D13*
%TO.P,J1,1,Pin_1*%
%TO.N,BRAKE_SENSOR_FRONT*%
X-193975000Y-73050000D03*
D14*
%TO.P,J1,2,Pin_2*%
%TO.N,BRAKE_SENSOR_REAR*%
X-191475000Y-73050000D03*
%TO.P,J1,3,Pin_3*%
%TO.N,CURRENT_SENSOR*%
X-188975000Y-73050000D03*
%TD*%
D15*
%TO.P,LED5,1,A*%
%TO.N,+5V*%
X-163730000Y-71635000D03*
D16*
%TO.P,LED5,2,K*%
%TO.N,Net-(LED5-K)*%
X-163730000Y-74175000D03*
%TD*%
D17*
%TO.P,D10,1,K*%
%TO.N,/POR*%
X-171010000Y-106700000D03*
D18*
%TO.P,D10,2,A*%
%TO.N,GLV-*%
X-160850000Y-106700000D03*
%TD*%
D11*
%TO.P,C12,1*%
%TO.N,GLV-*%
X-173600000Y-59775000D03*
D12*
%TO.P,C12,2*%
%TO.N,GLV+*%
X-173600000Y-57275000D03*
%TD*%
D10*
%TO.P,R17,1*%
%TO.N,Net-(LED2-K)*%
X-173570000Y-44125000D03*
%TO.P,R17,2*%
%TO.N,Net-(R14-Pad1)*%
X-183730000Y-44125000D03*
%TD*%
%TO.P,R4,1*%
%TO.N,/SENS_CUR*%
X-173430000Y-86325000D03*
%TO.P,R4,2*%
%TO.N,CURRENT_SENSOR*%
X-183590000Y-86325000D03*
%TD*%
%TO.P,R1,1*%
%TO.N,GLV-*%
X-173415000Y-82925000D03*
%TO.P,R1,2*%
%TO.N,CURRENT_SENSOR*%
X-183575000Y-82925000D03*
%TD*%
%TO.P,R9,1*%
%TO.N,Net-(U19B--)*%
X-173450000Y-68725000D03*
%TO.P,R9,2*%
%TO.N,+5V*%
X-183610000Y-68725000D03*
%TD*%
D11*
%TO.P,C8,1*%
%TO.N,GLV-*%
X-170050000Y-69475000D03*
D12*
%TO.P,C8,2*%
%TO.N,+5V*%
X-167550000Y-69475000D03*
%TD*%
D10*
%TO.P,R26,1*%
%TO.N,/TRIP_REQ_N*%
X-149500000Y-82225000D03*
%TO.P,R26,2*%
%TO.N,+5V*%
X-159660000Y-82225000D03*
%TD*%
%TO.P,R12,1*%
%TO.N,GLV-*%
X-149505000Y-68575000D03*
%TO.P,R12,2*%
%TO.N,Net-(U19D--)*%
X-159665000Y-68575000D03*
%TD*%
%TO.P,R2,1*%
%TO.N,GLV-*%
X-173550000Y-50925000D03*
%TO.P,R2,2*%
%TO.N,BRAKE_SENSOR_FRONT*%
X-183710000Y-50925000D03*
%TD*%
D11*
%TO.P,C9,1*%
%TO.N,GLV-*%
X-180662500Y-41287500D03*
D12*
%TO.P,C9,2*%
%TO.N,+5V*%
X-180662500Y-38787500D03*
%TD*%
D10*
%TO.P,R14,1*%
%TO.N,Net-(R14-Pad1)*%
X-183675000Y-47525000D03*
%TO.P,R14,2*%
%TO.N,+5V*%
X-173515000Y-47525000D03*
%TD*%
D11*
%TO.P,C6,1*%
%TO.N,GLV-*%
X-163425000Y-110250000D03*
D12*
%TO.P,C6,2*%
%TO.N,+5V*%
X-160925000Y-110250000D03*
%TD*%
D10*
%TO.P,R22,1*%
%TO.N,Net-(U5C-+)*%
X-159685000Y-85625000D03*
%TO.P,R22,2*%
%TO.N,+5V*%
X-149525000Y-85625000D03*
%TD*%
D19*
%TO.P,TP1,1,1*%
%TO.N,/SENS_CUR*%
X-177850000Y-90725000D03*
%TD*%
D11*
%TO.P,C14,1*%
%TO.N,+5V*%
X-168500000Y-109850000D03*
D12*
%TO.P,C14,2*%
%TO.N,GLV-*%
X-166000000Y-109850000D03*
%TD*%
D17*
%TO.P,D9,1,K*%
%TO.N,GLV+*%
X-196860000Y-79300000D03*
D18*
%TO.P,D9,2,A*%
%TO.N,Net-(D9-A)*%
X-186700000Y-79300000D03*
%TD*%
D10*
%TO.P,R3,1*%
%TO.N,GLV-*%
X-159680000Y-61825000D03*
%TO.P,R3,2*%
%TO.N,BRAKE_SENSOR_REAR*%
X-149520000Y-61825000D03*
%TD*%
%TO.P,R27,1*%
%TO.N,+5V*%
X-159710000Y-72050000D03*
%TO.P,R27,2*%
%TO.N,Net-(Q1-G)*%
X-149550000Y-72050000D03*
%TD*%
D20*
%TO.P,K1,1*%
%TO.N,GLV+*%
X-195600000Y-83500000D03*
D21*
%TO.P,K1,2*%
%TO.N,BSPD_Shutdown-*%
X-195600000Y-93660000D03*
%TO.P,K1,3*%
%TO.N,BSPD_Shutdown+*%
X-195600000Y-101280000D03*
%TO.P,K1,5*%
%TO.N,Net-(D9-A)*%
X-187980000Y-83500000D03*
%TD*%
D10*
%TO.P,R5,1*%
%TO.N,/SENS_FRONT*%
X-173600000Y-54350000D03*
%TO.P,R5,2*%
%TO.N,BRAKE_SENSOR_FRONT*%
X-183760000Y-54350000D03*
%TD*%
D22*
%TO.P,RV3,1,1*%
%TO.N,+5V*%
X-153120000Y-53875000D03*
%TO.P,RV3,2,2*%
%TO.N,Net-(U19C-+)*%
X-155660000Y-53875000D03*
%TO.P,RV3,3,3*%
%TO.N,GLV-*%
X-158200000Y-53875000D03*
%TD*%
D10*
%TO.P,R23,1*%
%TO.N,GLV-*%
X-149475000Y-88900000D03*
%TO.P,R23,2*%
%TO.N,Net-(U5C-+)*%
X-159635000Y-88900000D03*
%TD*%
D23*
%TO.P,U19,1*%
%TO.N,/FAULT_N*%
X-170820000Y-49705000D03*
D24*
%TO.P,U19,2*%
%TO.N,Net-(R14-Pad1)*%
X-170820000Y-52245000D03*
%TO.P,U19,3,V+*%
%TO.N,GLV+*%
X-170820000Y-54785000D03*
%TO.P,U19,4,-*%
%TO.N,/SENS_FRONT*%
X-170820000Y-57325000D03*
%TO.P,U19,5,+*%
%TO.N,Net-(U19A-+)*%
X-170820000Y-59865000D03*
%TO.P,U19,6,-*%
%TO.N,Net-(U19B--)*%
X-170820000Y-62405000D03*
%TO.P,U19,7,+*%
%TO.N,/SENS_FRONT*%
X-170820000Y-64945000D03*
%TO.P,U19,8,-*%
%TO.N,Net-(U19D--)*%
X-162880000Y-64945000D03*
%TO.P,U19,9,+*%
%TO.N,/SENS_REAR*%
X-162880000Y-62405000D03*
%TO.P,U19,10,-*%
X-162880000Y-59865000D03*
%TO.P,U19,11,+*%
%TO.N,Net-(U19C-+)*%
X-162880000Y-57325000D03*
%TO.P,U19,12,V-*%
%TO.N,GLV-*%
X-162880000Y-54785000D03*
%TO.P,U19,13*%
%TO.N,Net-(R15-Pad1)*%
X-162880000Y-52245000D03*
%TO.P,U19,14*%
%TO.N,/FAULT_N*%
X-162880000Y-49705000D03*
%TD*%
D22*
%TO.P,RV1,1,1*%
%TO.N,+5V*%
X-180940000Y-95925000D03*
%TO.P,RV1,2,2*%
%TO.N,Net-(U5A-+)*%
X-178400000Y-95925000D03*
%TO.P,RV1,3,3*%
%TO.N,GLV-*%
X-175860000Y-95925000D03*
%TD*%
D10*
%TO.P,R6,1*%
%TO.N,/SENS_REAR*%
X-159680000Y-58425000D03*
%TO.P,R6,2*%
%TO.N,BRAKE_SENSOR_REAR*%
X-149520000Y-58425000D03*
%TD*%
%TO.P,R15,1*%
%TO.N,Net-(R15-Pad1)*%
X-150395000Y-45000000D03*
%TO.P,R15,2*%
%TO.N,+5V*%
X-160555000Y-45000000D03*
%TD*%
D19*
%TO.P,TP6,1,1*%
%TO.N,Net-(U19C-+)*%
X-153250000Y-48975000D03*
%TD*%
D15*
%TO.P,LED2,1,A*%
%TO.N,+5V*%
X-169770000Y-45465000D03*
D16*
%TO.P,LED2,2,K*%
%TO.N,Net-(LED2-K)*%
X-169770000Y-42925000D03*
%TD*%
D11*
%TO.P,C5,1*%
%TO.N,+5V*%
X-186675000Y-54962500D03*
D12*
%TO.P,C5,2*%
%TO.N,GLV-*%
X-186675000Y-52462500D03*
%TD*%
D10*
%TO.P,R13,1*%
%TO.N,Net-(R13-Pad1)*%
X-183560000Y-75950000D03*
%TO.P,R13,2*%
%TO.N,+5V*%
X-173400000Y-75950000D03*
%TD*%
D19*
%TO.P,TP2,1,1*%
%TO.N,/SENS_FRONT*%
X-177325000Y-58850000D03*
%TD*%
D10*
%TO.P,R24,1*%
%TO.N,/REF_1V0*%
X-153175000Y-105710000D03*
%TO.P,R24,2*%
%TO.N,+5V*%
X-153175000Y-95550000D03*
%TD*%
D11*
%TO.P,C4,1*%
%TO.N,GLV+*%
X-186800000Y-60967500D03*
D12*
%TO.P,C4,2*%
%TO.N,GLV-*%
X-186800000Y-58467500D03*
%TD*%
D19*
%TO.P,TP4,1,1*%
%TO.N,Net-(U5A-+)*%
X-182600000Y-90850000D03*
%TD*%
D25*
%TO.P,C10,1*%
%TO.N,/500ms*%
X-157104900Y-97475000D03*
D10*
%TO.P,C10,2*%
%TO.N,GLV-*%
X-159604900Y-97475000D03*
%TD*%
D15*
%TO.P,LED1,1,A*%
%TO.N,+5V*%
X-169497500Y-76735000D03*
D16*
%TO.P,LED1,2,K*%
%TO.N,Net-(LED1-K)*%
X-169497500Y-79275000D03*
%TD*%
D10*
%TO.P,R11,1*%
%TO.N,Net-(U19D--)*%
X-159710000Y-65200000D03*
%TO.P,R11,2*%
%TO.N,+5V*%
X-149550000Y-65200000D03*
%TD*%
%TO.P,R7,1*%
%TO.N,Net-(U5B--)*%
X-173805000Y-104050000D03*
%TO.P,R7,2*%
%TO.N,+5V*%
X-183965000Y-104050000D03*
%TD*%
%TO.P,R10,1*%
%TO.N,GLV-*%
X-173525000Y-72075000D03*
%TO.P,R10,2*%
%TO.N,Net-(U19B--)*%
X-183685000Y-72075000D03*
%TD*%
%TO.P,R25,1*%
%TO.N,GLV-*%
X-149750000Y-95510000D03*
%TO.P,R25,2*%
%TO.N,/REF_1V0*%
X-149750000Y-105670000D03*
%TD*%
%TO.P,R28,1*%
%TO.N,Net-(LED4-K)*%
X-159660000Y-78875000D03*
%TO.P,R28,2*%
%TO.N,/TRIP_REQ_N*%
X-149500000Y-78875000D03*
%TD*%
D23*
%TO.P,U5,1*%
%TO.N,/FAULT_N*%
X-170857500Y-83560000D03*
D24*
%TO.P,U5,2*%
%TO.N,Net-(R13-Pad1)*%
X-170857500Y-86100000D03*
%TO.P,U5,3,V+*%
%TO.N,GLV+*%
X-170857500Y-88640000D03*
%TO.P,U5,4,-*%
%TO.N,/SENS_CUR*%
X-170857500Y-91180000D03*
%TO.P,U5,5,+*%
%TO.N,Net-(U5A-+)*%
X-170857500Y-93720000D03*
%TO.P,U5,6,-*%
%TO.N,Net-(U5B--)*%
X-170857500Y-96260000D03*
%TO.P,U5,7,+*%
%TO.N,/SENS_CUR*%
X-170857500Y-98800000D03*
%TO.P,U5,8,-*%
%TO.N,/LATCH_Q*%
X-162917500Y-98800000D03*
%TO.P,U5,9,+*%
%TO.N,/REF_1V0*%
X-162917500Y-96260000D03*
%TO.P,U5,10,-*%
%TO.N,/500ms*%
X-162917500Y-93720000D03*
%TO.P,U5,11,+*%
%TO.N,Net-(U5C-+)*%
X-162917500Y-91180000D03*
%TO.P,U5,12,V-*%
%TO.N,GLV-*%
X-162917500Y-88640000D03*
%TO.P,U5,13*%
%TO.N,/TRIP_REQ_N*%
X-162917500Y-86100000D03*
%TO.P,U5,14*%
%TO.N,Net-(Q1-G)*%
X-162917500Y-83560000D03*
%TD*%
D10*
%TO.P,R30,1*%
%TO.N,/POR*%
X-160900000Y-103330000D03*
%TO.P,R30,2*%
%TO.N,GLV-*%
X-171060000Y-103330000D03*
%TD*%
%TO.P,R16,1*%
%TO.N,Net-(R13-Pad1)*%
X-183510000Y-79425000D03*
%TO.P,R16,2*%
%TO.N,Net-(LED1-K)*%
X-173350000Y-79425000D03*
%TD*%
D19*
%TO.P,TP5,1,1*%
%TO.N,Net-(U19A-+)*%
X-181750000Y-58850000D03*
%TD*%
D10*
%TO.P,R8,1*%
%TO.N,GLV-*%
X-183960000Y-100550000D03*
%TO.P,R8,2*%
%TO.N,Net-(U5B--)*%
X-173800000Y-100550000D03*
%TD*%
D26*
%TO.P,C13,1*%
%TO.N,+5V*%
X-176590000Y-108670000D03*
D10*
%TO.P,C13,2*%
%TO.N,/POR*%
X-174090000Y-108670000D03*
%TD*%
D15*
%TO.P,LED3,1,A*%
%TO.N,+5V*%
X-164470000Y-45490000D03*
D16*
%TO.P,LED3,2,K*%
%TO.N,Net-(LED3-K)*%
X-164470000Y-42950000D03*
%TD*%
D15*
%TO.P,LED4,1,A*%
%TO.N,+5V*%
X-163917500Y-79375000D03*
D16*
%TO.P,LED4,2,K*%
%TO.N,Net-(LED4-K)*%
X-163917500Y-76835000D03*
%TD*%
D27*
%TO.P,J3,1,Pin_1*%
%TO.N,GLV+*%
X-192975000Y-65800000D03*
D28*
%TO.P,J3,2,Pin_2*%
%TO.N,GLV-*%
X-190475000Y-65800000D03*
%TD*%
D22*
%TO.P,RV2,1,1*%
%TO.N,+5V*%
X-180330000Y-63950000D03*
%TO.P,RV2,2,2*%
%TO.N,Net-(U19A-+)*%
X-177790000Y-63950000D03*
%TO.P,RV2,3,3*%
%TO.N,GLV-*%
X-175250000Y-63950000D03*
%TD*%
D27*
%TO.P,J2,1,Pin_1*%
%TO.N,BSPD_Shutdown+*%
X-185075000Y-109225000D03*
D28*
%TO.P,J2,2,Pin_2*%
%TO.N,BSPD_Shutdown-*%
X-182575000Y-109225000D03*
%TD*%
D10*
%TO.P,R18,1*%
%TO.N,Net-(LED3-K)*%
X-171005000Y-39950000D03*
%TO.P,R18,2*%
%TO.N,Net-(R15-Pad1)*%
X-160845000Y-39950000D03*
%TD*%
D19*
%TO.P,TP3,1,1*%
%TO.N,/SENS_REAR*%
X-158925000Y-48825000D03*
%TD*%
D29*
%TO.P,U23,1*%
%TO.N,/FAULT_N*%
X-168730000Y-54850000D03*
%TO.P,U23,2*%
%TO.N,/SENS_FRONT*%
X-167460000Y-54850000D03*
%TO.P,U23,3*%
%TO.N,/OVR_REF_BRK*%
X-166190000Y-54850000D03*
%TO.P,U23,4*%
%TO.N,GLV-*%
X-164920000Y-54850000D03*
%TO.P,U23,5*%
%TO.N,/OVR_REF_BRK*%
X-164920000Y-59800000D03*
%TO.P,U23,6*%
%TO.N,/SENS_REAR*%
X-166190000Y-59800000D03*
%TO.P,U23,7*%
%TO.N,/FAULT_N*%
X-167460000Y-59800000D03*
%TO.P,U23,8*%
%TO.N,GLV+*%
X-168730000Y-59800000D03*
%TD*%
D30*
%TO.P,R33,1*%
%TO.N,+5V*%
X-176325000Y-98162500D03*
%TO.P,R33,2*%
%TO.N,/OVR_REF_CUR*%
X-176325000Y-99987500D03*
%TD*%
%TO.P,R32,1*%
%TO.N,/FAULT_N*%
X-173075000Y-96662500D03*
%TO.P,R32,2*%
%TO.N,/FAULT_F*%
X-173075000Y-98487500D03*
%TD*%
D31*
%TO.P,C16,1*%
%TO.N,GLV+*%
X-166825000Y-50625000D03*
%TO.P,C16,2*%
%TO.N,GLV-*%
X-166825000Y-52525000D03*
%TD*%
D32*
%TO.P,U20,1*%
%TO.N,/LATCH_QN*%
X-164362500Y-102350000D03*
%TO.P,U20,2*%
%TO.N,/POR*%
X-164362500Y-103300000D03*
%TO.P,U20,3,GND*%
%TO.N,GLV-*%
X-164362500Y-104250000D03*
%TO.P,U20,4*%
%TO.N,/LATCH_Q*%
X-166637500Y-104250000D03*
%TO.P,U20,5,VCC*%
%TO.N,+5V*%
X-166637500Y-102350000D03*
%TD*%
D30*
%TO.P,R31,1*%
%TO.N,+5V*%
X-168075000Y-97662500D03*
%TO.P,R31,2*%
%TO.N,/FAULT_N*%
X-168075000Y-99487500D03*
%TD*%
D31*
%TO.P,C15,1*%
%TO.N,/FAULT_F*%
X-176325000Y-101625000D03*
%TO.P,C15,2*%
%TO.N,GLV-*%
X-176325000Y-103525000D03*
%TD*%
D30*
%TO.P,R34,1*%
%TO.N,/OVR_REF_CUR*%
X-178575000Y-101662500D03*
%TO.P,R34,2*%
%TO.N,GLV-*%
X-178575000Y-103487500D03*
%TD*%
D32*
%TO.P,U21,1*%
%TO.N,/LATCH_Q*%
X-164362500Y-106050000D03*
%TO.P,U21,2*%
%TO.N,/BSPD_TRIP*%
X-164362500Y-107000000D03*
%TO.P,U21,3,GND*%
%TO.N,GLV-*%
X-164362500Y-107950000D03*
%TO.P,U21,4*%
%TO.N,/LATCH_QN*%
X-166637500Y-107950000D03*
%TO.P,U21,5,VCC*%
%TO.N,+5V*%
X-166637500Y-106050000D03*
%TD*%
D30*
%TO.P,R35,1*%
%TO.N,+5V*%
X-167825000Y-63162500D03*
%TO.P,R35,2*%
%TO.N,/OVR_REF_BRK*%
X-167825000Y-64987500D03*
%TD*%
%TO.P,R36,1*%
%TO.N,/OVR_REF_BRK*%
X-165325000Y-63162500D03*
%TO.P,R36,2*%
%TO.N,GLV-*%
X-165325000Y-64987500D03*
%TD*%
D29*
%TO.P,U22,1*%
%TO.N,/FAULT_N*%
X-168730000Y-90100000D03*
%TO.P,U22,2*%
%TO.N,/SENS_CUR*%
X-167460000Y-90100000D03*
%TO.P,U22,3*%
%TO.N,/OVR_REF_CUR*%
X-166190000Y-90100000D03*
%TO.P,U22,4*%
%TO.N,GLV-*%
X-164920000Y-90100000D03*
%TO.P,U22,5*%
%TO.N,/FAULT_F*%
X-164920000Y-95050000D03*
%TO.P,U22,6*%
%TO.N,/REF_1V0*%
X-166190000Y-95050000D03*
%TO.P,U22,7*%
%TO.N,/TRIP_REQ_N*%
X-167460000Y-95050000D03*
%TO.P,U22,8*%
%TO.N,GLV+*%
X-168730000Y-95050000D03*
%TD*%
D33*
%TO.N,GLV-*%
X-163160600Y-104250000D03*
X-164083800Y-90255600D03*
X-165325000Y-66049600D03*
X-163172700Y-107954000D03*
X-176325000Y-104558200D03*
%TO.N,+5V*%
X-179275000Y-74950000D03*
X-156350000Y-85525000D03*
%TO.N,/TRIP_REQ_N*%
X-157475000Y-106225000D03*
%TO.N,Net-(R13-Pad1)*%
X-168850000Y-75175000D03*
%TO.N,Net-(R15-Pad1)*%
X-176938000Y-42600000D03*
%TO.N,/FAULT_N*%
X-176908100Y-73006800D03*
%TO.N,/BSPD_TRIP*%
X-162866500Y-106812500D03*
%TO.N,/FAULT_F*%
X-172242800Y-100305200D03*
X-164050900Y-96080500D03*
%TD*%
%TO.N,GLV-*%
D34*
X-165325000Y-64987500D02*
X-165325000Y-66049600D01*
X-164764400Y-90255600D02*
X-164920000Y-90100000D01*
X-164855000Y-54495000D02*
X-166825000Y-52525000D01*
X-164855000Y-54785000D02*
X-164920000Y-54850000D01*
X-176362500Y-103487500D02*
X-176325000Y-103525000D01*
X-162880000Y-54785000D02*
X-164855000Y-54785000D01*
X-164083800Y-90255600D02*
X-164764400Y-90255600D01*
X-163172700Y-107954000D02*
X-164358500Y-107954000D01*
X-164358500Y-107954000D02*
X-164362500Y-107950000D01*
X-178575000Y-103487500D02*
X-176362500Y-103487500D01*
X-176325000Y-104558200D02*
X-176325000Y-103525000D01*
X-164855000Y-54785000D02*
X-164855000Y-54495000D01*
X-164362500Y-104250000D02*
X-163160600Y-104250000D01*
%TO.N,GLV+*%
D35*
X-174750000Y-56125000D02*
X-173600000Y-57275000D01*
D34*
X-170820000Y-54320500D02*
X-170820000Y-54785000D01*
X-170449500Y-56362300D02*
X-168730000Y-58081800D01*
X-173930000Y-90049300D02*
X-171392000Y-92587300D01*
D35*
X-186800000Y-60967500D02*
X-186800000Y-60375000D01*
X-173600000Y-57275000D02*
X-173310000Y-57275000D01*
X-173310000Y-57275000D02*
X-170820000Y-54785000D01*
D34*
X-173930000Y-89462500D02*
X-173930000Y-90049300D01*
X-171392000Y-92587300D02*
X-170656600Y-92587300D01*
D35*
X-182550000Y-56125000D02*
X-174750000Y-56125000D01*
D34*
X-170656600Y-92587300D02*
X-168730000Y-94513900D01*
X-167124500Y-50625000D02*
X-170820000Y-54320500D01*
D35*
X-186800000Y-60375000D02*
X-182550000Y-56125000D01*
D34*
X-168730000Y-58081800D02*
X-168730000Y-59800000D01*
X-171460500Y-55425500D02*
X-170523700Y-56362300D01*
X-166825000Y-50625000D02*
X-167124500Y-50625000D01*
X-170523700Y-56362300D02*
X-170449500Y-56362300D01*
X-168730000Y-94513900D02*
X-168730000Y-95050000D01*
%TO.N,Net-(LED5-K)*%
X-162455000Y-75450000D02*
X-163730000Y-74175000D01*
X-159685000Y-75450000D02*
X-162455000Y-75450000D01*
%TO.N,Net-(Q1-G)*%
X-162902000Y-83575000D02*
X-157650000Y-83575000D01*
X-157650000Y-83575000D02*
X-149525000Y-75450000D01*
X-162917800Y-83560400D02*
X-162902000Y-83575000D01*
X-162917800Y-83560300D02*
X-162917800Y-83560400D01*
X-162917500Y-83560000D02*
X-162917800Y-83560300D01*
X-162918000Y-83560200D02*
X-162917800Y-83560400D01*
%TO.N,BRAKE_SENSOR_FRONT*%
X-193975000Y-73050000D02*
X-188300000Y-67375000D01*
X-187150000Y-56675000D02*
X-186085000Y-56675000D01*
X-188300000Y-67375000D02*
X-188300000Y-57825000D01*
X-186085000Y-56675000D02*
X-183760000Y-54350000D01*
X-188300000Y-57825000D02*
X-187150000Y-56675000D01*
%TO.N,BRAKE_SENSOR_REAR*%
X-189500000Y-75025000D02*
X-186200000Y-75025000D01*
X-185000000Y-73825000D02*
X-169150000Y-73825000D01*
X-169150000Y-73825000D02*
X-165300000Y-69975000D01*
X-191475000Y-73050000D02*
X-189500000Y-75025000D01*
X-165300000Y-69975000D02*
X-157670000Y-69975000D01*
X-186200000Y-75025000D02*
X-185000000Y-73825000D01*
X-157670000Y-69975000D02*
X-149520000Y-61825000D01*
%TO.N,+5V*%
X-175410000Y-109850000D02*
X-168500000Y-109850000D01*
X-153175000Y-89275000D02*
X-153175000Y-95550000D01*
X-165646300Y-105262500D02*
X-165850000Y-105262500D01*
X-155000000Y-105900000D02*
X-155000000Y-97375000D01*
X-156250000Y-85625000D02*
X-149525000Y-85625000D01*
X-168881200Y-64218700D02*
X-168881200Y-68143800D01*
X-166618800Y-108895500D02*
X-162279500Y-108895500D01*
X-183610000Y-68725000D02*
X-183610000Y-67230000D01*
X-160125000Y-71635000D02*
X-159710000Y-72050000D01*
X-159660000Y-82225000D02*
X-157725000Y-80290000D01*
X-156000000Y-47425000D02*
X-156000000Y-50995000D01*
X-176590000Y-108670000D02*
X-175410000Y-109850000D01*
X-156000000Y-50995000D02*
X-153120000Y-53875000D01*
X-165646300Y-105262500D02*
X-165646300Y-103341200D01*
X-178275000Y-40025000D02*
X-179512000Y-38787500D01*
X-149525000Y-85625000D02*
X-153175000Y-89275000D01*
X-158425000Y-45000000D02*
X-156000000Y-47425000D01*
X-156350000Y-85525000D02*
X-156250000Y-85625000D01*
X-173515000Y-47525000D02*
X-171830000Y-47525000D01*
X-157725000Y-80290000D02*
X-157725000Y-74035000D01*
X-175333000Y-47525000D02*
X-178275000Y-44582700D01*
X-168881200Y-68143800D02*
X-167550000Y-69475000D01*
X-160925000Y-110250000D02*
X-159350000Y-110250000D01*
X-168500000Y-109850000D02*
X-167573300Y-109850000D01*
X-170401100Y-95336400D02*
X-168075000Y-97662500D01*
X-165850000Y-105262500D02*
X-166637500Y-106050000D01*
X-158536700Y-106986900D02*
X-160261100Y-105262500D01*
X-167825000Y-63162500D02*
X-168881200Y-64218700D01*
X-160555000Y-45000000D02*
X-158425000Y-45000000D01*
X-173515000Y-47525000D02*
X-175333000Y-47525000D01*
X-178275000Y-75950000D02*
X-173400000Y-75950000D01*
X-173498900Y-95336400D02*
X-170401100Y-95336400D01*
X-158536700Y-109436700D02*
X-155000000Y-105900000D01*
X-157725000Y-74035000D02*
X-159710000Y-72050000D01*
X-176325000Y-98162500D02*
X-173498900Y-95336400D01*
X-171830000Y-47525000D02*
X-169770000Y-45465000D01*
X-178275000Y-44582700D02*
X-178275000Y-40025000D01*
X-178702500Y-98162500D02*
X-180940000Y-95925000D01*
X-155000000Y-97375000D02*
X-153175000Y-95550000D01*
X-183610000Y-67230000D02*
X-180330000Y-63950000D01*
X-179275000Y-74950000D02*
X-178275000Y-75950000D01*
X-159350000Y-110250000D02*
X-158536700Y-109436700D01*
X-180662000Y-38787500D02*
X-180662500Y-38787500D01*
X-160261100Y-105262500D02*
X-165646300Y-105262500D01*
X-158536700Y-109436700D02*
X-158536700Y-106986900D01*
X-167573300Y-109850000D02*
X-166618800Y-108895500D01*
X-179512000Y-38787500D02*
X-180662000Y-38787500D01*
X-163730000Y-71635000D02*
X-160125000Y-71635000D01*
X-176325000Y-98162500D02*
X-178702500Y-98162500D01*
X-165646300Y-103341200D02*
X-166637500Y-102350000D01*
X-162279500Y-108895500D02*
X-160925000Y-110250000D01*
%TO.N,/POR*%
X-171010000Y-106700000D02*
X-172120000Y-106700000D01*
X-160930000Y-103300000D02*
X-160900000Y-103330000D01*
X-172120000Y-106700000D02*
X-174090000Y-108670000D01*
X-164362500Y-103300000D02*
X-160930000Y-103300000D01*
%TO.N,Net-(LED2-K)*%
X-173570000Y-44125000D02*
X-170970000Y-44125000D01*
X-170970000Y-44125000D02*
X-169770000Y-42925000D01*
%TO.N,Net-(R14-Pad1)*%
X-172130000Y-49050000D02*
X-182150000Y-49050000D01*
X-182150000Y-49050000D02*
X-183675000Y-47525000D01*
X-170820000Y-52245000D02*
X-172130000Y-50935000D01*
X-172130000Y-50935000D02*
X-172130000Y-49050000D01*
%TO.N,/SENS_CUR*%
X-172362000Y-89675000D02*
X-170858000Y-91180000D01*
X-167460000Y-90557600D02*
X-167460000Y-90100000D01*
X-173450000Y-86325000D02*
X-173430000Y-86325000D01*
X-172375000Y-89675000D02*
X-172362000Y-89675000D01*
X-172375000Y-87380000D02*
X-172375000Y-89675000D01*
X-170857500Y-91180000D02*
X-170858000Y-91180000D01*
X-173430000Y-86325000D02*
X-172375000Y-87380000D01*
X-170857500Y-91180000D02*
X-170631200Y-91406300D01*
X-177850000Y-90725000D02*
X-173450000Y-86325000D01*
X-168308700Y-91406300D02*
X-167460000Y-90557600D01*
X-170631200Y-91406300D02*
X-168308700Y-91406300D01*
%TO.N,Net-(U19B--)*%
X-176800000Y-72075000D02*
X-173450000Y-68725000D01*
X-173450000Y-68725000D02*
X-173450000Y-65035000D01*
X-183685000Y-72075000D02*
X-176800000Y-72075000D01*
X-173450000Y-65035000D02*
X-170820000Y-62405000D01*
%TO.N,/TRIP_REQ_N*%
X-162005000Y-85187500D02*
X-162917500Y-86100000D01*
X-157475000Y-106225000D02*
X-157475000Y-102982000D01*
X-151550000Y-84275000D02*
X-149500000Y-82225000D01*
X-167460000Y-94573400D02*
X-167460000Y-95050000D01*
X-161300000Y-87717500D02*
X-162917700Y-86100300D01*
X-149500000Y-82225000D02*
X-149500000Y-78875000D01*
X-161092000Y-84275000D02*
X-151550000Y-84275000D01*
X-162917700Y-86100200D02*
X-162917700Y-86100300D01*
X-161300000Y-99175000D02*
X-161300000Y-87717500D01*
X-162917700Y-86100300D02*
X-162918000Y-86100000D01*
X-157475000Y-102982000D02*
X-160557000Y-99900000D01*
X-160575000Y-99900000D02*
X-161300000Y-99175000D01*
X-161300000Y-92670800D02*
X-165557400Y-92670800D01*
X-165557400Y-92670800D02*
X-167460000Y-94573400D01*
X-162917500Y-86100000D02*
X-162917700Y-86100200D01*
X-162005000Y-85187500D02*
X-161092000Y-84275000D01*
X-160557000Y-99900000D02*
X-160575000Y-99900000D01*
%TO.N,Net-(R13-Pad1)*%
X-167850000Y-83092000D02*
X-170858000Y-86100000D01*
X-168850000Y-75175000D02*
X-167850000Y-76175000D01*
X-167850000Y-76175000D02*
X-167850000Y-80552500D01*
X-167850000Y-80552000D02*
X-167850000Y-83092000D01*
%TO.N,Net-(D9-A)*%
X-186700000Y-82220000D02*
X-186700000Y-79300000D01*
X-187980000Y-83500000D02*
X-186700000Y-82220000D01*
%TO.N,Net-(R15-Pad1)*%
X-162880000Y-41985000D02*
X-162320000Y-41425000D01*
X-152050000Y-45000000D02*
X-150395000Y-45000000D01*
X-162320000Y-41425000D02*
X-160845000Y-39950000D01*
X-171750000Y-42600000D02*
X-170575000Y-41425000D01*
X-162320000Y-41425000D02*
X-160845000Y-39950000D01*
X-160845000Y-39950000D02*
X-157100000Y-39950000D01*
X-162880000Y-52245000D02*
X-161600000Y-50965000D01*
X-162880000Y-47165000D02*
X-162880000Y-41985000D01*
X-157100000Y-39950000D02*
X-152050000Y-45000000D01*
X-161600000Y-50965000D02*
X-161600000Y-48445000D01*
X-170575000Y-41425000D02*
X-162320000Y-41425000D01*
X-161600000Y-48445000D02*
X-162880000Y-47165000D01*
X-176938000Y-42600000D02*
X-171750000Y-42600000D01*
%TO.N,/SENS_FRONT*%
X-167690800Y-61714900D02*
X-166825000Y-60849100D01*
X-177325000Y-58850000D02*
X-176900000Y-58425000D01*
X-166825000Y-55485000D02*
X-167460000Y-54850000D01*
X-166825000Y-60849100D02*
X-166825000Y-55485000D01*
X-170820000Y-64945000D02*
X-170820000Y-64627600D01*
X-176900000Y-58425000D02*
X-171920000Y-58425000D01*
X-170820000Y-57130000D02*
X-170820000Y-57325000D01*
X-170820000Y-64627600D02*
X-167907300Y-61714900D01*
X-167907300Y-61714900D02*
X-167690800Y-61714900D01*
X-171920000Y-58425000D02*
X-170820000Y-57325000D01*
%TO.N,/FAULT_N*%
X-179247000Y-102524100D02*
X-173314700Y-102524100D01*
X-167339800Y-51485400D02*
X-168730000Y-52875600D01*
X-167460000Y-59800000D02*
X-167460000Y-60306200D01*
X-167460000Y-58193300D02*
X-168730000Y-56923300D01*
X-170857500Y-83560000D02*
X-170857500Y-84451700D01*
X-165736500Y-51084300D02*
X-166137600Y-51485400D01*
X-182461400Y-99309700D02*
X-179247000Y-102524100D01*
X-171993300Y-85186500D02*
X-174946300Y-85186500D01*
X-176107000Y-73006800D02*
X-176908100Y-73006800D01*
X-165736500Y-49705000D02*
X-170820000Y-49705000D01*
X-167460000Y-60306200D02*
X-172274400Y-65120600D01*
X-168730000Y-89395900D02*
X-168730000Y-90100000D01*
X-182461400Y-94496900D02*
X-182461400Y-99309700D01*
X-172274400Y-65120600D02*
X-172274400Y-69174200D01*
X-170868500Y-87370000D02*
X-170755900Y-87370000D01*
X-173075000Y-96662500D02*
X-172207500Y-97530000D01*
X-168730000Y-56923300D02*
X-168730000Y-54850000D01*
X-171792800Y-86445700D02*
X-170868500Y-87370000D01*
X-167460000Y-59800000D02*
X-167460000Y-58193300D01*
X-170848100Y-97530000D02*
X-169584300Y-98793700D01*
X-171792800Y-85387000D02*
X-171792800Y-86445700D01*
X-179676700Y-91712200D02*
X-182461400Y-94496900D01*
X-170857500Y-84451700D02*
X-171792800Y-85387000D01*
X-162880000Y-49705000D02*
X-165736500Y-49705000D01*
X-170755900Y-87370000D02*
X-168730000Y-89395900D01*
X-172274400Y-69174200D02*
X-176107000Y-73006800D01*
X-165736500Y-49705000D02*
X-165736500Y-51084300D01*
X-166137600Y-51485400D02*
X-167339800Y-51485400D01*
X-173314700Y-102524100D02*
X-169584300Y-98793700D01*
X-168768800Y-98793700D02*
X-168075000Y-99487500D01*
X-171792800Y-85387000D02*
X-171993300Y-85186500D01*
X-174946300Y-85186500D02*
X-179676700Y-89916900D01*
X-172207500Y-97530000D02*
X-170848100Y-97530000D01*
X-168730000Y-52875600D02*
X-168730000Y-54850000D01*
X-179676700Y-89916900D02*
X-179676700Y-91712200D01*
X-169584300Y-98793700D02*
X-168768800Y-98793700D01*
%TO.N,Net-(U19A-+)*%
X-177790000Y-62810000D02*
X-181750000Y-58850000D01*
X-177790000Y-63950000D02*
X-175590000Y-61750000D01*
X-177790000Y-63950000D02*
X-177790000Y-62810000D01*
X-175590000Y-61750000D02*
X-172705000Y-61750000D01*
X-172705000Y-61750000D02*
X-170820000Y-59865000D01*
%TO.N,/SENS_REAR*%
X-159680000Y-58425000D02*
X-159680000Y-49580000D01*
X-159680000Y-49580000D02*
X-158925000Y-48825000D01*
X-162880000Y-62405000D02*
X-164056900Y-62405000D01*
X-164056900Y-62405000D02*
X-166190000Y-60271900D01*
X-166190000Y-60271900D02*
X-166190000Y-59800000D01*
%TO.N,/BSPD_TRIP*%
X-164362500Y-107000000D02*
X-164175000Y-106812500D01*
X-164175000Y-106812500D02*
X-162866500Y-106812500D01*
%TO.N,/REF_1V0*%
X-166190000Y-95497000D02*
X-164954800Y-96732200D01*
X-164954800Y-96732200D02*
X-163389700Y-96732200D01*
X-166190000Y-95050000D02*
X-166190000Y-95497000D01*
X-163389700Y-96732200D02*
X-162917500Y-96260000D01*
%TO.N,/LATCH_Q*%
X-167657200Y-105269700D02*
X-166637500Y-104250000D01*
X-167642400Y-103245100D02*
X-167642400Y-102009300D01*
X-166637500Y-104250000D02*
X-167642400Y-103245100D01*
X-167642400Y-102009300D02*
X-164433100Y-98800000D01*
X-164750100Y-106050000D02*
X-165399500Y-106699400D01*
X-167657200Y-106368600D02*
X-167657200Y-105269700D01*
X-164362500Y-106050000D02*
X-164750100Y-106050000D01*
X-165399500Y-106699400D02*
X-167326400Y-106699400D01*
X-167326400Y-106699400D02*
X-167657200Y-106368600D01*
X-164433100Y-98800000D02*
X-162917500Y-98800000D01*
%TO.N,/OVR_REF_BRK*%
X-166190000Y-57813800D02*
X-164920000Y-59083800D01*
X-161930300Y-62073600D02*
X-161930300Y-62745400D01*
X-164920000Y-59083800D02*
X-164920000Y-59800000D01*
X-162519600Y-63334700D02*
X-165152800Y-63334700D01*
X-166000000Y-63162500D02*
X-167825000Y-64987500D01*
X-163870500Y-60849500D02*
X-163154400Y-60849500D01*
X-164920000Y-59800000D02*
X-163870500Y-60849500D01*
X-163154400Y-60849500D02*
X-161930300Y-62073600D01*
X-165152800Y-63334700D02*
X-165325000Y-63162500D01*
X-161930300Y-62745400D02*
X-162519600Y-63334700D01*
X-166190000Y-54850000D02*
X-166190000Y-57813800D01*
X-165325000Y-63162500D02*
X-166000000Y-63162500D01*
%TO.N,/OVR_REF_CUR*%
X-174894600Y-89111600D02*
X-174894600Y-90398000D01*
X-174894600Y-90398000D02*
X-177159100Y-92662500D01*
X-166190000Y-90100000D02*
X-166190000Y-90553000D01*
X-166190000Y-90553000D02*
X-167772600Y-92135600D01*
X-172933500Y-89121700D02*
X-173594300Y-88460900D01*
X-174243900Y-88460900D02*
X-174894600Y-89111600D01*
X-172933500Y-90385000D02*
X-172933500Y-89121700D01*
X-171182900Y-92135600D02*
X-172933500Y-90385000D01*
X-181994100Y-96356500D02*
X-178250100Y-100100500D01*
X-167772600Y-92135600D02*
X-171182900Y-92135600D01*
X-178137100Y-99987500D02*
X-178250100Y-100100500D01*
X-173594300Y-88460900D02*
X-174243900Y-88460900D01*
X-178250100Y-101337600D02*
X-178250100Y-100100500D01*
X-181994100Y-95445700D02*
X-181994100Y-96356500D01*
X-179210900Y-92662500D02*
X-181994100Y-95445700D01*
X-178575000Y-101662500D02*
X-178250100Y-101337600D01*
X-176325000Y-99987500D02*
X-178137100Y-99987500D01*
X-177159100Y-92662500D02*
X-179210900Y-92662500D01*
%TO.N,/FAULT_F*%
X-173075000Y-98487500D02*
X-172242800Y-99319700D01*
X-164050900Y-96080500D02*
X-164050900Y-95919100D01*
X-175271300Y-100571300D02*
X-175271300Y-100378500D01*
X-175271300Y-100378500D02*
X-173380300Y-98487500D01*
X-172242800Y-99319700D02*
X-172242800Y-100305200D01*
X-164050900Y-95919100D02*
X-164920000Y-95050000D01*
X-176325000Y-101625000D02*
X-175271300Y-100571300D01*
X-173380300Y-98487500D02*
X-173075000Y-98487500D01*
%TO.N,/LATCH_QN*%
X-168126100Y-106604000D02*
X-168126100Y-101839200D01*
X-164179800Y-97892900D02*
X-162562100Y-97892900D01*
X-162024500Y-98430500D02*
X-162024500Y-100012000D01*
X-162562100Y-97892900D02*
X-162024500Y-98430500D01*
X-162024500Y-100012000D02*
X-164362500Y-102350000D01*
X-166637500Y-107950000D02*
X-166780100Y-107950000D01*
X-166780100Y-107950000D02*
X-168126100Y-106604000D01*
X-168126100Y-101839200D02*
X-164179800Y-97892900D01*
%TD*%
M02*
