%TF.GenerationSoftware,KiCad,Pcbnew,10.0.4*%
%TF.CreationDate,2026-10-08T16:30:41+01:00*%
%TF.ProjectId,BSPD KiCAD,42535044-204b-4694-9341-442e6b696361,v03*%
%TF.SameCoordinates,Original*%
%TF.FileFunction,Drillmap*%
%TF.FilePolarity,Positive*%
%FSLAX45Y45*%
G04 Gerber Fmt 4.5, Leading zero omitted, Abs format (unit mm)*
G04 Created by KiCad (PCBNEW 10.0.4) date 2026-10-08 16:30:41*
%MOMM*%
%LPD*%
G01*
G04 APERTURE LIST*
%ADD10C,0.050000*%
%ADD11C,0.200000*%
%ADD12C,0.100000*%
%ADD13C,0.110000*%
%ADD14C,0.130000*%
%ADD15C,0.160000*%
%ADD16C,0.320000*%
G04 APERTURE END LIST*
D10*
X-19905000Y-3960000D02*
G75*
G02*
X-19405000Y-3460000I500000J0D01*
G01*
X-19905000Y-11050000D02*
X-19905000Y-3960000D01*
X-19405000Y-3460000D02*
X-15182500Y-3460000D01*
X-19405000Y-11550000D02*
G75*
G02*
X-19905000Y-11050000I0J500000D01*
G01*
X-15182500Y-3460000D02*
G75*
G02*
X-14682500Y-3960000I0J-500000D01*
G01*
X-15182500Y-11550000D02*
X-19405000Y-11550000D01*
X-14682500Y-3960000D02*
X-14682500Y-11050000D01*
X-14682500Y-11050000D02*
G75*
G02*
X-15182500Y-11550000I-500000J0D01*
G01*
D11*
D12*
X-17942500Y-7480000D02*
X-17912500Y-7510000D01*
X-17912500Y-7480000D02*
X-17942500Y-7510000D01*
X-17708800Y-4245000D02*
X-17678800Y-4275000D01*
X-17678800Y-4245000D02*
X-17708800Y-4275000D01*
X-17705810Y-7285680D02*
X-17675810Y-7315680D01*
X-17675810Y-7285680D02*
X-17705810Y-7315680D01*
X-17647500Y-10440820D02*
X-17617500Y-10470820D01*
X-17617500Y-10440820D02*
X-17647500Y-10470820D01*
X-17239280Y-10015520D02*
X-17209280Y-10045520D01*
X-17209280Y-10015520D02*
X-17239280Y-10045520D01*
X-16900000Y-7502500D02*
X-16870000Y-7532500D01*
X-16870000Y-7502500D02*
X-16900000Y-7532500D01*
X-16547500Y-6589960D02*
X-16517500Y-6619960D01*
X-16517500Y-6589960D02*
X-16547500Y-6619960D01*
X-16423380Y-9010560D02*
X-16393380Y-9040560D01*
X-16393380Y-9010560D02*
X-16423380Y-9040560D01*
X-16420090Y-9593050D02*
X-16390090Y-9623050D01*
X-16390090Y-9593050D02*
X-16420090Y-9623050D01*
X-16332270Y-10780400D02*
X-16302270Y-10810400D01*
X-16302270Y-10780400D02*
X-16332270Y-10810400D01*
X-16331060Y-10410000D02*
X-16301060Y-10440000D01*
X-16301060Y-10410000D02*
X-16331060Y-10440000D01*
X-16301650Y-10666250D02*
X-16271650Y-10696250D01*
X-16271650Y-10666250D02*
X-16301650Y-10696250D01*
X-15762500Y-10607500D02*
X-15732500Y-10637500D01*
X-15732500Y-10607500D02*
X-15762500Y-10637500D01*
X-15650000Y-8537500D02*
X-15620000Y-8567500D01*
X-15620000Y-8537500D02*
X-15650000Y-8567500D01*
X-18645000Y-5846750D02*
G75*
G02*
X-18715000Y-5846750I-35000J0D01*
G01*
X-18715000Y-5846750D02*
G75*
G02*
X-18645000Y-5846750I35000J0D01*
G01*
X-18645000Y-6096750D02*
G75*
G02*
X-18715000Y-6096750I-35000J0D01*
G01*
X-18715000Y-6096750D02*
G75*
G02*
X-18645000Y-6096750I35000J0D01*
G01*
X-18632500Y-5246250D02*
G75*
G02*
X-18702500Y-5246250I-35000J0D01*
G01*
X-18702500Y-5246250D02*
G75*
G02*
X-18632500Y-5246250I35000J0D01*
G01*
X-18632500Y-5496250D02*
G75*
G02*
X-18702500Y-5496250I-35000J0D01*
G01*
X-18702500Y-5496250D02*
G75*
G02*
X-18632500Y-5496250I35000J0D01*
G01*
X-18031250Y-3878750D02*
G75*
G02*
X-18101250Y-3878750I-35000J0D01*
G01*
X-18101250Y-3878750D02*
G75*
G02*
X-18031250Y-3878750I35000J0D01*
G01*
X-18031250Y-4128750D02*
G75*
G02*
X-18101250Y-4128750I-35000J0D01*
G01*
X-18101250Y-4128750D02*
G75*
G02*
X-18031250Y-4128750I35000J0D01*
G01*
X-17358000Y-8946250D02*
G75*
G02*
X-17428000Y-8946250I-35000J0D01*
G01*
X-17428000Y-8946250D02*
G75*
G02*
X-17358000Y-8946250I35000J0D01*
G01*
X-17358000Y-9196250D02*
G75*
G02*
X-17428000Y-9196250I-35000J0D01*
G01*
X-17428000Y-9196250D02*
G75*
G02*
X-17358000Y-9196250I35000J0D01*
G01*
X-17325000Y-5727500D02*
G75*
G02*
X-17395000Y-5727500I-35000J0D01*
G01*
X-17395000Y-5727500D02*
G75*
G02*
X-17325000Y-5727500I35000J0D01*
G01*
X-17325000Y-5977500D02*
G75*
G02*
X-17395000Y-5977500I-35000J0D01*
G01*
X-17395000Y-5977500D02*
G75*
G02*
X-17325000Y-5977500I35000J0D01*
G01*
X-16970000Y-6947500D02*
G75*
G02*
X-17040000Y-6947500I-35000J0D01*
G01*
X-17040000Y-6947500D02*
G75*
G02*
X-16970000Y-6947500I35000J0D01*
G01*
X-16815000Y-10985000D02*
G75*
G02*
X-16885000Y-10985000I-35000J0D01*
G01*
X-16885000Y-10985000D02*
G75*
G02*
X-16815000Y-10985000I35000J0D01*
G01*
X-16720000Y-6947500D02*
G75*
G02*
X-16790000Y-6947500I-35000J0D01*
G01*
X-16790000Y-6947500D02*
G75*
G02*
X-16720000Y-6947500I35000J0D01*
G01*
X-16565000Y-10985000D02*
G75*
G02*
X-16635000Y-10985000I-35000J0D01*
G01*
X-16635000Y-10985000D02*
G75*
G02*
X-16565000Y-10985000I35000J0D01*
G01*
X-16307500Y-11025000D02*
G75*
G02*
X-16377500Y-11025000I-35000J0D01*
G01*
X-16377500Y-11025000D02*
G75*
G02*
X-16307500Y-11025000I35000J0D01*
G01*
X-16057500Y-11025000D02*
G75*
G02*
X-16127500Y-11025000I-35000J0D01*
G01*
X-16127500Y-11025000D02*
G75*
G02*
X-16057500Y-11025000I35000J0D01*
G01*
X-17085750Y-8319500D02*
X-17085750Y-8392500D01*
X-17122250Y-8356000D02*
X-17049250Y-8356000D01*
X-17085750Y-8573500D02*
X-17085750Y-8646500D01*
X-17122250Y-8610000D02*
X-17049250Y-8610000D01*
X-17085750Y-8827500D02*
X-17085750Y-8900500D01*
X-17122250Y-8864000D02*
X-17049250Y-8864000D01*
X-17085750Y-9081500D02*
X-17085750Y-9154500D01*
X-17122250Y-9118000D02*
X-17049250Y-9118000D01*
X-17085750Y-9335500D02*
X-17085750Y-9408500D01*
X-17122250Y-9372000D02*
X-17049250Y-9372000D01*
X-17085750Y-9589500D02*
X-17085750Y-9662500D01*
X-17122250Y-9626000D02*
X-17049250Y-9626000D01*
X-17085750Y-9843500D02*
X-17085750Y-9916500D01*
X-17122250Y-9880000D02*
X-17049250Y-9880000D01*
X-17082000Y-4934000D02*
X-17082000Y-5007000D01*
X-17118500Y-4970500D02*
X-17045500Y-4970500D01*
X-17082000Y-5188000D02*
X-17082000Y-5261000D01*
X-17118500Y-5224500D02*
X-17045500Y-5224500D01*
X-17082000Y-5442000D02*
X-17082000Y-5515000D01*
X-17118500Y-5478500D02*
X-17045500Y-5478500D01*
X-17082000Y-5696000D02*
X-17082000Y-5769000D01*
X-17118500Y-5732500D02*
X-17045500Y-5732500D01*
X-17082000Y-5950000D02*
X-17082000Y-6023000D01*
X-17118500Y-5986500D02*
X-17045500Y-5986500D01*
X-17082000Y-6204000D02*
X-17082000Y-6277000D01*
X-17118500Y-6240500D02*
X-17045500Y-6240500D01*
X-17082000Y-6458000D02*
X-17082000Y-6531000D01*
X-17118500Y-6494500D02*
X-17045500Y-6494500D01*
X-16291750Y-8319500D02*
X-16291750Y-8392500D01*
X-16328250Y-8356000D02*
X-16255250Y-8356000D01*
X-16291750Y-8573500D02*
X-16291750Y-8646500D01*
X-16328250Y-8610000D02*
X-16255250Y-8610000D01*
X-16291750Y-8827500D02*
X-16291750Y-8900500D01*
X-16328250Y-8864000D02*
X-16255250Y-8864000D01*
X-16291750Y-9081500D02*
X-16291750Y-9154500D01*
X-16328250Y-9118000D02*
X-16255250Y-9118000D01*
X-16291750Y-9335500D02*
X-16291750Y-9408500D01*
X-16328250Y-9372000D02*
X-16255250Y-9372000D01*
X-16291750Y-9589500D02*
X-16291750Y-9662500D01*
X-16328250Y-9626000D02*
X-16255250Y-9626000D01*
X-16291750Y-9843500D02*
X-16291750Y-9916500D01*
X-16328250Y-9880000D02*
X-16255250Y-9880000D01*
X-16288000Y-4934000D02*
X-16288000Y-5007000D01*
X-16324500Y-4970500D02*
X-16251500Y-4970500D01*
X-16288000Y-5188000D02*
X-16288000Y-5261000D01*
X-16324500Y-5224500D02*
X-16251500Y-5224500D01*
X-16288000Y-5442000D02*
X-16288000Y-5515000D01*
X-16324500Y-5478500D02*
X-16251500Y-5478500D01*
X-16288000Y-5696000D02*
X-16288000Y-5769000D01*
X-16324500Y-5732500D02*
X-16251500Y-5732500D01*
X-16288000Y-5950000D02*
X-16288000Y-6023000D01*
X-16324500Y-5986500D02*
X-16251500Y-5986500D01*
X-16288000Y-6204000D02*
X-16288000Y-6277000D01*
X-16324500Y-6240500D02*
X-16251500Y-6240500D01*
X-16288000Y-6458000D02*
X-16288000Y-6531000D01*
X-16324500Y-6494500D02*
X-16251500Y-6494500D01*
X-18368216Y-10433285D02*
X-18368216Y-10376716D01*
X-18424785Y-10376716D01*
X-18424785Y-10433285D01*
X-18368216Y-10433285D01*
X-18367716Y-10083285D02*
X-18367716Y-10026716D01*
X-18424285Y-10026716D01*
X-18424285Y-10083285D01*
X-18367716Y-10083285D01*
X-18347716Y-5463285D02*
X-18347716Y-5406716D01*
X-18404285Y-5406716D01*
X-18404285Y-5463285D01*
X-18347716Y-5463285D01*
X-18344716Y-4440785D02*
X-18344716Y-4384216D01*
X-18401285Y-4384216D01*
X-18401285Y-4440785D01*
X-18344716Y-4440785D01*
X-18342716Y-5120785D02*
X-18342716Y-5064216D01*
X-18399285Y-5064216D01*
X-18399285Y-5120785D01*
X-18342716Y-5120785D01*
X-18340216Y-7235784D02*
X-18340216Y-7179215D01*
X-18396785Y-7179215D01*
X-18396785Y-7235784D01*
X-18340216Y-7235784D01*
X-18339216Y-4780785D02*
X-18339216Y-4724216D01*
X-18395785Y-4724216D01*
X-18395785Y-4780785D01*
X-18339216Y-4780785D01*
X-18332716Y-6900784D02*
X-18332716Y-6844215D01*
X-18389285Y-6844215D01*
X-18389285Y-6900784D01*
X-18332716Y-6900784D01*
X-18330716Y-8660785D02*
X-18330716Y-8604216D01*
X-18387285Y-8604216D01*
X-18387285Y-8660785D01*
X-18330716Y-8660785D01*
X-18329216Y-8320784D02*
X-18329216Y-8264215D01*
X-18385785Y-8264215D01*
X-18385785Y-8320784D01*
X-18329216Y-8320784D01*
X-18327716Y-7623284D02*
X-18327716Y-7566715D01*
X-18384285Y-7566715D01*
X-18384285Y-7623284D01*
X-18327716Y-7623284D01*
X-18322716Y-7970784D02*
X-18322716Y-7914215D01*
X-18379285Y-7914215D01*
X-18379285Y-7970784D01*
X-18322716Y-7970784D01*
X-18065716Y-9620785D02*
X-18065716Y-9564216D01*
X-18122285Y-9564216D01*
X-18122285Y-9620785D01*
X-18065716Y-9620785D01*
X-18004716Y-6423284D02*
X-18004716Y-6366715D01*
X-18061285Y-6366715D01*
X-18061285Y-6423284D01*
X-18004716Y-6423284D01*
X-17811716Y-9620785D02*
X-17811716Y-9564216D01*
X-17868285Y-9564216D01*
X-17868285Y-9620785D01*
X-17811716Y-9620785D01*
X-17750716Y-6423284D02*
X-17750716Y-6366715D01*
X-17807285Y-6366715D01*
X-17807285Y-6423284D01*
X-17750716Y-6423284D01*
X-17630716Y-10895285D02*
X-17630716Y-10838716D01*
X-17687285Y-10838716D01*
X-17687285Y-10895285D01*
X-17630716Y-10895285D01*
X-17557716Y-9620785D02*
X-17557716Y-9564216D01*
X-17614285Y-9564216D01*
X-17614285Y-9620785D01*
X-17557716Y-9620785D01*
X-17496716Y-6423284D02*
X-17496716Y-6366715D01*
X-17553285Y-6366715D01*
X-17553285Y-6423284D01*
X-17496716Y-6423284D01*
X-17380716Y-10895285D02*
X-17380716Y-10838716D01*
X-17437285Y-10838716D01*
X-17437285Y-10895285D01*
X-17380716Y-10895285D01*
X-17352216Y-10433285D02*
X-17352216Y-10376716D01*
X-17408785Y-10376716D01*
X-17408785Y-10433285D01*
X-17352216Y-10433285D01*
X-17351716Y-10083285D02*
X-17351716Y-10026716D01*
X-17408285Y-10026716D01*
X-17408285Y-10083285D01*
X-17351716Y-10083285D01*
X-17331716Y-5463285D02*
X-17331716Y-5406716D01*
X-17388285Y-5406716D01*
X-17388285Y-5463285D01*
X-17331716Y-5463285D01*
X-17328716Y-4440785D02*
X-17328716Y-4384216D01*
X-17385285Y-4384216D01*
X-17385285Y-4440785D01*
X-17328716Y-4440785D01*
X-17326716Y-5120785D02*
X-17326716Y-5064216D01*
X-17383285Y-5064216D01*
X-17383285Y-5120785D01*
X-17326716Y-5120785D01*
X-17324216Y-7235784D02*
X-17324216Y-7179215D01*
X-17380785Y-7179215D01*
X-17380785Y-7235784D01*
X-17324216Y-7235784D01*
X-17323216Y-4780785D02*
X-17323216Y-4724216D01*
X-17379785Y-4724216D01*
X-17379785Y-4780785D01*
X-17323216Y-4780785D01*
X-17316716Y-6900784D02*
X-17316716Y-6844215D01*
X-17373285Y-6844215D01*
X-17373285Y-6900784D01*
X-17316716Y-6900784D01*
X-17314716Y-8660785D02*
X-17314716Y-8604216D01*
X-17371285Y-8604216D01*
X-17371285Y-8660785D01*
X-17314716Y-8660785D01*
X-17313216Y-8320784D02*
X-17313216Y-8264215D01*
X-17369785Y-8264215D01*
X-17369785Y-8320784D01*
X-17313216Y-8320784D01*
X-17311716Y-7623284D02*
X-17311716Y-7566715D01*
X-17368285Y-7566715D01*
X-17368285Y-7623284D01*
X-17311716Y-7623284D01*
X-17306716Y-7970784D02*
X-17306716Y-7914215D01*
X-17363285Y-7914215D01*
X-17363285Y-7970784D01*
X-17306716Y-7970784D01*
X-17077716Y-10361285D02*
X-17077716Y-10304716D01*
X-17134285Y-10304716D01*
X-17134285Y-10361285D01*
X-17077716Y-10361285D01*
X-17072216Y-4023284D02*
X-17072216Y-3966715D01*
X-17128785Y-3966715D01*
X-17128785Y-4023284D01*
X-17072216Y-4023284D01*
X-16948716Y-4320785D02*
X-16948716Y-4264216D01*
X-17005285Y-4264216D01*
X-17005285Y-4320785D01*
X-16948716Y-4320785D01*
X-16948716Y-4574785D02*
X-16948716Y-4518216D01*
X-17005285Y-4518216D01*
X-17005285Y-4574785D01*
X-16948716Y-4574785D01*
X-16921466Y-7701784D02*
X-16921466Y-7645215D01*
X-16978035Y-7645215D01*
X-16978035Y-7701784D01*
X-16921466Y-7701784D01*
X-16921466Y-7955784D02*
X-16921466Y-7899215D01*
X-16978035Y-7899215D01*
X-16978035Y-7955784D01*
X-16921466Y-7955784D01*
X-16418715Y-4323285D02*
X-16418715Y-4266716D01*
X-16475284Y-4266716D01*
X-16475284Y-4323285D01*
X-16418715Y-4323285D01*
X-16418715Y-4577285D02*
X-16418715Y-4520716D01*
X-16475284Y-4520716D01*
X-16475284Y-4577285D01*
X-16418715Y-4577285D01*
X-16363465Y-7711784D02*
X-16363465Y-7655215D01*
X-16420034Y-7655215D01*
X-16420034Y-7711784D01*
X-16363465Y-7711784D01*
X-16363465Y-7965784D02*
X-16363465Y-7909215D01*
X-16420034Y-7909215D01*
X-16420034Y-7965784D01*
X-16363465Y-7965784D01*
X-16344715Y-7191784D02*
X-16344715Y-7135215D01*
X-16401284Y-7135215D01*
X-16401284Y-7191784D01*
X-16344715Y-7191784D01*
X-16344715Y-7445784D02*
X-16344715Y-7389215D01*
X-16401284Y-7389215D01*
X-16401284Y-7445784D01*
X-16344715Y-7445784D01*
X-16061715Y-10361285D02*
X-16061715Y-10304716D01*
X-16118284Y-10304716D01*
X-16118284Y-10361285D01*
X-16061715Y-10361285D01*
X-16056215Y-4023284D02*
X-16056215Y-3966715D01*
X-16112784Y-3966715D01*
X-16112784Y-4023284D01*
X-16056215Y-4023284D01*
X-16027215Y-4528285D02*
X-16027215Y-4471716D01*
X-16083784Y-4471716D01*
X-16083784Y-4528285D01*
X-16027215Y-4528285D01*
X-15942715Y-6548284D02*
X-15942715Y-6491715D01*
X-15999284Y-6491715D01*
X-15999284Y-6548284D01*
X-15942715Y-6548284D01*
X-15942715Y-7233284D02*
X-15942715Y-7176715D01*
X-15999284Y-7176715D01*
X-15999284Y-7233284D01*
X-15942715Y-7233284D01*
X-15940215Y-7573284D02*
X-15940215Y-7516715D01*
X-15996784Y-7516715D01*
X-15996784Y-7573284D01*
X-15940215Y-7573284D01*
X-15940215Y-8590785D02*
X-15940215Y-8534216D01*
X-15996784Y-8534216D01*
X-15996784Y-8590785D01*
X-15940215Y-8590785D01*
X-15939715Y-5870784D02*
X-15939715Y-5814215D01*
X-15996284Y-5814215D01*
X-15996284Y-5870784D01*
X-15939715Y-5870784D01*
X-15939715Y-6210784D02*
X-15939715Y-6154215D01*
X-15996284Y-6154215D01*
X-15996284Y-6210784D01*
X-15939715Y-6210784D01*
X-15938215Y-6885784D02*
X-15938215Y-6829215D01*
X-15994784Y-6829215D01*
X-15994784Y-6885784D01*
X-15938215Y-6885784D01*
X-15937715Y-7915784D02*
X-15937715Y-7859215D01*
X-15994284Y-7859215D01*
X-15994284Y-7915784D01*
X-15937715Y-7915784D01*
X-15937715Y-8250784D02*
X-15937715Y-8194215D01*
X-15994284Y-8194215D01*
X-15994284Y-8250784D01*
X-15937715Y-8250784D01*
X-15935215Y-8918285D02*
X-15935215Y-8861716D01*
X-15991784Y-8861716D01*
X-15991784Y-8918285D01*
X-15935215Y-8918285D01*
X-15932205Y-9775785D02*
X-15932205Y-9719216D01*
X-15988774Y-9719216D01*
X-15988774Y-9775785D01*
X-15932205Y-9775785D01*
X-15928215Y-9260785D02*
X-15928215Y-9204216D01*
X-15984784Y-9204216D01*
X-15984784Y-9260785D01*
X-15928215Y-9260785D01*
X-15791715Y-5415785D02*
X-15791715Y-5359216D01*
X-15848284Y-5359216D01*
X-15848284Y-5415785D01*
X-15791715Y-5415785D01*
X-15682205Y-9775785D02*
X-15682205Y-9719216D01*
X-15738774Y-9719216D01*
X-15738774Y-9775785D01*
X-15682205Y-9775785D01*
X-15537715Y-5415785D02*
X-15537715Y-5359216D01*
X-15594284Y-5359216D01*
X-15594284Y-5415785D01*
X-15537715Y-5415785D01*
X-15289215Y-9583285D02*
X-15289215Y-9526716D01*
X-15345784Y-9526716D01*
X-15345784Y-9583285D01*
X-15289215Y-9583285D01*
X-15289215Y-10599285D02*
X-15289215Y-10542716D01*
X-15345784Y-10542716D01*
X-15345784Y-10599285D01*
X-15289215Y-10599285D01*
X-15283715Y-5415785D02*
X-15283715Y-5359216D01*
X-15340284Y-5359216D01*
X-15340284Y-5415785D01*
X-15283715Y-5415785D01*
X-15011215Y-4528285D02*
X-15011215Y-4471716D01*
X-15067784Y-4471716D01*
X-15067784Y-4528285D01*
X-15011215Y-4528285D01*
X-14946715Y-9579285D02*
X-14946715Y-9522716D01*
X-15003284Y-9522716D01*
X-15003284Y-9579285D01*
X-14946715Y-9579285D01*
X-14946715Y-10595285D02*
X-14946715Y-10538716D01*
X-15003284Y-10538716D01*
X-15003284Y-10595285D01*
X-14946715Y-10595285D01*
X-14926715Y-6548284D02*
X-14926715Y-6491715D01*
X-14983284Y-6491715D01*
X-14983284Y-6548284D01*
X-14926715Y-6548284D01*
X-14926715Y-7233284D02*
X-14926715Y-7176715D01*
X-14983284Y-7176715D01*
X-14983284Y-7233284D01*
X-14926715Y-7233284D01*
X-14924215Y-7573284D02*
X-14924215Y-7516715D01*
X-14980784Y-7516715D01*
X-14980784Y-7573284D01*
X-14924215Y-7573284D01*
X-14924215Y-8590785D02*
X-14924215Y-8534216D01*
X-14980784Y-8534216D01*
X-14980784Y-8590785D01*
X-14924215Y-8590785D01*
X-14923715Y-5870784D02*
X-14923715Y-5814215D01*
X-14980284Y-5814215D01*
X-14980284Y-5870784D01*
X-14923715Y-5870784D01*
X-14923715Y-6210784D02*
X-14923715Y-6154215D01*
X-14980284Y-6154215D01*
X-14980284Y-6210784D01*
X-14923715Y-6210784D01*
X-14922215Y-6885784D02*
X-14922215Y-6829215D01*
X-14978784Y-6829215D01*
X-14978784Y-6885784D01*
X-14922215Y-6885784D01*
X-14921715Y-7915784D02*
X-14921715Y-7859215D01*
X-14978284Y-7859215D01*
X-14978284Y-7915784D01*
X-14921715Y-7915784D01*
X-14921715Y-8250784D02*
X-14921715Y-8194215D01*
X-14978284Y-8194215D01*
X-14978284Y-8250784D01*
X-14921715Y-8250784D01*
X-14919215Y-8918285D02*
X-14919215Y-8861716D01*
X-14975784Y-8861716D01*
X-14975784Y-8918285D01*
X-14919215Y-8918285D01*
X-14912215Y-9260785D02*
X-14912215Y-9204216D01*
X-14968784Y-9204216D01*
X-14968784Y-9260785D01*
X-14912215Y-9260785D01*
X-19397500Y-7352500D02*
X-19350000Y-7305000D01*
X-19397500Y-7257500D01*
X-19445000Y-7305000D01*
X-19397500Y-7352500D01*
X-19147500Y-7352500D02*
X-19100000Y-7305000D01*
X-19147500Y-7257500D01*
X-19195000Y-7305000D01*
X-19147500Y-7352500D01*
X-18897500Y-7352500D02*
X-18850000Y-7305000D01*
X-18897500Y-7257500D01*
X-18945000Y-7305000D01*
X-18897500Y-7352500D01*
X-19347500Y-6530000D02*
X-19247500Y-6630000D01*
X-19247500Y-6530000D02*
X-19347500Y-6630000D01*
X-19247500Y-6580000D02*
G75*
G02*
X-19347500Y-6580000I-50000J0D01*
G01*
X-19347500Y-6580000D02*
G75*
G02*
X-19247500Y-6580000I50000J0D01*
G01*
X-19097500Y-6530000D02*
X-18997500Y-6630000D01*
X-18997500Y-6530000D02*
X-19097500Y-6630000D01*
X-18997500Y-6580000D02*
G75*
G02*
X-19097500Y-6580000I-50000J0D01*
G01*
X-19097500Y-6580000D02*
G75*
G02*
X-18997500Y-6580000I50000J0D01*
G01*
X-18557500Y-10872500D02*
X-18457500Y-10972500D01*
X-18457500Y-10872500D02*
X-18557500Y-10972500D01*
X-18457500Y-10922500D02*
G75*
G02*
X-18557500Y-10922500I-50000J0D01*
G01*
X-18557500Y-10922500D02*
G75*
G02*
X-18457500Y-10922500I50000J0D01*
G01*
X-18307500Y-10872500D02*
X-18207500Y-10972500D01*
X-18207500Y-10872500D02*
X-18307500Y-10972500D01*
X-18207500Y-10922500D02*
G75*
G02*
X-18307500Y-10922500I-50000J0D01*
G01*
X-18307500Y-10922500D02*
G75*
G02*
X-18207500Y-10922500I50000J0D01*
G01*
D13*
X-19741000Y-7875000D02*
X-19631000Y-7985000D01*
X-19631000Y-7875000D02*
X-19741000Y-7985000D01*
X-19686000Y-7875000D02*
X-19686000Y-7985000D01*
X-19741000Y-7930000D02*
X-19631000Y-7930000D01*
X-18725000Y-7875000D02*
X-18615000Y-7985000D01*
X-18615000Y-7875000D02*
X-18725000Y-7985000D01*
X-18670000Y-7875000D02*
X-18670000Y-7985000D01*
X-18725000Y-7930000D02*
X-18615000Y-7930000D01*
X-17156000Y-10615000D02*
X-17046000Y-10725000D01*
X-17046000Y-10615000D02*
X-17156000Y-10725000D01*
X-17101000Y-10615000D02*
X-17101000Y-10725000D01*
X-17156000Y-10670000D02*
X-17046000Y-10670000D01*
X-16140000Y-10615000D02*
X-16030000Y-10725000D01*
X-16030000Y-10615000D02*
X-16140000Y-10725000D01*
X-16085000Y-10615000D02*
X-16085000Y-10725000D01*
X-16140000Y-10670000D02*
X-16030000Y-10670000D01*
D14*
X-19625000Y-8285000D02*
X-19495000Y-8415000D01*
X-19495000Y-8285000D02*
X-19625000Y-8415000D01*
X-19514038Y-8395962D02*
X-19514038Y-8304038D01*
X-19605962Y-8304038D01*
X-19605962Y-8395962D01*
X-19514038Y-8395962D01*
X-19625000Y-9301000D02*
X-19495000Y-9431000D01*
X-19495000Y-9301000D02*
X-19625000Y-9431000D01*
X-19514038Y-9411962D02*
X-19514038Y-9320038D01*
X-19605962Y-9320038D01*
X-19605962Y-9411962D01*
X-19514038Y-9411962D01*
X-19625000Y-10063000D02*
X-19495000Y-10193000D01*
X-19495000Y-10063000D02*
X-19625000Y-10193000D01*
X-19514038Y-10173962D02*
X-19514038Y-10082038D01*
X-19605962Y-10082038D01*
X-19605962Y-10173962D01*
X-19514038Y-10173962D01*
X-18863000Y-8285000D02*
X-18733000Y-8415000D01*
X-18733000Y-8285000D02*
X-18863000Y-8415000D01*
X-18752038Y-8395962D02*
X-18752038Y-8304038D01*
X-18843962Y-8304038D01*
X-18843962Y-8395962D01*
X-18752038Y-8395962D01*
D15*
X-18340000Y-9005000D02*
X-18180000Y-9165000D01*
X-18180000Y-9005000D02*
X-18340000Y-9165000D01*
X-18260000Y-9165000D02*
X-18180000Y-9085000D01*
X-18260000Y-9005000D01*
X-18340000Y-9085000D01*
X-18260000Y-9165000D01*
X-18255000Y-5805000D02*
X-18095000Y-5965000D01*
X-18095000Y-5805000D02*
X-18255000Y-5965000D01*
X-18175000Y-5965000D02*
X-18095000Y-5885000D01*
X-18175000Y-5805000D01*
X-18255000Y-5885000D01*
X-18175000Y-5965000D01*
X-17865000Y-8992500D02*
X-17705000Y-9152500D01*
X-17705000Y-8992500D02*
X-17865000Y-9152500D01*
X-17785000Y-9152500D02*
X-17705000Y-9072500D01*
X-17785000Y-8992500D01*
X-17865000Y-9072500D01*
X-17785000Y-9152500D01*
X-17812500Y-5805000D02*
X-17652500Y-5965000D01*
X-17652500Y-5805000D02*
X-17812500Y-5965000D01*
X-17732500Y-5965000D02*
X-17652500Y-5885000D01*
X-17732500Y-5805000D01*
X-17812500Y-5885000D01*
X-17732500Y-5965000D01*
X-15972500Y-4802500D02*
X-15812500Y-4962500D01*
X-15812500Y-4802500D02*
X-15972500Y-4962500D01*
X-15892500Y-4962500D02*
X-15812500Y-4882500D01*
X-15892500Y-4802500D01*
X-15972500Y-4882500D01*
X-15892500Y-4962500D01*
X-15405000Y-4817500D02*
X-15245000Y-4977500D01*
X-15245000Y-4817500D02*
X-15405000Y-4977500D01*
X-15325000Y-4977500D02*
X-15245000Y-4897500D01*
X-15325000Y-4817500D01*
X-15405000Y-4897500D01*
X-15325000Y-4977500D01*
D16*
X-19407500Y-10890000D02*
X-19407500Y-11210000D01*
X-19567500Y-11050000D02*
X-19247500Y-11050000D01*
X-19247500Y-11050000D02*
G75*
G02*
X-19567500Y-11050000I-160000J0D01*
G01*
X-19567500Y-11050000D02*
G75*
G02*
X-19247500Y-11050000I160000J0D01*
G01*
X-19405000Y-3800000D02*
X-19405000Y-4120000D01*
X-19565000Y-3960000D02*
X-19245000Y-3960000D01*
X-19245000Y-3960000D02*
G75*
G02*
X-19565000Y-3960000I-160000J0D01*
G01*
X-19565000Y-3960000D02*
G75*
G02*
X-19245000Y-3960000I160000J0D01*
G01*
X-15182500Y-3800000D02*
X-15182500Y-4120000D01*
X-15342500Y-3960000D02*
X-15022500Y-3960000D01*
X-15022500Y-3960000D02*
G75*
G02*
X-15342500Y-3960000I-160000J0D01*
G01*
X-15342500Y-3960000D02*
G75*
G02*
X-15022500Y-3960000I160000J0D01*
G01*
X-15130000Y-10905000D02*
X-15130000Y-11225000D01*
X-15290000Y-11065000D02*
X-14970000Y-11065000D01*
X-14970000Y-11065000D02*
G75*
G02*
X-15290000Y-11065000I-160000J0D01*
G01*
X-15290000Y-11065000D02*
G75*
G02*
X-14970000Y-11065000I160000J0D01*
G01*
D11*
X-19646723Y-11863984D02*
X-19646723Y-11663984D01*
X-19646723Y-11663984D02*
X-19599104Y-11663984D01*
X-19599104Y-11663984D02*
X-19570533Y-11673508D01*
X-19570533Y-11673508D02*
X-19551485Y-11692555D01*
X-19551485Y-11692555D02*
X-19541961Y-11711603D01*
X-19541961Y-11711603D02*
X-19532437Y-11749698D01*
X-19532437Y-11749698D02*
X-19532437Y-11778269D01*
X-19532437Y-11778269D02*
X-19541961Y-11816365D01*
X-19541961Y-11816365D02*
X-19551485Y-11835412D01*
X-19551485Y-11835412D02*
X-19570533Y-11854460D01*
X-19570533Y-11854460D02*
X-19599104Y-11863984D01*
X-19599104Y-11863984D02*
X-19646723Y-11863984D01*
X-19446723Y-11863984D02*
X-19446723Y-11730650D01*
X-19446723Y-11768746D02*
X-19437199Y-11749698D01*
X-19437199Y-11749698D02*
X-19427676Y-11740174D01*
X-19427676Y-11740174D02*
X-19408628Y-11730650D01*
X-19408628Y-11730650D02*
X-19389580Y-11730650D01*
X-19322914Y-11863984D02*
X-19322914Y-11730650D01*
X-19322914Y-11663984D02*
X-19332437Y-11673508D01*
X-19332437Y-11673508D02*
X-19322914Y-11683031D01*
X-19322914Y-11683031D02*
X-19313390Y-11673508D01*
X-19313390Y-11673508D02*
X-19322914Y-11663984D01*
X-19322914Y-11663984D02*
X-19322914Y-11683031D01*
X-19199104Y-11863984D02*
X-19218152Y-11854460D01*
X-19218152Y-11854460D02*
X-19227676Y-11835412D01*
X-19227676Y-11835412D02*
X-19227676Y-11663984D01*
X-19094342Y-11863984D02*
X-19113390Y-11854460D01*
X-19113390Y-11854460D02*
X-19122914Y-11835412D01*
X-19122914Y-11835412D02*
X-19122914Y-11663984D01*
X-18865771Y-11863984D02*
X-18865771Y-11663984D01*
X-18865771Y-11663984D02*
X-18799104Y-11806841D01*
X-18799104Y-11806841D02*
X-18732437Y-11663984D01*
X-18732437Y-11663984D02*
X-18732437Y-11863984D01*
X-18551485Y-11863984D02*
X-18551485Y-11759222D01*
X-18551485Y-11759222D02*
X-18561009Y-11740174D01*
X-18561009Y-11740174D02*
X-18580056Y-11730650D01*
X-18580056Y-11730650D02*
X-18618152Y-11730650D01*
X-18618152Y-11730650D02*
X-18637199Y-11740174D01*
X-18551485Y-11854460D02*
X-18570533Y-11863984D01*
X-18570533Y-11863984D02*
X-18618152Y-11863984D01*
X-18618152Y-11863984D02*
X-18637199Y-11854460D01*
X-18637199Y-11854460D02*
X-18646723Y-11835412D01*
X-18646723Y-11835412D02*
X-18646723Y-11816365D01*
X-18646723Y-11816365D02*
X-18637199Y-11797317D01*
X-18637199Y-11797317D02*
X-18618152Y-11787793D01*
X-18618152Y-11787793D02*
X-18570533Y-11787793D01*
X-18570533Y-11787793D02*
X-18551485Y-11778269D01*
X-18456247Y-11730650D02*
X-18456247Y-11930650D01*
X-18456247Y-11740174D02*
X-18437199Y-11730650D01*
X-18437199Y-11730650D02*
X-18399104Y-11730650D01*
X-18399104Y-11730650D02*
X-18380056Y-11740174D01*
X-18380056Y-11740174D02*
X-18370533Y-11749698D01*
X-18370533Y-11749698D02*
X-18361009Y-11768746D01*
X-18361009Y-11768746D02*
X-18361009Y-11825888D01*
X-18361009Y-11825888D02*
X-18370533Y-11844936D01*
X-18370533Y-11844936D02*
X-18380056Y-11854460D01*
X-18380056Y-11854460D02*
X-18399104Y-11863984D01*
X-18399104Y-11863984D02*
X-18437199Y-11863984D01*
X-18437199Y-11863984D02*
X-18456247Y-11854460D01*
X-18275295Y-11844936D02*
X-18265771Y-11854460D01*
X-18265771Y-11854460D02*
X-18275295Y-11863984D01*
X-18275295Y-11863984D02*
X-18284818Y-11854460D01*
X-18284818Y-11854460D02*
X-18275295Y-11844936D01*
X-18275295Y-11844936D02*
X-18275295Y-11863984D01*
X-18275295Y-11740174D02*
X-18265771Y-11749698D01*
X-18265771Y-11749698D02*
X-18275295Y-11759222D01*
X-18275295Y-11759222D02*
X-18284818Y-11749698D01*
X-18284818Y-11749698D02*
X-18275295Y-11740174D01*
X-18275295Y-11740174D02*
X-18275295Y-11759222D01*
D12*
X-19937500Y-12177500D02*
X-19907500Y-12207500D01*
X-19907500Y-12177500D02*
X-19937500Y-12207500D01*
D11*
X-19608628Y-12083984D02*
X-19589580Y-12083984D01*
X-19589580Y-12083984D02*
X-19570533Y-12093508D01*
X-19570533Y-12093508D02*
X-19561009Y-12103031D01*
X-19561009Y-12103031D02*
X-19551485Y-12122079D01*
X-19551485Y-12122079D02*
X-19541961Y-12160174D01*
X-19541961Y-12160174D02*
X-19541961Y-12207793D01*
X-19541961Y-12207793D02*
X-19551485Y-12245888D01*
X-19551485Y-12245888D02*
X-19561009Y-12264936D01*
X-19561009Y-12264936D02*
X-19570533Y-12274460D01*
X-19570533Y-12274460D02*
X-19589580Y-12283984D01*
X-19589580Y-12283984D02*
X-19608628Y-12283984D01*
X-19608628Y-12283984D02*
X-19627676Y-12274460D01*
X-19627676Y-12274460D02*
X-19637199Y-12264936D01*
X-19637199Y-12264936D02*
X-19646723Y-12245888D01*
X-19646723Y-12245888D02*
X-19656247Y-12207793D01*
X-19656247Y-12207793D02*
X-19656247Y-12160174D01*
X-19656247Y-12160174D02*
X-19646723Y-12122079D01*
X-19646723Y-12122079D02*
X-19637199Y-12103031D01*
X-19637199Y-12103031D02*
X-19627676Y-12093508D01*
X-19627676Y-12093508D02*
X-19608628Y-12083984D01*
X-19456247Y-12264936D02*
X-19446723Y-12274460D01*
X-19446723Y-12274460D02*
X-19456247Y-12283984D01*
X-19456247Y-12283984D02*
X-19465771Y-12274460D01*
X-19465771Y-12274460D02*
X-19456247Y-12264936D01*
X-19456247Y-12264936D02*
X-19456247Y-12283984D01*
X-19380056Y-12083984D02*
X-19256247Y-12083984D01*
X-19256247Y-12083984D02*
X-19322914Y-12160174D01*
X-19322914Y-12160174D02*
X-19294342Y-12160174D01*
X-19294342Y-12160174D02*
X-19275295Y-12169698D01*
X-19275295Y-12169698D02*
X-19265771Y-12179222D01*
X-19265771Y-12179222D02*
X-19256247Y-12198269D01*
X-19256247Y-12198269D02*
X-19256247Y-12245888D01*
X-19256247Y-12245888D02*
X-19265771Y-12264936D01*
X-19265771Y-12264936D02*
X-19275295Y-12274460D01*
X-19275295Y-12274460D02*
X-19294342Y-12283984D01*
X-19294342Y-12283984D02*
X-19351485Y-12283984D01*
X-19351485Y-12283984D02*
X-19370533Y-12274460D01*
X-19370533Y-12274460D02*
X-19380056Y-12264936D01*
X-19132437Y-12083984D02*
X-19113390Y-12083984D01*
X-19113390Y-12083984D02*
X-19094342Y-12093508D01*
X-19094342Y-12093508D02*
X-19084818Y-12103031D01*
X-19084818Y-12103031D02*
X-19075295Y-12122079D01*
X-19075295Y-12122079D02*
X-19065771Y-12160174D01*
X-19065771Y-12160174D02*
X-19065771Y-12207793D01*
X-19065771Y-12207793D02*
X-19075295Y-12245888D01*
X-19075295Y-12245888D02*
X-19084818Y-12264936D01*
X-19084818Y-12264936D02*
X-19094342Y-12274460D01*
X-19094342Y-12274460D02*
X-19113390Y-12283984D01*
X-19113390Y-12283984D02*
X-19132437Y-12283984D01*
X-19132437Y-12283984D02*
X-19151485Y-12274460D01*
X-19151485Y-12274460D02*
X-19161009Y-12264936D01*
X-19161009Y-12264936D02*
X-19170533Y-12245888D01*
X-19170533Y-12245888D02*
X-19180056Y-12207793D01*
X-19180056Y-12207793D02*
X-19180056Y-12160174D01*
X-19180056Y-12160174D02*
X-19170533Y-12122079D01*
X-19170533Y-12122079D02*
X-19161009Y-12103031D01*
X-19161009Y-12103031D02*
X-19151485Y-12093508D01*
X-19151485Y-12093508D02*
X-19132437Y-12083984D01*
X-18941961Y-12083984D02*
X-18922914Y-12083984D01*
X-18922914Y-12083984D02*
X-18903866Y-12093508D01*
X-18903866Y-12093508D02*
X-18894342Y-12103031D01*
X-18894342Y-12103031D02*
X-18884818Y-12122079D01*
X-18884818Y-12122079D02*
X-18875295Y-12160174D01*
X-18875295Y-12160174D02*
X-18875295Y-12207793D01*
X-18875295Y-12207793D02*
X-18884818Y-12245888D01*
X-18884818Y-12245888D02*
X-18894342Y-12264936D01*
X-18894342Y-12264936D02*
X-18903866Y-12274460D01*
X-18903866Y-12274460D02*
X-18922914Y-12283984D01*
X-18922914Y-12283984D02*
X-18941961Y-12283984D01*
X-18941961Y-12283984D02*
X-18961009Y-12274460D01*
X-18961009Y-12274460D02*
X-18970533Y-12264936D01*
X-18970533Y-12264936D02*
X-18980056Y-12245888D01*
X-18980056Y-12245888D02*
X-18989580Y-12207793D01*
X-18989580Y-12207793D02*
X-18989580Y-12160174D01*
X-18989580Y-12160174D02*
X-18980056Y-12122079D01*
X-18980056Y-12122079D02*
X-18970533Y-12103031D01*
X-18970533Y-12103031D02*
X-18961009Y-12093508D01*
X-18961009Y-12093508D02*
X-18941961Y-12083984D01*
X-18789580Y-12283984D02*
X-18789580Y-12150650D01*
X-18789580Y-12169698D02*
X-18780056Y-12160174D01*
X-18780056Y-12160174D02*
X-18761009Y-12150650D01*
X-18761009Y-12150650D02*
X-18732437Y-12150650D01*
X-18732437Y-12150650D02*
X-18713390Y-12160174D01*
X-18713390Y-12160174D02*
X-18703866Y-12179222D01*
X-18703866Y-12179222D02*
X-18703866Y-12283984D01*
X-18703866Y-12179222D02*
X-18694342Y-12160174D01*
X-18694342Y-12160174D02*
X-18675295Y-12150650D01*
X-18675295Y-12150650D02*
X-18646723Y-12150650D01*
X-18646723Y-12150650D02*
X-18627675Y-12160174D01*
X-18627675Y-12160174D02*
X-18618152Y-12179222D01*
X-18618152Y-12179222D02*
X-18618152Y-12283984D01*
X-18522914Y-12283984D02*
X-18522914Y-12150650D01*
X-18522914Y-12169698D02*
X-18513390Y-12160174D01*
X-18513390Y-12160174D02*
X-18494342Y-12150650D01*
X-18494342Y-12150650D02*
X-18465771Y-12150650D01*
X-18465771Y-12150650D02*
X-18446723Y-12160174D01*
X-18446723Y-12160174D02*
X-18437199Y-12179222D01*
X-18437199Y-12179222D02*
X-18437199Y-12283984D01*
X-18437199Y-12179222D02*
X-18427675Y-12160174D01*
X-18427675Y-12160174D02*
X-18408628Y-12150650D01*
X-18408628Y-12150650D02*
X-18380056Y-12150650D01*
X-18380056Y-12150650D02*
X-18361009Y-12160174D01*
X-18361009Y-12160174D02*
X-18351485Y-12179222D01*
X-18351485Y-12179222D02*
X-18351485Y-12283984D01*
X-17961009Y-12074460D02*
X-18132437Y-12331603D01*
X-17703866Y-12083984D02*
X-17684818Y-12083984D01*
X-17684818Y-12083984D02*
X-17665771Y-12093508D01*
X-17665771Y-12093508D02*
X-17656247Y-12103031D01*
X-17656247Y-12103031D02*
X-17646723Y-12122079D01*
X-17646723Y-12122079D02*
X-17637199Y-12160174D01*
X-17637199Y-12160174D02*
X-17637199Y-12207793D01*
X-17637199Y-12207793D02*
X-17646723Y-12245888D01*
X-17646723Y-12245888D02*
X-17656247Y-12264936D01*
X-17656247Y-12264936D02*
X-17665771Y-12274460D01*
X-17665771Y-12274460D02*
X-17684818Y-12283984D01*
X-17684818Y-12283984D02*
X-17703866Y-12283984D01*
X-17703866Y-12283984D02*
X-17722913Y-12274460D01*
X-17722913Y-12274460D02*
X-17732437Y-12264936D01*
X-17732437Y-12264936D02*
X-17741961Y-12245888D01*
X-17741961Y-12245888D02*
X-17751485Y-12207793D01*
X-17751485Y-12207793D02*
X-17751485Y-12160174D01*
X-17751485Y-12160174D02*
X-17741961Y-12122079D01*
X-17741961Y-12122079D02*
X-17732437Y-12103031D01*
X-17732437Y-12103031D02*
X-17722913Y-12093508D01*
X-17722913Y-12093508D02*
X-17703866Y-12083984D01*
X-17551485Y-12264936D02*
X-17541961Y-12274460D01*
X-17541961Y-12274460D02*
X-17551485Y-12283984D01*
X-17551485Y-12283984D02*
X-17561009Y-12274460D01*
X-17561009Y-12274460D02*
X-17551485Y-12264936D01*
X-17551485Y-12264936D02*
X-17551485Y-12283984D01*
X-17418152Y-12083984D02*
X-17399104Y-12083984D01*
X-17399104Y-12083984D02*
X-17380056Y-12093508D01*
X-17380056Y-12093508D02*
X-17370532Y-12103031D01*
X-17370532Y-12103031D02*
X-17361009Y-12122079D01*
X-17361009Y-12122079D02*
X-17351485Y-12160174D01*
X-17351485Y-12160174D02*
X-17351485Y-12207793D01*
X-17351485Y-12207793D02*
X-17361009Y-12245888D01*
X-17361009Y-12245888D02*
X-17370532Y-12264936D01*
X-17370532Y-12264936D02*
X-17380056Y-12274460D01*
X-17380056Y-12274460D02*
X-17399104Y-12283984D01*
X-17399104Y-12283984D02*
X-17418152Y-12283984D01*
X-17418152Y-12283984D02*
X-17437199Y-12274460D01*
X-17437199Y-12274460D02*
X-17446723Y-12264936D01*
X-17446723Y-12264936D02*
X-17456247Y-12245888D01*
X-17456247Y-12245888D02*
X-17465771Y-12207793D01*
X-17465771Y-12207793D02*
X-17465771Y-12160174D01*
X-17465771Y-12160174D02*
X-17456247Y-12122079D01*
X-17456247Y-12122079D02*
X-17446723Y-12103031D01*
X-17446723Y-12103031D02*
X-17437199Y-12093508D01*
X-17437199Y-12093508D02*
X-17418152Y-12083984D01*
X-17161009Y-12283984D02*
X-17275294Y-12283984D01*
X-17218152Y-12283984D02*
X-17218152Y-12083984D01*
X-17218152Y-12083984D02*
X-17237199Y-12112555D01*
X-17237199Y-12112555D02*
X-17256247Y-12131603D01*
X-17256247Y-12131603D02*
X-17275294Y-12141127D01*
X-16970532Y-12283984D02*
X-17084818Y-12283984D01*
X-17027675Y-12283984D02*
X-17027675Y-12083984D01*
X-17027675Y-12083984D02*
X-17046723Y-12112555D01*
X-17046723Y-12112555D02*
X-17065771Y-12131603D01*
X-17065771Y-12131603D02*
X-17084818Y-12141127D01*
X-16856247Y-12169698D02*
X-16875294Y-12160174D01*
X-16875294Y-12160174D02*
X-16884818Y-12150650D01*
X-16884818Y-12150650D02*
X-16894342Y-12131603D01*
X-16894342Y-12131603D02*
X-16894342Y-12122079D01*
X-16894342Y-12122079D02*
X-16884818Y-12103031D01*
X-16884818Y-12103031D02*
X-16875294Y-12093508D01*
X-16875294Y-12093508D02*
X-16856247Y-12083984D01*
X-16856247Y-12083984D02*
X-16818151Y-12083984D01*
X-16818151Y-12083984D02*
X-16799104Y-12093508D01*
X-16799104Y-12093508D02*
X-16789580Y-12103031D01*
X-16789580Y-12103031D02*
X-16780056Y-12122079D01*
X-16780056Y-12122079D02*
X-16780056Y-12131603D01*
X-16780056Y-12131603D02*
X-16789580Y-12150650D01*
X-16789580Y-12150650D02*
X-16799104Y-12160174D01*
X-16799104Y-12160174D02*
X-16818151Y-12169698D01*
X-16818151Y-12169698D02*
X-16856247Y-12169698D01*
X-16856247Y-12169698D02*
X-16875294Y-12179222D01*
X-16875294Y-12179222D02*
X-16884818Y-12188746D01*
X-16884818Y-12188746D02*
X-16894342Y-12207793D01*
X-16894342Y-12207793D02*
X-16894342Y-12245888D01*
X-16894342Y-12245888D02*
X-16884818Y-12264936D01*
X-16884818Y-12264936D02*
X-16875294Y-12274460D01*
X-16875294Y-12274460D02*
X-16856247Y-12283984D01*
X-16856247Y-12283984D02*
X-16818151Y-12283984D01*
X-16818151Y-12283984D02*
X-16799104Y-12274460D01*
X-16799104Y-12274460D02*
X-16789580Y-12264936D01*
X-16789580Y-12264936D02*
X-16780056Y-12245888D01*
X-16780056Y-12245888D02*
X-16780056Y-12207793D01*
X-16780056Y-12207793D02*
X-16789580Y-12188746D01*
X-16789580Y-12188746D02*
X-16799104Y-12179222D01*
X-16799104Y-12179222D02*
X-16818151Y-12169698D01*
X-16703866Y-12083984D02*
X-16703866Y-12122079D01*
X-16627675Y-12083984D02*
X-16627675Y-12122079D01*
X-16332437Y-12360174D02*
X-16341961Y-12350650D01*
X-16341961Y-12350650D02*
X-16361008Y-12322079D01*
X-16361008Y-12322079D02*
X-16370532Y-12303031D01*
X-16370532Y-12303031D02*
X-16380056Y-12274460D01*
X-16380056Y-12274460D02*
X-16389580Y-12226841D01*
X-16389580Y-12226841D02*
X-16389580Y-12188746D01*
X-16389580Y-12188746D02*
X-16380056Y-12141127D01*
X-16380056Y-12141127D02*
X-16370532Y-12112555D01*
X-16370532Y-12112555D02*
X-16361008Y-12093508D01*
X-16361008Y-12093508D02*
X-16341961Y-12064936D01*
X-16341961Y-12064936D02*
X-16332437Y-12055412D01*
X-16151485Y-12283984D02*
X-16265770Y-12283984D01*
X-16208628Y-12283984D02*
X-16208628Y-12083984D01*
X-16208628Y-12083984D02*
X-16227675Y-12112555D01*
X-16227675Y-12112555D02*
X-16246723Y-12131603D01*
X-16246723Y-12131603D02*
X-16265770Y-12141127D01*
X-15980056Y-12150650D02*
X-15980056Y-12283984D01*
X-16027675Y-12074460D02*
X-16075294Y-12217317D01*
X-16075294Y-12217317D02*
X-15951485Y-12217317D01*
X-15722913Y-12283984D02*
X-15722913Y-12083984D01*
X-15637199Y-12283984D02*
X-15637199Y-12179222D01*
X-15637199Y-12179222D02*
X-15646723Y-12160174D01*
X-15646723Y-12160174D02*
X-15665770Y-12150650D01*
X-15665770Y-12150650D02*
X-15694342Y-12150650D01*
X-15694342Y-12150650D02*
X-15713389Y-12160174D01*
X-15713389Y-12160174D02*
X-15722913Y-12169698D01*
X-15513389Y-12283984D02*
X-15532437Y-12274460D01*
X-15532437Y-12274460D02*
X-15541961Y-12264936D01*
X-15541961Y-12264936D02*
X-15551485Y-12245888D01*
X-15551485Y-12245888D02*
X-15551485Y-12188746D01*
X-15551485Y-12188746D02*
X-15541961Y-12169698D01*
X-15541961Y-12169698D02*
X-15532437Y-12160174D01*
X-15532437Y-12160174D02*
X-15513389Y-12150650D01*
X-15513389Y-12150650D02*
X-15484818Y-12150650D01*
X-15484818Y-12150650D02*
X-15465770Y-12160174D01*
X-15465770Y-12160174D02*
X-15456246Y-12169698D01*
X-15456246Y-12169698D02*
X-15446723Y-12188746D01*
X-15446723Y-12188746D02*
X-15446723Y-12245888D01*
X-15446723Y-12245888D02*
X-15456246Y-12264936D01*
X-15456246Y-12264936D02*
X-15465770Y-12274460D01*
X-15465770Y-12274460D02*
X-15484818Y-12283984D01*
X-15484818Y-12283984D02*
X-15513389Y-12283984D01*
X-15332437Y-12283984D02*
X-15351485Y-12274460D01*
X-15351485Y-12274460D02*
X-15361008Y-12255412D01*
X-15361008Y-12255412D02*
X-15361008Y-12083984D01*
X-15180056Y-12274460D02*
X-15199104Y-12283984D01*
X-15199104Y-12283984D02*
X-15237199Y-12283984D01*
X-15237199Y-12283984D02*
X-15256246Y-12274460D01*
X-15256246Y-12274460D02*
X-15265770Y-12255412D01*
X-15265770Y-12255412D02*
X-15265770Y-12179222D01*
X-15265770Y-12179222D02*
X-15256246Y-12160174D01*
X-15256246Y-12160174D02*
X-15237199Y-12150650D01*
X-15237199Y-12150650D02*
X-15199104Y-12150650D01*
X-15199104Y-12150650D02*
X-15180056Y-12160174D01*
X-15180056Y-12160174D02*
X-15170532Y-12179222D01*
X-15170532Y-12179222D02*
X-15170532Y-12198269D01*
X-15170532Y-12198269D02*
X-15265770Y-12217317D01*
X-15094342Y-12274460D02*
X-15075294Y-12283984D01*
X-15075294Y-12283984D02*
X-15037199Y-12283984D01*
X-15037199Y-12283984D02*
X-15018151Y-12274460D01*
X-15018151Y-12274460D02*
X-15008627Y-12255412D01*
X-15008627Y-12255412D02*
X-15008627Y-12245888D01*
X-15008627Y-12245888D02*
X-15018151Y-12226841D01*
X-15018151Y-12226841D02*
X-15037199Y-12217317D01*
X-15037199Y-12217317D02*
X-15065770Y-12217317D01*
X-15065770Y-12217317D02*
X-15084818Y-12207793D01*
X-15084818Y-12207793D02*
X-15094342Y-12188746D01*
X-15094342Y-12188746D02*
X-15094342Y-12179222D01*
X-15094342Y-12179222D02*
X-15084818Y-12160174D01*
X-15084818Y-12160174D02*
X-15065770Y-12150650D01*
X-15065770Y-12150650D02*
X-15037199Y-12150650D01*
X-15037199Y-12150650D02*
X-15018151Y-12160174D01*
X-14941961Y-12360174D02*
X-14932437Y-12350650D01*
X-14932437Y-12350650D02*
X-14913389Y-12322079D01*
X-14913389Y-12322079D02*
X-14903865Y-12303031D01*
X-14903865Y-12303031D02*
X-14894342Y-12274460D01*
X-14894342Y-12274460D02*
X-14884818Y-12226841D01*
X-14884818Y-12226841D02*
X-14884818Y-12188746D01*
X-14884818Y-12188746D02*
X-14894342Y-12141127D01*
X-14894342Y-12141127D02*
X-14903865Y-12112555D01*
X-14903865Y-12112555D02*
X-14913389Y-12093508D01*
X-14913389Y-12093508D02*
X-14932437Y-12064936D01*
X-14932437Y-12064936D02*
X-14941961Y-12055412D01*
D12*
X-19907500Y-12456500D02*
G75*
G02*
X-19977500Y-12456500I-35000J0D01*
G01*
X-19977500Y-12456500D02*
G75*
G02*
X-19907500Y-12456500I35000J0D01*
G01*
D11*
X-19608628Y-12347984D02*
X-19589580Y-12347984D01*
X-19589580Y-12347984D02*
X-19570533Y-12357508D01*
X-19570533Y-12357508D02*
X-19561009Y-12367031D01*
X-19561009Y-12367031D02*
X-19551485Y-12386079D01*
X-19551485Y-12386079D02*
X-19541961Y-12424174D01*
X-19541961Y-12424174D02*
X-19541961Y-12471793D01*
X-19541961Y-12471793D02*
X-19551485Y-12509888D01*
X-19551485Y-12509888D02*
X-19561009Y-12528936D01*
X-19561009Y-12528936D02*
X-19570533Y-12538460D01*
X-19570533Y-12538460D02*
X-19589580Y-12547984D01*
X-19589580Y-12547984D02*
X-19608628Y-12547984D01*
X-19608628Y-12547984D02*
X-19627676Y-12538460D01*
X-19627676Y-12538460D02*
X-19637199Y-12528936D01*
X-19637199Y-12528936D02*
X-19646723Y-12509888D01*
X-19646723Y-12509888D02*
X-19656247Y-12471793D01*
X-19656247Y-12471793D02*
X-19656247Y-12424174D01*
X-19656247Y-12424174D02*
X-19646723Y-12386079D01*
X-19646723Y-12386079D02*
X-19637199Y-12367031D01*
X-19637199Y-12367031D02*
X-19627676Y-12357508D01*
X-19627676Y-12357508D02*
X-19608628Y-12347984D01*
X-19456247Y-12528936D02*
X-19446723Y-12538460D01*
X-19446723Y-12538460D02*
X-19456247Y-12547984D01*
X-19456247Y-12547984D02*
X-19465771Y-12538460D01*
X-19465771Y-12538460D02*
X-19456247Y-12528936D01*
X-19456247Y-12528936D02*
X-19456247Y-12547984D01*
X-19380056Y-12347984D02*
X-19246723Y-12347984D01*
X-19246723Y-12347984D02*
X-19332437Y-12547984D01*
X-19132437Y-12347984D02*
X-19113390Y-12347984D01*
X-19113390Y-12347984D02*
X-19094342Y-12357508D01*
X-19094342Y-12357508D02*
X-19084818Y-12367031D01*
X-19084818Y-12367031D02*
X-19075295Y-12386079D01*
X-19075295Y-12386079D02*
X-19065771Y-12424174D01*
X-19065771Y-12424174D02*
X-19065771Y-12471793D01*
X-19065771Y-12471793D02*
X-19075295Y-12509888D01*
X-19075295Y-12509888D02*
X-19084818Y-12528936D01*
X-19084818Y-12528936D02*
X-19094342Y-12538460D01*
X-19094342Y-12538460D02*
X-19113390Y-12547984D01*
X-19113390Y-12547984D02*
X-19132437Y-12547984D01*
X-19132437Y-12547984D02*
X-19151485Y-12538460D01*
X-19151485Y-12538460D02*
X-19161009Y-12528936D01*
X-19161009Y-12528936D02*
X-19170533Y-12509888D01*
X-19170533Y-12509888D02*
X-19180056Y-12471793D01*
X-19180056Y-12471793D02*
X-19180056Y-12424174D01*
X-19180056Y-12424174D02*
X-19170533Y-12386079D01*
X-19170533Y-12386079D02*
X-19161009Y-12367031D01*
X-19161009Y-12367031D02*
X-19151485Y-12357508D01*
X-19151485Y-12357508D02*
X-19132437Y-12347984D01*
X-18941961Y-12347984D02*
X-18922914Y-12347984D01*
X-18922914Y-12347984D02*
X-18903866Y-12357508D01*
X-18903866Y-12357508D02*
X-18894342Y-12367031D01*
X-18894342Y-12367031D02*
X-18884818Y-12386079D01*
X-18884818Y-12386079D02*
X-18875295Y-12424174D01*
X-18875295Y-12424174D02*
X-18875295Y-12471793D01*
X-18875295Y-12471793D02*
X-18884818Y-12509888D01*
X-18884818Y-12509888D02*
X-18894342Y-12528936D01*
X-18894342Y-12528936D02*
X-18903866Y-12538460D01*
X-18903866Y-12538460D02*
X-18922914Y-12547984D01*
X-18922914Y-12547984D02*
X-18941961Y-12547984D01*
X-18941961Y-12547984D02*
X-18961009Y-12538460D01*
X-18961009Y-12538460D02*
X-18970533Y-12528936D01*
X-18970533Y-12528936D02*
X-18980056Y-12509888D01*
X-18980056Y-12509888D02*
X-18989580Y-12471793D01*
X-18989580Y-12471793D02*
X-18989580Y-12424174D01*
X-18989580Y-12424174D02*
X-18980056Y-12386079D01*
X-18980056Y-12386079D02*
X-18970533Y-12367031D01*
X-18970533Y-12367031D02*
X-18961009Y-12357508D01*
X-18961009Y-12357508D02*
X-18941961Y-12347984D01*
X-18789580Y-12547984D02*
X-18789580Y-12414650D01*
X-18789580Y-12433698D02*
X-18780056Y-12424174D01*
X-18780056Y-12424174D02*
X-18761009Y-12414650D01*
X-18761009Y-12414650D02*
X-18732437Y-12414650D01*
X-18732437Y-12414650D02*
X-18713390Y-12424174D01*
X-18713390Y-12424174D02*
X-18703866Y-12443222D01*
X-18703866Y-12443222D02*
X-18703866Y-12547984D01*
X-18703866Y-12443222D02*
X-18694342Y-12424174D01*
X-18694342Y-12424174D02*
X-18675295Y-12414650D01*
X-18675295Y-12414650D02*
X-18646723Y-12414650D01*
X-18646723Y-12414650D02*
X-18627675Y-12424174D01*
X-18627675Y-12424174D02*
X-18618152Y-12443222D01*
X-18618152Y-12443222D02*
X-18618152Y-12547984D01*
X-18522914Y-12547984D02*
X-18522914Y-12414650D01*
X-18522914Y-12433698D02*
X-18513390Y-12424174D01*
X-18513390Y-12424174D02*
X-18494342Y-12414650D01*
X-18494342Y-12414650D02*
X-18465771Y-12414650D01*
X-18465771Y-12414650D02*
X-18446723Y-12424174D01*
X-18446723Y-12424174D02*
X-18437199Y-12443222D01*
X-18437199Y-12443222D02*
X-18437199Y-12547984D01*
X-18437199Y-12443222D02*
X-18427675Y-12424174D01*
X-18427675Y-12424174D02*
X-18408628Y-12414650D01*
X-18408628Y-12414650D02*
X-18380056Y-12414650D01*
X-18380056Y-12414650D02*
X-18361009Y-12424174D01*
X-18361009Y-12424174D02*
X-18351485Y-12443222D01*
X-18351485Y-12443222D02*
X-18351485Y-12547984D01*
X-17961009Y-12338460D02*
X-18132437Y-12595603D01*
X-17703866Y-12347984D02*
X-17684818Y-12347984D01*
X-17684818Y-12347984D02*
X-17665771Y-12357508D01*
X-17665771Y-12357508D02*
X-17656247Y-12367031D01*
X-17656247Y-12367031D02*
X-17646723Y-12386079D01*
X-17646723Y-12386079D02*
X-17637199Y-12424174D01*
X-17637199Y-12424174D02*
X-17637199Y-12471793D01*
X-17637199Y-12471793D02*
X-17646723Y-12509888D01*
X-17646723Y-12509888D02*
X-17656247Y-12528936D01*
X-17656247Y-12528936D02*
X-17665771Y-12538460D01*
X-17665771Y-12538460D02*
X-17684818Y-12547984D01*
X-17684818Y-12547984D02*
X-17703866Y-12547984D01*
X-17703866Y-12547984D02*
X-17722913Y-12538460D01*
X-17722913Y-12538460D02*
X-17732437Y-12528936D01*
X-17732437Y-12528936D02*
X-17741961Y-12509888D01*
X-17741961Y-12509888D02*
X-17751485Y-12471793D01*
X-17751485Y-12471793D02*
X-17751485Y-12424174D01*
X-17751485Y-12424174D02*
X-17741961Y-12386079D01*
X-17741961Y-12386079D02*
X-17732437Y-12367031D01*
X-17732437Y-12367031D02*
X-17722913Y-12357508D01*
X-17722913Y-12357508D02*
X-17703866Y-12347984D01*
X-17551485Y-12528936D02*
X-17541961Y-12538460D01*
X-17541961Y-12538460D02*
X-17551485Y-12547984D01*
X-17551485Y-12547984D02*
X-17561009Y-12538460D01*
X-17561009Y-12538460D02*
X-17551485Y-12528936D01*
X-17551485Y-12528936D02*
X-17551485Y-12547984D01*
X-17418152Y-12347984D02*
X-17399104Y-12347984D01*
X-17399104Y-12347984D02*
X-17380056Y-12357508D01*
X-17380056Y-12357508D02*
X-17370532Y-12367031D01*
X-17370532Y-12367031D02*
X-17361009Y-12386079D01*
X-17361009Y-12386079D02*
X-17351485Y-12424174D01*
X-17351485Y-12424174D02*
X-17351485Y-12471793D01*
X-17351485Y-12471793D02*
X-17361009Y-12509888D01*
X-17361009Y-12509888D02*
X-17370532Y-12528936D01*
X-17370532Y-12528936D02*
X-17380056Y-12538460D01*
X-17380056Y-12538460D02*
X-17399104Y-12547984D01*
X-17399104Y-12547984D02*
X-17418152Y-12547984D01*
X-17418152Y-12547984D02*
X-17437199Y-12538460D01*
X-17437199Y-12538460D02*
X-17446723Y-12528936D01*
X-17446723Y-12528936D02*
X-17456247Y-12509888D01*
X-17456247Y-12509888D02*
X-17465771Y-12471793D01*
X-17465771Y-12471793D02*
X-17465771Y-12424174D01*
X-17465771Y-12424174D02*
X-17456247Y-12386079D01*
X-17456247Y-12386079D02*
X-17446723Y-12367031D01*
X-17446723Y-12367031D02*
X-17437199Y-12357508D01*
X-17437199Y-12357508D02*
X-17418152Y-12347984D01*
X-17275294Y-12367031D02*
X-17265771Y-12357508D01*
X-17265771Y-12357508D02*
X-17246723Y-12347984D01*
X-17246723Y-12347984D02*
X-17199104Y-12347984D01*
X-17199104Y-12347984D02*
X-17180056Y-12357508D01*
X-17180056Y-12357508D02*
X-17170532Y-12367031D01*
X-17170532Y-12367031D02*
X-17161009Y-12386079D01*
X-17161009Y-12386079D02*
X-17161009Y-12405127D01*
X-17161009Y-12405127D02*
X-17170532Y-12433698D01*
X-17170532Y-12433698D02*
X-17284818Y-12547984D01*
X-17284818Y-12547984D02*
X-17161009Y-12547984D01*
X-17094342Y-12347984D02*
X-16961009Y-12347984D01*
X-16961009Y-12347984D02*
X-17046723Y-12547984D01*
X-16799104Y-12347984D02*
X-16837199Y-12347984D01*
X-16837199Y-12347984D02*
X-16856247Y-12357508D01*
X-16856247Y-12357508D02*
X-16865771Y-12367031D01*
X-16865771Y-12367031D02*
X-16884818Y-12395603D01*
X-16884818Y-12395603D02*
X-16894342Y-12433698D01*
X-16894342Y-12433698D02*
X-16894342Y-12509888D01*
X-16894342Y-12509888D02*
X-16884818Y-12528936D01*
X-16884818Y-12528936D02*
X-16875294Y-12538460D01*
X-16875294Y-12538460D02*
X-16856247Y-12547984D01*
X-16856247Y-12547984D02*
X-16818151Y-12547984D01*
X-16818151Y-12547984D02*
X-16799104Y-12538460D01*
X-16799104Y-12538460D02*
X-16789580Y-12528936D01*
X-16789580Y-12528936D02*
X-16780056Y-12509888D01*
X-16780056Y-12509888D02*
X-16780056Y-12462269D01*
X-16780056Y-12462269D02*
X-16789580Y-12443222D01*
X-16789580Y-12443222D02*
X-16799104Y-12433698D01*
X-16799104Y-12433698D02*
X-16818151Y-12424174D01*
X-16818151Y-12424174D02*
X-16856247Y-12424174D01*
X-16856247Y-12424174D02*
X-16875294Y-12433698D01*
X-16875294Y-12433698D02*
X-16884818Y-12443222D01*
X-16884818Y-12443222D02*
X-16894342Y-12462269D01*
X-16703866Y-12347984D02*
X-16703866Y-12386079D01*
X-16627675Y-12347984D02*
X-16627675Y-12386079D01*
X-16332437Y-12624174D02*
X-16341961Y-12614650D01*
X-16341961Y-12614650D02*
X-16361008Y-12586079D01*
X-16361008Y-12586079D02*
X-16370532Y-12567031D01*
X-16370532Y-12567031D02*
X-16380056Y-12538460D01*
X-16380056Y-12538460D02*
X-16389580Y-12490841D01*
X-16389580Y-12490841D02*
X-16389580Y-12452746D01*
X-16389580Y-12452746D02*
X-16380056Y-12405127D01*
X-16380056Y-12405127D02*
X-16370532Y-12376555D01*
X-16370532Y-12376555D02*
X-16361008Y-12357508D01*
X-16361008Y-12357508D02*
X-16341961Y-12328936D01*
X-16341961Y-12328936D02*
X-16332437Y-12319412D01*
X-16151485Y-12547984D02*
X-16265770Y-12547984D01*
X-16208628Y-12547984D02*
X-16208628Y-12347984D01*
X-16208628Y-12347984D02*
X-16227675Y-12376555D01*
X-16227675Y-12376555D02*
X-16246723Y-12395603D01*
X-16246723Y-12395603D02*
X-16265770Y-12405127D01*
X-15980056Y-12347984D02*
X-16018151Y-12347984D01*
X-16018151Y-12347984D02*
X-16037199Y-12357508D01*
X-16037199Y-12357508D02*
X-16046723Y-12367031D01*
X-16046723Y-12367031D02*
X-16065770Y-12395603D01*
X-16065770Y-12395603D02*
X-16075294Y-12433698D01*
X-16075294Y-12433698D02*
X-16075294Y-12509888D01*
X-16075294Y-12509888D02*
X-16065770Y-12528936D01*
X-16065770Y-12528936D02*
X-16056247Y-12538460D01*
X-16056247Y-12538460D02*
X-16037199Y-12547984D01*
X-16037199Y-12547984D02*
X-15999104Y-12547984D01*
X-15999104Y-12547984D02*
X-15980056Y-12538460D01*
X-15980056Y-12538460D02*
X-15970532Y-12528936D01*
X-15970532Y-12528936D02*
X-15961008Y-12509888D01*
X-15961008Y-12509888D02*
X-15961008Y-12462269D01*
X-15961008Y-12462269D02*
X-15970532Y-12443222D01*
X-15970532Y-12443222D02*
X-15980056Y-12433698D01*
X-15980056Y-12433698D02*
X-15999104Y-12424174D01*
X-15999104Y-12424174D02*
X-16037199Y-12424174D01*
X-16037199Y-12424174D02*
X-16056247Y-12433698D01*
X-16056247Y-12433698D02*
X-16065770Y-12443222D01*
X-16065770Y-12443222D02*
X-16075294Y-12462269D01*
X-15722913Y-12547984D02*
X-15722913Y-12347984D01*
X-15637199Y-12547984D02*
X-15637199Y-12443222D01*
X-15637199Y-12443222D02*
X-15646723Y-12424174D01*
X-15646723Y-12424174D02*
X-15665770Y-12414650D01*
X-15665770Y-12414650D02*
X-15694342Y-12414650D01*
X-15694342Y-12414650D02*
X-15713389Y-12424174D01*
X-15713389Y-12424174D02*
X-15722913Y-12433698D01*
X-15513389Y-12547984D02*
X-15532437Y-12538460D01*
X-15532437Y-12538460D02*
X-15541961Y-12528936D01*
X-15541961Y-12528936D02*
X-15551485Y-12509888D01*
X-15551485Y-12509888D02*
X-15551485Y-12452746D01*
X-15551485Y-12452746D02*
X-15541961Y-12433698D01*
X-15541961Y-12433698D02*
X-15532437Y-12424174D01*
X-15532437Y-12424174D02*
X-15513389Y-12414650D01*
X-15513389Y-12414650D02*
X-15484818Y-12414650D01*
X-15484818Y-12414650D02*
X-15465770Y-12424174D01*
X-15465770Y-12424174D02*
X-15456246Y-12433698D01*
X-15456246Y-12433698D02*
X-15446723Y-12452746D01*
X-15446723Y-12452746D02*
X-15446723Y-12509888D01*
X-15446723Y-12509888D02*
X-15456246Y-12528936D01*
X-15456246Y-12528936D02*
X-15465770Y-12538460D01*
X-15465770Y-12538460D02*
X-15484818Y-12547984D01*
X-15484818Y-12547984D02*
X-15513389Y-12547984D01*
X-15332437Y-12547984D02*
X-15351485Y-12538460D01*
X-15351485Y-12538460D02*
X-15361008Y-12519412D01*
X-15361008Y-12519412D02*
X-15361008Y-12347984D01*
X-15180056Y-12538460D02*
X-15199104Y-12547984D01*
X-15199104Y-12547984D02*
X-15237199Y-12547984D01*
X-15237199Y-12547984D02*
X-15256246Y-12538460D01*
X-15256246Y-12538460D02*
X-15265770Y-12519412D01*
X-15265770Y-12519412D02*
X-15265770Y-12443222D01*
X-15265770Y-12443222D02*
X-15256246Y-12424174D01*
X-15256246Y-12424174D02*
X-15237199Y-12414650D01*
X-15237199Y-12414650D02*
X-15199104Y-12414650D01*
X-15199104Y-12414650D02*
X-15180056Y-12424174D01*
X-15180056Y-12424174D02*
X-15170532Y-12443222D01*
X-15170532Y-12443222D02*
X-15170532Y-12462269D01*
X-15170532Y-12462269D02*
X-15265770Y-12481317D01*
X-15094342Y-12538460D02*
X-15075294Y-12547984D01*
X-15075294Y-12547984D02*
X-15037199Y-12547984D01*
X-15037199Y-12547984D02*
X-15018151Y-12538460D01*
X-15018151Y-12538460D02*
X-15008627Y-12519412D01*
X-15008627Y-12519412D02*
X-15008627Y-12509888D01*
X-15008627Y-12509888D02*
X-15018151Y-12490841D01*
X-15018151Y-12490841D02*
X-15037199Y-12481317D01*
X-15037199Y-12481317D02*
X-15065770Y-12481317D01*
X-15065770Y-12481317D02*
X-15084818Y-12471793D01*
X-15084818Y-12471793D02*
X-15094342Y-12452746D01*
X-15094342Y-12452746D02*
X-15094342Y-12443222D01*
X-15094342Y-12443222D02*
X-15084818Y-12424174D01*
X-15084818Y-12424174D02*
X-15065770Y-12414650D01*
X-15065770Y-12414650D02*
X-15037199Y-12414650D01*
X-15037199Y-12414650D02*
X-15018151Y-12424174D01*
X-14941961Y-12624174D02*
X-14932437Y-12614650D01*
X-14932437Y-12614650D02*
X-14913389Y-12586079D01*
X-14913389Y-12586079D02*
X-14903865Y-12567031D01*
X-14903865Y-12567031D02*
X-14894342Y-12538460D01*
X-14894342Y-12538460D02*
X-14884818Y-12490841D01*
X-14884818Y-12490841D02*
X-14884818Y-12452746D01*
X-14884818Y-12452746D02*
X-14894342Y-12405127D01*
X-14894342Y-12405127D02*
X-14903865Y-12376555D01*
X-14903865Y-12376555D02*
X-14913389Y-12357508D01*
X-14913389Y-12357508D02*
X-14932437Y-12328936D01*
X-14932437Y-12328936D02*
X-14941961Y-12319412D01*
D12*
X-19944000Y-12684000D02*
X-19944000Y-12757000D01*
X-19980500Y-12720500D02*
X-19907500Y-12720500D01*
D11*
X-19608628Y-12611984D02*
X-19589580Y-12611984D01*
X-19589580Y-12611984D02*
X-19570533Y-12621508D01*
X-19570533Y-12621508D02*
X-19561009Y-12631031D01*
X-19561009Y-12631031D02*
X-19551485Y-12650079D01*
X-19551485Y-12650079D02*
X-19541961Y-12688174D01*
X-19541961Y-12688174D02*
X-19541961Y-12735793D01*
X-19541961Y-12735793D02*
X-19551485Y-12773888D01*
X-19551485Y-12773888D02*
X-19561009Y-12792936D01*
X-19561009Y-12792936D02*
X-19570533Y-12802460D01*
X-19570533Y-12802460D02*
X-19589580Y-12811984D01*
X-19589580Y-12811984D02*
X-19608628Y-12811984D01*
X-19608628Y-12811984D02*
X-19627676Y-12802460D01*
X-19627676Y-12802460D02*
X-19637199Y-12792936D01*
X-19637199Y-12792936D02*
X-19646723Y-12773888D01*
X-19646723Y-12773888D02*
X-19656247Y-12735793D01*
X-19656247Y-12735793D02*
X-19656247Y-12688174D01*
X-19656247Y-12688174D02*
X-19646723Y-12650079D01*
X-19646723Y-12650079D02*
X-19637199Y-12631031D01*
X-19637199Y-12631031D02*
X-19627676Y-12621508D01*
X-19627676Y-12621508D02*
X-19608628Y-12611984D01*
X-19456247Y-12792936D02*
X-19446723Y-12802460D01*
X-19446723Y-12802460D02*
X-19456247Y-12811984D01*
X-19456247Y-12811984D02*
X-19465771Y-12802460D01*
X-19465771Y-12802460D02*
X-19456247Y-12792936D01*
X-19456247Y-12792936D02*
X-19456247Y-12811984D01*
X-19380056Y-12611984D02*
X-19246723Y-12611984D01*
X-19246723Y-12611984D02*
X-19332437Y-12811984D01*
X-19189580Y-12611984D02*
X-19065771Y-12611984D01*
X-19065771Y-12611984D02*
X-19132437Y-12688174D01*
X-19132437Y-12688174D02*
X-19103866Y-12688174D01*
X-19103866Y-12688174D02*
X-19084818Y-12697698D01*
X-19084818Y-12697698D02*
X-19075295Y-12707222D01*
X-19075295Y-12707222D02*
X-19065771Y-12726269D01*
X-19065771Y-12726269D02*
X-19065771Y-12773888D01*
X-19065771Y-12773888D02*
X-19075295Y-12792936D01*
X-19075295Y-12792936D02*
X-19084818Y-12802460D01*
X-19084818Y-12802460D02*
X-19103866Y-12811984D01*
X-19103866Y-12811984D02*
X-19161009Y-12811984D01*
X-19161009Y-12811984D02*
X-19180056Y-12802460D01*
X-19180056Y-12802460D02*
X-19189580Y-12792936D01*
X-18941961Y-12611984D02*
X-18922914Y-12611984D01*
X-18922914Y-12611984D02*
X-18903866Y-12621508D01*
X-18903866Y-12621508D02*
X-18894342Y-12631031D01*
X-18894342Y-12631031D02*
X-18884818Y-12650079D01*
X-18884818Y-12650079D02*
X-18875295Y-12688174D01*
X-18875295Y-12688174D02*
X-18875295Y-12735793D01*
X-18875295Y-12735793D02*
X-18884818Y-12773888D01*
X-18884818Y-12773888D02*
X-18894342Y-12792936D01*
X-18894342Y-12792936D02*
X-18903866Y-12802460D01*
X-18903866Y-12802460D02*
X-18922914Y-12811984D01*
X-18922914Y-12811984D02*
X-18941961Y-12811984D01*
X-18941961Y-12811984D02*
X-18961009Y-12802460D01*
X-18961009Y-12802460D02*
X-18970533Y-12792936D01*
X-18970533Y-12792936D02*
X-18980056Y-12773888D01*
X-18980056Y-12773888D02*
X-18989580Y-12735793D01*
X-18989580Y-12735793D02*
X-18989580Y-12688174D01*
X-18989580Y-12688174D02*
X-18980056Y-12650079D01*
X-18980056Y-12650079D02*
X-18970533Y-12631031D01*
X-18970533Y-12631031D02*
X-18961009Y-12621508D01*
X-18961009Y-12621508D02*
X-18941961Y-12611984D01*
X-18789580Y-12811984D02*
X-18789580Y-12678650D01*
X-18789580Y-12697698D02*
X-18780056Y-12688174D01*
X-18780056Y-12688174D02*
X-18761009Y-12678650D01*
X-18761009Y-12678650D02*
X-18732437Y-12678650D01*
X-18732437Y-12678650D02*
X-18713390Y-12688174D01*
X-18713390Y-12688174D02*
X-18703866Y-12707222D01*
X-18703866Y-12707222D02*
X-18703866Y-12811984D01*
X-18703866Y-12707222D02*
X-18694342Y-12688174D01*
X-18694342Y-12688174D02*
X-18675295Y-12678650D01*
X-18675295Y-12678650D02*
X-18646723Y-12678650D01*
X-18646723Y-12678650D02*
X-18627675Y-12688174D01*
X-18627675Y-12688174D02*
X-18618152Y-12707222D01*
X-18618152Y-12707222D02*
X-18618152Y-12811984D01*
X-18522914Y-12811984D02*
X-18522914Y-12678650D01*
X-18522914Y-12697698D02*
X-18513390Y-12688174D01*
X-18513390Y-12688174D02*
X-18494342Y-12678650D01*
X-18494342Y-12678650D02*
X-18465771Y-12678650D01*
X-18465771Y-12678650D02*
X-18446723Y-12688174D01*
X-18446723Y-12688174D02*
X-18437199Y-12707222D01*
X-18437199Y-12707222D02*
X-18437199Y-12811984D01*
X-18437199Y-12707222D02*
X-18427675Y-12688174D01*
X-18427675Y-12688174D02*
X-18408628Y-12678650D01*
X-18408628Y-12678650D02*
X-18380056Y-12678650D01*
X-18380056Y-12678650D02*
X-18361009Y-12688174D01*
X-18361009Y-12688174D02*
X-18351485Y-12707222D01*
X-18351485Y-12707222D02*
X-18351485Y-12811984D01*
X-17961009Y-12602460D02*
X-18132437Y-12859603D01*
X-17703866Y-12611984D02*
X-17684818Y-12611984D01*
X-17684818Y-12611984D02*
X-17665771Y-12621508D01*
X-17665771Y-12621508D02*
X-17656247Y-12631031D01*
X-17656247Y-12631031D02*
X-17646723Y-12650079D01*
X-17646723Y-12650079D02*
X-17637199Y-12688174D01*
X-17637199Y-12688174D02*
X-17637199Y-12735793D01*
X-17637199Y-12735793D02*
X-17646723Y-12773888D01*
X-17646723Y-12773888D02*
X-17656247Y-12792936D01*
X-17656247Y-12792936D02*
X-17665771Y-12802460D01*
X-17665771Y-12802460D02*
X-17684818Y-12811984D01*
X-17684818Y-12811984D02*
X-17703866Y-12811984D01*
X-17703866Y-12811984D02*
X-17722913Y-12802460D01*
X-17722913Y-12802460D02*
X-17732437Y-12792936D01*
X-17732437Y-12792936D02*
X-17741961Y-12773888D01*
X-17741961Y-12773888D02*
X-17751485Y-12735793D01*
X-17751485Y-12735793D02*
X-17751485Y-12688174D01*
X-17751485Y-12688174D02*
X-17741961Y-12650079D01*
X-17741961Y-12650079D02*
X-17732437Y-12631031D01*
X-17732437Y-12631031D02*
X-17722913Y-12621508D01*
X-17722913Y-12621508D02*
X-17703866Y-12611984D01*
X-17551485Y-12792936D02*
X-17541961Y-12802460D01*
X-17541961Y-12802460D02*
X-17551485Y-12811984D01*
X-17551485Y-12811984D02*
X-17561009Y-12802460D01*
X-17561009Y-12802460D02*
X-17551485Y-12792936D01*
X-17551485Y-12792936D02*
X-17551485Y-12811984D01*
X-17418152Y-12611984D02*
X-17399104Y-12611984D01*
X-17399104Y-12611984D02*
X-17380056Y-12621508D01*
X-17380056Y-12621508D02*
X-17370532Y-12631031D01*
X-17370532Y-12631031D02*
X-17361009Y-12650079D01*
X-17361009Y-12650079D02*
X-17351485Y-12688174D01*
X-17351485Y-12688174D02*
X-17351485Y-12735793D01*
X-17351485Y-12735793D02*
X-17361009Y-12773888D01*
X-17361009Y-12773888D02*
X-17370532Y-12792936D01*
X-17370532Y-12792936D02*
X-17380056Y-12802460D01*
X-17380056Y-12802460D02*
X-17399104Y-12811984D01*
X-17399104Y-12811984D02*
X-17418152Y-12811984D01*
X-17418152Y-12811984D02*
X-17437199Y-12802460D01*
X-17437199Y-12802460D02*
X-17446723Y-12792936D01*
X-17446723Y-12792936D02*
X-17456247Y-12773888D01*
X-17456247Y-12773888D02*
X-17465771Y-12735793D01*
X-17465771Y-12735793D02*
X-17465771Y-12688174D01*
X-17465771Y-12688174D02*
X-17456247Y-12650079D01*
X-17456247Y-12650079D02*
X-17446723Y-12631031D01*
X-17446723Y-12631031D02*
X-17437199Y-12621508D01*
X-17437199Y-12621508D02*
X-17418152Y-12611984D01*
X-17275294Y-12631031D02*
X-17265771Y-12621508D01*
X-17265771Y-12621508D02*
X-17246723Y-12611984D01*
X-17246723Y-12611984D02*
X-17199104Y-12611984D01*
X-17199104Y-12611984D02*
X-17180056Y-12621508D01*
X-17180056Y-12621508D02*
X-17170532Y-12631031D01*
X-17170532Y-12631031D02*
X-17161009Y-12650079D01*
X-17161009Y-12650079D02*
X-17161009Y-12669127D01*
X-17161009Y-12669127D02*
X-17170532Y-12697698D01*
X-17170532Y-12697698D02*
X-17284818Y-12811984D01*
X-17284818Y-12811984D02*
X-17161009Y-12811984D01*
X-17046723Y-12697698D02*
X-17065771Y-12688174D01*
X-17065771Y-12688174D02*
X-17075294Y-12678650D01*
X-17075294Y-12678650D02*
X-17084818Y-12659603D01*
X-17084818Y-12659603D02*
X-17084818Y-12650079D01*
X-17084818Y-12650079D02*
X-17075294Y-12631031D01*
X-17075294Y-12631031D02*
X-17065771Y-12621508D01*
X-17065771Y-12621508D02*
X-17046723Y-12611984D01*
X-17046723Y-12611984D02*
X-17008628Y-12611984D01*
X-17008628Y-12611984D02*
X-16989580Y-12621508D01*
X-16989580Y-12621508D02*
X-16980056Y-12631031D01*
X-16980056Y-12631031D02*
X-16970532Y-12650079D01*
X-16970532Y-12650079D02*
X-16970532Y-12659603D01*
X-16970532Y-12659603D02*
X-16980056Y-12678650D01*
X-16980056Y-12678650D02*
X-16989580Y-12688174D01*
X-16989580Y-12688174D02*
X-17008628Y-12697698D01*
X-17008628Y-12697698D02*
X-17046723Y-12697698D01*
X-17046723Y-12697698D02*
X-17065771Y-12707222D01*
X-17065771Y-12707222D02*
X-17075294Y-12716746D01*
X-17075294Y-12716746D02*
X-17084818Y-12735793D01*
X-17084818Y-12735793D02*
X-17084818Y-12773888D01*
X-17084818Y-12773888D02*
X-17075294Y-12792936D01*
X-17075294Y-12792936D02*
X-17065771Y-12802460D01*
X-17065771Y-12802460D02*
X-17046723Y-12811984D01*
X-17046723Y-12811984D02*
X-17008628Y-12811984D01*
X-17008628Y-12811984D02*
X-16989580Y-12802460D01*
X-16989580Y-12802460D02*
X-16980056Y-12792936D01*
X-16980056Y-12792936D02*
X-16970532Y-12773888D01*
X-16970532Y-12773888D02*
X-16970532Y-12735793D01*
X-16970532Y-12735793D02*
X-16980056Y-12716746D01*
X-16980056Y-12716746D02*
X-16989580Y-12707222D01*
X-16989580Y-12707222D02*
X-17008628Y-12697698D01*
X-16903866Y-12611984D02*
X-16770532Y-12611984D01*
X-16770532Y-12611984D02*
X-16856247Y-12811984D01*
X-16703866Y-12611984D02*
X-16703866Y-12650079D01*
X-16627675Y-12611984D02*
X-16627675Y-12650079D01*
X-16332437Y-12888174D02*
X-16341961Y-12878650D01*
X-16341961Y-12878650D02*
X-16361008Y-12850079D01*
X-16361008Y-12850079D02*
X-16370532Y-12831031D01*
X-16370532Y-12831031D02*
X-16380056Y-12802460D01*
X-16380056Y-12802460D02*
X-16389580Y-12754841D01*
X-16389580Y-12754841D02*
X-16389580Y-12716746D01*
X-16389580Y-12716746D02*
X-16380056Y-12669127D01*
X-16380056Y-12669127D02*
X-16370532Y-12640555D01*
X-16370532Y-12640555D02*
X-16361008Y-12621508D01*
X-16361008Y-12621508D02*
X-16341961Y-12592936D01*
X-16341961Y-12592936D02*
X-16332437Y-12583412D01*
X-16265770Y-12631031D02*
X-16256247Y-12621508D01*
X-16256247Y-12621508D02*
X-16237199Y-12611984D01*
X-16237199Y-12611984D02*
X-16189580Y-12611984D01*
X-16189580Y-12611984D02*
X-16170532Y-12621508D01*
X-16170532Y-12621508D02*
X-16161008Y-12631031D01*
X-16161008Y-12631031D02*
X-16151485Y-12650079D01*
X-16151485Y-12650079D02*
X-16151485Y-12669127D01*
X-16151485Y-12669127D02*
X-16161008Y-12697698D01*
X-16161008Y-12697698D02*
X-16275294Y-12811984D01*
X-16275294Y-12811984D02*
X-16151485Y-12811984D01*
X-16037199Y-12697698D02*
X-16056247Y-12688174D01*
X-16056247Y-12688174D02*
X-16065770Y-12678650D01*
X-16065770Y-12678650D02*
X-16075294Y-12659603D01*
X-16075294Y-12659603D02*
X-16075294Y-12650079D01*
X-16075294Y-12650079D02*
X-16065770Y-12631031D01*
X-16065770Y-12631031D02*
X-16056247Y-12621508D01*
X-16056247Y-12621508D02*
X-16037199Y-12611984D01*
X-16037199Y-12611984D02*
X-15999104Y-12611984D01*
X-15999104Y-12611984D02*
X-15980056Y-12621508D01*
X-15980056Y-12621508D02*
X-15970532Y-12631031D01*
X-15970532Y-12631031D02*
X-15961008Y-12650079D01*
X-15961008Y-12650079D02*
X-15961008Y-12659603D01*
X-15961008Y-12659603D02*
X-15970532Y-12678650D01*
X-15970532Y-12678650D02*
X-15980056Y-12688174D01*
X-15980056Y-12688174D02*
X-15999104Y-12697698D01*
X-15999104Y-12697698D02*
X-16037199Y-12697698D01*
X-16037199Y-12697698D02*
X-16056247Y-12707222D01*
X-16056247Y-12707222D02*
X-16065770Y-12716746D01*
X-16065770Y-12716746D02*
X-16075294Y-12735793D01*
X-16075294Y-12735793D02*
X-16075294Y-12773888D01*
X-16075294Y-12773888D02*
X-16065770Y-12792936D01*
X-16065770Y-12792936D02*
X-16056247Y-12802460D01*
X-16056247Y-12802460D02*
X-16037199Y-12811984D01*
X-16037199Y-12811984D02*
X-15999104Y-12811984D01*
X-15999104Y-12811984D02*
X-15980056Y-12802460D01*
X-15980056Y-12802460D02*
X-15970532Y-12792936D01*
X-15970532Y-12792936D02*
X-15961008Y-12773888D01*
X-15961008Y-12773888D02*
X-15961008Y-12735793D01*
X-15961008Y-12735793D02*
X-15970532Y-12716746D01*
X-15970532Y-12716746D02*
X-15980056Y-12707222D01*
X-15980056Y-12707222D02*
X-15999104Y-12697698D01*
X-15722913Y-12811984D02*
X-15722913Y-12611984D01*
X-15637199Y-12811984D02*
X-15637199Y-12707222D01*
X-15637199Y-12707222D02*
X-15646723Y-12688174D01*
X-15646723Y-12688174D02*
X-15665770Y-12678650D01*
X-15665770Y-12678650D02*
X-15694342Y-12678650D01*
X-15694342Y-12678650D02*
X-15713389Y-12688174D01*
X-15713389Y-12688174D02*
X-15722913Y-12697698D01*
X-15513389Y-12811984D02*
X-15532437Y-12802460D01*
X-15532437Y-12802460D02*
X-15541961Y-12792936D01*
X-15541961Y-12792936D02*
X-15551485Y-12773888D01*
X-15551485Y-12773888D02*
X-15551485Y-12716746D01*
X-15551485Y-12716746D02*
X-15541961Y-12697698D01*
X-15541961Y-12697698D02*
X-15532437Y-12688174D01*
X-15532437Y-12688174D02*
X-15513389Y-12678650D01*
X-15513389Y-12678650D02*
X-15484818Y-12678650D01*
X-15484818Y-12678650D02*
X-15465770Y-12688174D01*
X-15465770Y-12688174D02*
X-15456246Y-12697698D01*
X-15456246Y-12697698D02*
X-15446723Y-12716746D01*
X-15446723Y-12716746D02*
X-15446723Y-12773888D01*
X-15446723Y-12773888D02*
X-15456246Y-12792936D01*
X-15456246Y-12792936D02*
X-15465770Y-12802460D01*
X-15465770Y-12802460D02*
X-15484818Y-12811984D01*
X-15484818Y-12811984D02*
X-15513389Y-12811984D01*
X-15332437Y-12811984D02*
X-15351485Y-12802460D01*
X-15351485Y-12802460D02*
X-15361008Y-12783412D01*
X-15361008Y-12783412D02*
X-15361008Y-12611984D01*
X-15180056Y-12802460D02*
X-15199104Y-12811984D01*
X-15199104Y-12811984D02*
X-15237199Y-12811984D01*
X-15237199Y-12811984D02*
X-15256246Y-12802460D01*
X-15256246Y-12802460D02*
X-15265770Y-12783412D01*
X-15265770Y-12783412D02*
X-15265770Y-12707222D01*
X-15265770Y-12707222D02*
X-15256246Y-12688174D01*
X-15256246Y-12688174D02*
X-15237199Y-12678650D01*
X-15237199Y-12678650D02*
X-15199104Y-12678650D01*
X-15199104Y-12678650D02*
X-15180056Y-12688174D01*
X-15180056Y-12688174D02*
X-15170532Y-12707222D01*
X-15170532Y-12707222D02*
X-15170532Y-12726269D01*
X-15170532Y-12726269D02*
X-15265770Y-12745317D01*
X-15094342Y-12802460D02*
X-15075294Y-12811984D01*
X-15075294Y-12811984D02*
X-15037199Y-12811984D01*
X-15037199Y-12811984D02*
X-15018151Y-12802460D01*
X-15018151Y-12802460D02*
X-15008627Y-12783412D01*
X-15008627Y-12783412D02*
X-15008627Y-12773888D01*
X-15008627Y-12773888D02*
X-15018151Y-12754841D01*
X-15018151Y-12754841D02*
X-15037199Y-12745317D01*
X-15037199Y-12745317D02*
X-15065770Y-12745317D01*
X-15065770Y-12745317D02*
X-15084818Y-12735793D01*
X-15084818Y-12735793D02*
X-15094342Y-12716746D01*
X-15094342Y-12716746D02*
X-15094342Y-12707222D01*
X-15094342Y-12707222D02*
X-15084818Y-12688174D01*
X-15084818Y-12688174D02*
X-15065770Y-12678650D01*
X-15065770Y-12678650D02*
X-15037199Y-12678650D01*
X-15037199Y-12678650D02*
X-15018151Y-12688174D01*
X-14941961Y-12888174D02*
X-14932437Y-12878650D01*
X-14932437Y-12878650D02*
X-14913389Y-12850079D01*
X-14913389Y-12850079D02*
X-14903865Y-12831031D01*
X-14903865Y-12831031D02*
X-14894342Y-12802460D01*
X-14894342Y-12802460D02*
X-14884818Y-12754841D01*
X-14884818Y-12754841D02*
X-14884818Y-12716746D01*
X-14884818Y-12716746D02*
X-14894342Y-12669127D01*
X-14894342Y-12669127D02*
X-14903865Y-12640555D01*
X-14903865Y-12640555D02*
X-14913389Y-12621508D01*
X-14913389Y-12621508D02*
X-14932437Y-12592936D01*
X-14932437Y-12592936D02*
X-14941961Y-12583412D01*
D12*
X-19919216Y-13012784D02*
X-19919216Y-12956215D01*
X-19975785Y-12956215D01*
X-19975785Y-13012784D01*
X-19919216Y-13012784D01*
D11*
X-19608628Y-12875984D02*
X-19589580Y-12875984D01*
X-19589580Y-12875984D02*
X-19570533Y-12885508D01*
X-19570533Y-12885508D02*
X-19561009Y-12895031D01*
X-19561009Y-12895031D02*
X-19551485Y-12914079D01*
X-19551485Y-12914079D02*
X-19541961Y-12952174D01*
X-19541961Y-12952174D02*
X-19541961Y-12999793D01*
X-19541961Y-12999793D02*
X-19551485Y-13037888D01*
X-19551485Y-13037888D02*
X-19561009Y-13056936D01*
X-19561009Y-13056936D02*
X-19570533Y-13066460D01*
X-19570533Y-13066460D02*
X-19589580Y-13075984D01*
X-19589580Y-13075984D02*
X-19608628Y-13075984D01*
X-19608628Y-13075984D02*
X-19627676Y-13066460D01*
X-19627676Y-13066460D02*
X-19637199Y-13056936D01*
X-19637199Y-13056936D02*
X-19646723Y-13037888D01*
X-19646723Y-13037888D02*
X-19656247Y-12999793D01*
X-19656247Y-12999793D02*
X-19656247Y-12952174D01*
X-19656247Y-12952174D02*
X-19646723Y-12914079D01*
X-19646723Y-12914079D02*
X-19637199Y-12895031D01*
X-19637199Y-12895031D02*
X-19627676Y-12885508D01*
X-19627676Y-12885508D02*
X-19608628Y-12875984D01*
X-19456247Y-13056936D02*
X-19446723Y-13066460D01*
X-19446723Y-13066460D02*
X-19456247Y-13075984D01*
X-19456247Y-13075984D02*
X-19465771Y-13066460D01*
X-19465771Y-13066460D02*
X-19456247Y-13056936D01*
X-19456247Y-13056936D02*
X-19456247Y-13075984D01*
X-19332437Y-12961698D02*
X-19351485Y-12952174D01*
X-19351485Y-12952174D02*
X-19361009Y-12942650D01*
X-19361009Y-12942650D02*
X-19370533Y-12923603D01*
X-19370533Y-12923603D02*
X-19370533Y-12914079D01*
X-19370533Y-12914079D02*
X-19361009Y-12895031D01*
X-19361009Y-12895031D02*
X-19351485Y-12885508D01*
X-19351485Y-12885508D02*
X-19332437Y-12875984D01*
X-19332437Y-12875984D02*
X-19294342Y-12875984D01*
X-19294342Y-12875984D02*
X-19275295Y-12885508D01*
X-19275295Y-12885508D02*
X-19265771Y-12895031D01*
X-19265771Y-12895031D02*
X-19256247Y-12914079D01*
X-19256247Y-12914079D02*
X-19256247Y-12923603D01*
X-19256247Y-12923603D02*
X-19265771Y-12942650D01*
X-19265771Y-12942650D02*
X-19275295Y-12952174D01*
X-19275295Y-12952174D02*
X-19294342Y-12961698D01*
X-19294342Y-12961698D02*
X-19332437Y-12961698D01*
X-19332437Y-12961698D02*
X-19351485Y-12971222D01*
X-19351485Y-12971222D02*
X-19361009Y-12980746D01*
X-19361009Y-12980746D02*
X-19370533Y-12999793D01*
X-19370533Y-12999793D02*
X-19370533Y-13037888D01*
X-19370533Y-13037888D02*
X-19361009Y-13056936D01*
X-19361009Y-13056936D02*
X-19351485Y-13066460D01*
X-19351485Y-13066460D02*
X-19332437Y-13075984D01*
X-19332437Y-13075984D02*
X-19294342Y-13075984D01*
X-19294342Y-13075984D02*
X-19275295Y-13066460D01*
X-19275295Y-13066460D02*
X-19265771Y-13056936D01*
X-19265771Y-13056936D02*
X-19256247Y-13037888D01*
X-19256247Y-13037888D02*
X-19256247Y-12999793D01*
X-19256247Y-12999793D02*
X-19265771Y-12980746D01*
X-19265771Y-12980746D02*
X-19275295Y-12971222D01*
X-19275295Y-12971222D02*
X-19294342Y-12961698D01*
X-19132437Y-12875984D02*
X-19113390Y-12875984D01*
X-19113390Y-12875984D02*
X-19094342Y-12885508D01*
X-19094342Y-12885508D02*
X-19084818Y-12895031D01*
X-19084818Y-12895031D02*
X-19075295Y-12914079D01*
X-19075295Y-12914079D02*
X-19065771Y-12952174D01*
X-19065771Y-12952174D02*
X-19065771Y-12999793D01*
X-19065771Y-12999793D02*
X-19075295Y-13037888D01*
X-19075295Y-13037888D02*
X-19084818Y-13056936D01*
X-19084818Y-13056936D02*
X-19094342Y-13066460D01*
X-19094342Y-13066460D02*
X-19113390Y-13075984D01*
X-19113390Y-13075984D02*
X-19132437Y-13075984D01*
X-19132437Y-13075984D02*
X-19151485Y-13066460D01*
X-19151485Y-13066460D02*
X-19161009Y-13056936D01*
X-19161009Y-13056936D02*
X-19170533Y-13037888D01*
X-19170533Y-13037888D02*
X-19180056Y-12999793D01*
X-19180056Y-12999793D02*
X-19180056Y-12952174D01*
X-19180056Y-12952174D02*
X-19170533Y-12914079D01*
X-19170533Y-12914079D02*
X-19161009Y-12895031D01*
X-19161009Y-12895031D02*
X-19151485Y-12885508D01*
X-19151485Y-12885508D02*
X-19132437Y-12875984D01*
X-18941961Y-12875984D02*
X-18922914Y-12875984D01*
X-18922914Y-12875984D02*
X-18903866Y-12885508D01*
X-18903866Y-12885508D02*
X-18894342Y-12895031D01*
X-18894342Y-12895031D02*
X-18884818Y-12914079D01*
X-18884818Y-12914079D02*
X-18875295Y-12952174D01*
X-18875295Y-12952174D02*
X-18875295Y-12999793D01*
X-18875295Y-12999793D02*
X-18884818Y-13037888D01*
X-18884818Y-13037888D02*
X-18894342Y-13056936D01*
X-18894342Y-13056936D02*
X-18903866Y-13066460D01*
X-18903866Y-13066460D02*
X-18922914Y-13075984D01*
X-18922914Y-13075984D02*
X-18941961Y-13075984D01*
X-18941961Y-13075984D02*
X-18961009Y-13066460D01*
X-18961009Y-13066460D02*
X-18970533Y-13056936D01*
X-18970533Y-13056936D02*
X-18980056Y-13037888D01*
X-18980056Y-13037888D02*
X-18989580Y-12999793D01*
X-18989580Y-12999793D02*
X-18989580Y-12952174D01*
X-18989580Y-12952174D02*
X-18980056Y-12914079D01*
X-18980056Y-12914079D02*
X-18970533Y-12895031D01*
X-18970533Y-12895031D02*
X-18961009Y-12885508D01*
X-18961009Y-12885508D02*
X-18941961Y-12875984D01*
X-18789580Y-13075984D02*
X-18789580Y-12942650D01*
X-18789580Y-12961698D02*
X-18780056Y-12952174D01*
X-18780056Y-12952174D02*
X-18761009Y-12942650D01*
X-18761009Y-12942650D02*
X-18732437Y-12942650D01*
X-18732437Y-12942650D02*
X-18713390Y-12952174D01*
X-18713390Y-12952174D02*
X-18703866Y-12971222D01*
X-18703866Y-12971222D02*
X-18703866Y-13075984D01*
X-18703866Y-12971222D02*
X-18694342Y-12952174D01*
X-18694342Y-12952174D02*
X-18675295Y-12942650D01*
X-18675295Y-12942650D02*
X-18646723Y-12942650D01*
X-18646723Y-12942650D02*
X-18627675Y-12952174D01*
X-18627675Y-12952174D02*
X-18618152Y-12971222D01*
X-18618152Y-12971222D02*
X-18618152Y-13075984D01*
X-18522914Y-13075984D02*
X-18522914Y-12942650D01*
X-18522914Y-12961698D02*
X-18513390Y-12952174D01*
X-18513390Y-12952174D02*
X-18494342Y-12942650D01*
X-18494342Y-12942650D02*
X-18465771Y-12942650D01*
X-18465771Y-12942650D02*
X-18446723Y-12952174D01*
X-18446723Y-12952174D02*
X-18437199Y-12971222D01*
X-18437199Y-12971222D02*
X-18437199Y-13075984D01*
X-18437199Y-12971222D02*
X-18427675Y-12952174D01*
X-18427675Y-12952174D02*
X-18408628Y-12942650D01*
X-18408628Y-12942650D02*
X-18380056Y-12942650D01*
X-18380056Y-12942650D02*
X-18361009Y-12952174D01*
X-18361009Y-12952174D02*
X-18351485Y-12971222D01*
X-18351485Y-12971222D02*
X-18351485Y-13075984D01*
X-17961009Y-12866460D02*
X-18132437Y-13123603D01*
X-17703866Y-12875984D02*
X-17684818Y-12875984D01*
X-17684818Y-12875984D02*
X-17665771Y-12885508D01*
X-17665771Y-12885508D02*
X-17656247Y-12895031D01*
X-17656247Y-12895031D02*
X-17646723Y-12914079D01*
X-17646723Y-12914079D02*
X-17637199Y-12952174D01*
X-17637199Y-12952174D02*
X-17637199Y-12999793D01*
X-17637199Y-12999793D02*
X-17646723Y-13037888D01*
X-17646723Y-13037888D02*
X-17656247Y-13056936D01*
X-17656247Y-13056936D02*
X-17665771Y-13066460D01*
X-17665771Y-13066460D02*
X-17684818Y-13075984D01*
X-17684818Y-13075984D02*
X-17703866Y-13075984D01*
X-17703866Y-13075984D02*
X-17722913Y-13066460D01*
X-17722913Y-13066460D02*
X-17732437Y-13056936D01*
X-17732437Y-13056936D02*
X-17741961Y-13037888D01*
X-17741961Y-13037888D02*
X-17751485Y-12999793D01*
X-17751485Y-12999793D02*
X-17751485Y-12952174D01*
X-17751485Y-12952174D02*
X-17741961Y-12914079D01*
X-17741961Y-12914079D02*
X-17732437Y-12895031D01*
X-17732437Y-12895031D02*
X-17722913Y-12885508D01*
X-17722913Y-12885508D02*
X-17703866Y-12875984D01*
X-17551485Y-13056936D02*
X-17541961Y-13066460D01*
X-17541961Y-13066460D02*
X-17551485Y-13075984D01*
X-17551485Y-13075984D02*
X-17561009Y-13066460D01*
X-17561009Y-13066460D02*
X-17551485Y-13056936D01*
X-17551485Y-13056936D02*
X-17551485Y-13075984D01*
X-17418152Y-12875984D02*
X-17399104Y-12875984D01*
X-17399104Y-12875984D02*
X-17380056Y-12885508D01*
X-17380056Y-12885508D02*
X-17370532Y-12895031D01*
X-17370532Y-12895031D02*
X-17361009Y-12914079D01*
X-17361009Y-12914079D02*
X-17351485Y-12952174D01*
X-17351485Y-12952174D02*
X-17351485Y-12999793D01*
X-17351485Y-12999793D02*
X-17361009Y-13037888D01*
X-17361009Y-13037888D02*
X-17370532Y-13056936D01*
X-17370532Y-13056936D02*
X-17380056Y-13066460D01*
X-17380056Y-13066460D02*
X-17399104Y-13075984D01*
X-17399104Y-13075984D02*
X-17418152Y-13075984D01*
X-17418152Y-13075984D02*
X-17437199Y-13066460D01*
X-17437199Y-13066460D02*
X-17446723Y-13056936D01*
X-17446723Y-13056936D02*
X-17456247Y-13037888D01*
X-17456247Y-13037888D02*
X-17465771Y-12999793D01*
X-17465771Y-12999793D02*
X-17465771Y-12952174D01*
X-17465771Y-12952174D02*
X-17456247Y-12914079D01*
X-17456247Y-12914079D02*
X-17446723Y-12895031D01*
X-17446723Y-12895031D02*
X-17437199Y-12885508D01*
X-17437199Y-12885508D02*
X-17418152Y-12875984D01*
X-17284818Y-12875984D02*
X-17161009Y-12875984D01*
X-17161009Y-12875984D02*
X-17227675Y-12952174D01*
X-17227675Y-12952174D02*
X-17199104Y-12952174D01*
X-17199104Y-12952174D02*
X-17180056Y-12961698D01*
X-17180056Y-12961698D02*
X-17170532Y-12971222D01*
X-17170532Y-12971222D02*
X-17161009Y-12990269D01*
X-17161009Y-12990269D02*
X-17161009Y-13037888D01*
X-17161009Y-13037888D02*
X-17170532Y-13056936D01*
X-17170532Y-13056936D02*
X-17180056Y-13066460D01*
X-17180056Y-13066460D02*
X-17199104Y-13075984D01*
X-17199104Y-13075984D02*
X-17256247Y-13075984D01*
X-17256247Y-13075984D02*
X-17275294Y-13066460D01*
X-17275294Y-13066460D02*
X-17284818Y-13056936D01*
X-16970532Y-13075984D02*
X-17084818Y-13075984D01*
X-17027675Y-13075984D02*
X-17027675Y-12875984D01*
X-17027675Y-12875984D02*
X-17046723Y-12904555D01*
X-17046723Y-12904555D02*
X-17065771Y-12923603D01*
X-17065771Y-12923603D02*
X-17084818Y-12933127D01*
X-16789580Y-12875984D02*
X-16884818Y-12875984D01*
X-16884818Y-12875984D02*
X-16894342Y-12971222D01*
X-16894342Y-12971222D02*
X-16884818Y-12961698D01*
X-16884818Y-12961698D02*
X-16865771Y-12952174D01*
X-16865771Y-12952174D02*
X-16818151Y-12952174D01*
X-16818151Y-12952174D02*
X-16799104Y-12961698D01*
X-16799104Y-12961698D02*
X-16789580Y-12971222D01*
X-16789580Y-12971222D02*
X-16780056Y-12990269D01*
X-16780056Y-12990269D02*
X-16780056Y-13037888D01*
X-16780056Y-13037888D02*
X-16789580Y-13056936D01*
X-16789580Y-13056936D02*
X-16799104Y-13066460D01*
X-16799104Y-13066460D02*
X-16818151Y-13075984D01*
X-16818151Y-13075984D02*
X-16865771Y-13075984D01*
X-16865771Y-13075984D02*
X-16884818Y-13066460D01*
X-16884818Y-13066460D02*
X-16894342Y-13056936D01*
X-16703866Y-12875984D02*
X-16703866Y-12914079D01*
X-16627675Y-12875984D02*
X-16627675Y-12914079D01*
X-16332437Y-13152174D02*
X-16341961Y-13142650D01*
X-16341961Y-13142650D02*
X-16361008Y-13114079D01*
X-16361008Y-13114079D02*
X-16370532Y-13095031D01*
X-16370532Y-13095031D02*
X-16380056Y-13066460D01*
X-16380056Y-13066460D02*
X-16389580Y-13018841D01*
X-16389580Y-13018841D02*
X-16389580Y-12980746D01*
X-16389580Y-12980746D02*
X-16380056Y-12933127D01*
X-16380056Y-12933127D02*
X-16370532Y-12904555D01*
X-16370532Y-12904555D02*
X-16361008Y-12885508D01*
X-16361008Y-12885508D02*
X-16341961Y-12856936D01*
X-16341961Y-12856936D02*
X-16332437Y-12847412D01*
X-16275294Y-12875984D02*
X-16141961Y-12875984D01*
X-16141961Y-12875984D02*
X-16227675Y-13075984D01*
X-16056247Y-13075984D02*
X-16018151Y-13075984D01*
X-16018151Y-13075984D02*
X-15999104Y-13066460D01*
X-15999104Y-13066460D02*
X-15989580Y-13056936D01*
X-15989580Y-13056936D02*
X-15970532Y-13028365D01*
X-15970532Y-13028365D02*
X-15961008Y-12990269D01*
X-15961008Y-12990269D02*
X-15961008Y-12914079D01*
X-15961008Y-12914079D02*
X-15970532Y-12895031D01*
X-15970532Y-12895031D02*
X-15980056Y-12885508D01*
X-15980056Y-12885508D02*
X-15999104Y-12875984D01*
X-15999104Y-12875984D02*
X-16037199Y-12875984D01*
X-16037199Y-12875984D02*
X-16056247Y-12885508D01*
X-16056247Y-12885508D02*
X-16065770Y-12895031D01*
X-16065770Y-12895031D02*
X-16075294Y-12914079D01*
X-16075294Y-12914079D02*
X-16075294Y-12961698D01*
X-16075294Y-12961698D02*
X-16065770Y-12980746D01*
X-16065770Y-12980746D02*
X-16056247Y-12990269D01*
X-16056247Y-12990269D02*
X-16037199Y-12999793D01*
X-16037199Y-12999793D02*
X-15999104Y-12999793D01*
X-15999104Y-12999793D02*
X-15980056Y-12990269D01*
X-15980056Y-12990269D02*
X-15970532Y-12980746D01*
X-15970532Y-12980746D02*
X-15961008Y-12961698D01*
X-15722913Y-13075984D02*
X-15722913Y-12875984D01*
X-15637199Y-13075984D02*
X-15637199Y-12971222D01*
X-15637199Y-12971222D02*
X-15646723Y-12952174D01*
X-15646723Y-12952174D02*
X-15665770Y-12942650D01*
X-15665770Y-12942650D02*
X-15694342Y-12942650D01*
X-15694342Y-12942650D02*
X-15713389Y-12952174D01*
X-15713389Y-12952174D02*
X-15722913Y-12961698D01*
X-15513389Y-13075984D02*
X-15532437Y-13066460D01*
X-15532437Y-13066460D02*
X-15541961Y-13056936D01*
X-15541961Y-13056936D02*
X-15551485Y-13037888D01*
X-15551485Y-13037888D02*
X-15551485Y-12980746D01*
X-15551485Y-12980746D02*
X-15541961Y-12961698D01*
X-15541961Y-12961698D02*
X-15532437Y-12952174D01*
X-15532437Y-12952174D02*
X-15513389Y-12942650D01*
X-15513389Y-12942650D02*
X-15484818Y-12942650D01*
X-15484818Y-12942650D02*
X-15465770Y-12952174D01*
X-15465770Y-12952174D02*
X-15456246Y-12961698D01*
X-15456246Y-12961698D02*
X-15446723Y-12980746D01*
X-15446723Y-12980746D02*
X-15446723Y-13037888D01*
X-15446723Y-13037888D02*
X-15456246Y-13056936D01*
X-15456246Y-13056936D02*
X-15465770Y-13066460D01*
X-15465770Y-13066460D02*
X-15484818Y-13075984D01*
X-15484818Y-13075984D02*
X-15513389Y-13075984D01*
X-15332437Y-13075984D02*
X-15351485Y-13066460D01*
X-15351485Y-13066460D02*
X-15361008Y-13047412D01*
X-15361008Y-13047412D02*
X-15361008Y-12875984D01*
X-15180056Y-13066460D02*
X-15199104Y-13075984D01*
X-15199104Y-13075984D02*
X-15237199Y-13075984D01*
X-15237199Y-13075984D02*
X-15256246Y-13066460D01*
X-15256246Y-13066460D02*
X-15265770Y-13047412D01*
X-15265770Y-13047412D02*
X-15265770Y-12971222D01*
X-15265770Y-12971222D02*
X-15256246Y-12952174D01*
X-15256246Y-12952174D02*
X-15237199Y-12942650D01*
X-15237199Y-12942650D02*
X-15199104Y-12942650D01*
X-15199104Y-12942650D02*
X-15180056Y-12952174D01*
X-15180056Y-12952174D02*
X-15170532Y-12971222D01*
X-15170532Y-12971222D02*
X-15170532Y-12990269D01*
X-15170532Y-12990269D02*
X-15265770Y-13009317D01*
X-15094342Y-13066460D02*
X-15075294Y-13075984D01*
X-15075294Y-13075984D02*
X-15037199Y-13075984D01*
X-15037199Y-13075984D02*
X-15018151Y-13066460D01*
X-15018151Y-13066460D02*
X-15008627Y-13047412D01*
X-15008627Y-13047412D02*
X-15008627Y-13037888D01*
X-15008627Y-13037888D02*
X-15018151Y-13018841D01*
X-15018151Y-13018841D02*
X-15037199Y-13009317D01*
X-15037199Y-13009317D02*
X-15065770Y-13009317D01*
X-15065770Y-13009317D02*
X-15084818Y-12999793D01*
X-15084818Y-12999793D02*
X-15094342Y-12980746D01*
X-15094342Y-12980746D02*
X-15094342Y-12971222D01*
X-15094342Y-12971222D02*
X-15084818Y-12952174D01*
X-15084818Y-12952174D02*
X-15065770Y-12942650D01*
X-15065770Y-12942650D02*
X-15037199Y-12942650D01*
X-15037199Y-12942650D02*
X-15018151Y-12952174D01*
X-14941961Y-13152174D02*
X-14932437Y-13142650D01*
X-14932437Y-13142650D02*
X-14913389Y-13114079D01*
X-14913389Y-13114079D02*
X-14903865Y-13095031D01*
X-14903865Y-13095031D02*
X-14894342Y-13066460D01*
X-14894342Y-13066460D02*
X-14884818Y-13018841D01*
X-14884818Y-13018841D02*
X-14884818Y-12980746D01*
X-14884818Y-12980746D02*
X-14894342Y-12933127D01*
X-14894342Y-12933127D02*
X-14903865Y-12904555D01*
X-14903865Y-12904555D02*
X-14913389Y-12885508D01*
X-14913389Y-12885508D02*
X-14932437Y-12856936D01*
X-14932437Y-12856936D02*
X-14941961Y-12847412D01*
D12*
X-19955000Y-13296000D02*
X-19907500Y-13248500D01*
X-19955000Y-13201000D01*
X-20002500Y-13248500D01*
X-19955000Y-13296000D01*
D11*
X-19608628Y-13139984D02*
X-19589580Y-13139984D01*
X-19589580Y-13139984D02*
X-19570533Y-13149508D01*
X-19570533Y-13149508D02*
X-19561009Y-13159031D01*
X-19561009Y-13159031D02*
X-19551485Y-13178079D01*
X-19551485Y-13178079D02*
X-19541961Y-13216174D01*
X-19541961Y-13216174D02*
X-19541961Y-13263793D01*
X-19541961Y-13263793D02*
X-19551485Y-13301888D01*
X-19551485Y-13301888D02*
X-19561009Y-13320936D01*
X-19561009Y-13320936D02*
X-19570533Y-13330460D01*
X-19570533Y-13330460D02*
X-19589580Y-13339984D01*
X-19589580Y-13339984D02*
X-19608628Y-13339984D01*
X-19608628Y-13339984D02*
X-19627676Y-13330460D01*
X-19627676Y-13330460D02*
X-19637199Y-13320936D01*
X-19637199Y-13320936D02*
X-19646723Y-13301888D01*
X-19646723Y-13301888D02*
X-19656247Y-13263793D01*
X-19656247Y-13263793D02*
X-19656247Y-13216174D01*
X-19656247Y-13216174D02*
X-19646723Y-13178079D01*
X-19646723Y-13178079D02*
X-19637199Y-13159031D01*
X-19637199Y-13159031D02*
X-19627676Y-13149508D01*
X-19627676Y-13149508D02*
X-19608628Y-13139984D01*
X-19456247Y-13320936D02*
X-19446723Y-13330460D01*
X-19446723Y-13330460D02*
X-19456247Y-13339984D01*
X-19456247Y-13339984D02*
X-19465771Y-13330460D01*
X-19465771Y-13330460D02*
X-19456247Y-13320936D01*
X-19456247Y-13320936D02*
X-19456247Y-13339984D01*
X-19351485Y-13339984D02*
X-19313390Y-13339984D01*
X-19313390Y-13339984D02*
X-19294342Y-13330460D01*
X-19294342Y-13330460D02*
X-19284818Y-13320936D01*
X-19284818Y-13320936D02*
X-19265771Y-13292365D01*
X-19265771Y-13292365D02*
X-19256247Y-13254269D01*
X-19256247Y-13254269D02*
X-19256247Y-13178079D01*
X-19256247Y-13178079D02*
X-19265771Y-13159031D01*
X-19265771Y-13159031D02*
X-19275295Y-13149508D01*
X-19275295Y-13149508D02*
X-19294342Y-13139984D01*
X-19294342Y-13139984D02*
X-19332437Y-13139984D01*
X-19332437Y-13139984D02*
X-19351485Y-13149508D01*
X-19351485Y-13149508D02*
X-19361009Y-13159031D01*
X-19361009Y-13159031D02*
X-19370533Y-13178079D01*
X-19370533Y-13178079D02*
X-19370533Y-13225698D01*
X-19370533Y-13225698D02*
X-19361009Y-13244746D01*
X-19361009Y-13244746D02*
X-19351485Y-13254269D01*
X-19351485Y-13254269D02*
X-19332437Y-13263793D01*
X-19332437Y-13263793D02*
X-19294342Y-13263793D01*
X-19294342Y-13263793D02*
X-19275295Y-13254269D01*
X-19275295Y-13254269D02*
X-19265771Y-13244746D01*
X-19265771Y-13244746D02*
X-19256247Y-13225698D01*
X-19075295Y-13139984D02*
X-19170533Y-13139984D01*
X-19170533Y-13139984D02*
X-19180056Y-13235222D01*
X-19180056Y-13235222D02*
X-19170533Y-13225698D01*
X-19170533Y-13225698D02*
X-19151485Y-13216174D01*
X-19151485Y-13216174D02*
X-19103866Y-13216174D01*
X-19103866Y-13216174D02*
X-19084818Y-13225698D01*
X-19084818Y-13225698D02*
X-19075295Y-13235222D01*
X-19075295Y-13235222D02*
X-19065771Y-13254269D01*
X-19065771Y-13254269D02*
X-19065771Y-13301888D01*
X-19065771Y-13301888D02*
X-19075295Y-13320936D01*
X-19075295Y-13320936D02*
X-19084818Y-13330460D01*
X-19084818Y-13330460D02*
X-19103866Y-13339984D01*
X-19103866Y-13339984D02*
X-19151485Y-13339984D01*
X-19151485Y-13339984D02*
X-19170533Y-13330460D01*
X-19170533Y-13330460D02*
X-19180056Y-13320936D01*
X-18941961Y-13139984D02*
X-18922914Y-13139984D01*
X-18922914Y-13139984D02*
X-18903866Y-13149508D01*
X-18903866Y-13149508D02*
X-18894342Y-13159031D01*
X-18894342Y-13159031D02*
X-18884818Y-13178079D01*
X-18884818Y-13178079D02*
X-18875295Y-13216174D01*
X-18875295Y-13216174D02*
X-18875295Y-13263793D01*
X-18875295Y-13263793D02*
X-18884818Y-13301888D01*
X-18884818Y-13301888D02*
X-18894342Y-13320936D01*
X-18894342Y-13320936D02*
X-18903866Y-13330460D01*
X-18903866Y-13330460D02*
X-18922914Y-13339984D01*
X-18922914Y-13339984D02*
X-18941961Y-13339984D01*
X-18941961Y-13339984D02*
X-18961009Y-13330460D01*
X-18961009Y-13330460D02*
X-18970533Y-13320936D01*
X-18970533Y-13320936D02*
X-18980056Y-13301888D01*
X-18980056Y-13301888D02*
X-18989580Y-13263793D01*
X-18989580Y-13263793D02*
X-18989580Y-13216174D01*
X-18989580Y-13216174D02*
X-18980056Y-13178079D01*
X-18980056Y-13178079D02*
X-18970533Y-13159031D01*
X-18970533Y-13159031D02*
X-18961009Y-13149508D01*
X-18961009Y-13149508D02*
X-18941961Y-13139984D01*
X-18789580Y-13339984D02*
X-18789580Y-13206650D01*
X-18789580Y-13225698D02*
X-18780056Y-13216174D01*
X-18780056Y-13216174D02*
X-18761009Y-13206650D01*
X-18761009Y-13206650D02*
X-18732437Y-13206650D01*
X-18732437Y-13206650D02*
X-18713390Y-13216174D01*
X-18713390Y-13216174D02*
X-18703866Y-13235222D01*
X-18703866Y-13235222D02*
X-18703866Y-13339984D01*
X-18703866Y-13235222D02*
X-18694342Y-13216174D01*
X-18694342Y-13216174D02*
X-18675295Y-13206650D01*
X-18675295Y-13206650D02*
X-18646723Y-13206650D01*
X-18646723Y-13206650D02*
X-18627675Y-13216174D01*
X-18627675Y-13216174D02*
X-18618152Y-13235222D01*
X-18618152Y-13235222D02*
X-18618152Y-13339984D01*
X-18522914Y-13339984D02*
X-18522914Y-13206650D01*
X-18522914Y-13225698D02*
X-18513390Y-13216174D01*
X-18513390Y-13216174D02*
X-18494342Y-13206650D01*
X-18494342Y-13206650D02*
X-18465771Y-13206650D01*
X-18465771Y-13206650D02*
X-18446723Y-13216174D01*
X-18446723Y-13216174D02*
X-18437199Y-13235222D01*
X-18437199Y-13235222D02*
X-18437199Y-13339984D01*
X-18437199Y-13235222D02*
X-18427675Y-13216174D01*
X-18427675Y-13216174D02*
X-18408628Y-13206650D01*
X-18408628Y-13206650D02*
X-18380056Y-13206650D01*
X-18380056Y-13206650D02*
X-18361009Y-13216174D01*
X-18361009Y-13216174D02*
X-18351485Y-13235222D01*
X-18351485Y-13235222D02*
X-18351485Y-13339984D01*
X-17961009Y-13130460D02*
X-18132437Y-13387603D01*
X-17703866Y-13139984D02*
X-17684818Y-13139984D01*
X-17684818Y-13139984D02*
X-17665771Y-13149508D01*
X-17665771Y-13149508D02*
X-17656247Y-13159031D01*
X-17656247Y-13159031D02*
X-17646723Y-13178079D01*
X-17646723Y-13178079D02*
X-17637199Y-13216174D01*
X-17637199Y-13216174D02*
X-17637199Y-13263793D01*
X-17637199Y-13263793D02*
X-17646723Y-13301888D01*
X-17646723Y-13301888D02*
X-17656247Y-13320936D01*
X-17656247Y-13320936D02*
X-17665771Y-13330460D01*
X-17665771Y-13330460D02*
X-17684818Y-13339984D01*
X-17684818Y-13339984D02*
X-17703866Y-13339984D01*
X-17703866Y-13339984D02*
X-17722913Y-13330460D01*
X-17722913Y-13330460D02*
X-17732437Y-13320936D01*
X-17732437Y-13320936D02*
X-17741961Y-13301888D01*
X-17741961Y-13301888D02*
X-17751485Y-13263793D01*
X-17751485Y-13263793D02*
X-17751485Y-13216174D01*
X-17751485Y-13216174D02*
X-17741961Y-13178079D01*
X-17741961Y-13178079D02*
X-17732437Y-13159031D01*
X-17732437Y-13159031D02*
X-17722913Y-13149508D01*
X-17722913Y-13149508D02*
X-17703866Y-13139984D01*
X-17551485Y-13320936D02*
X-17541961Y-13330460D01*
X-17541961Y-13330460D02*
X-17551485Y-13339984D01*
X-17551485Y-13339984D02*
X-17561009Y-13330460D01*
X-17561009Y-13330460D02*
X-17551485Y-13320936D01*
X-17551485Y-13320936D02*
X-17551485Y-13339984D01*
X-17418152Y-13139984D02*
X-17399104Y-13139984D01*
X-17399104Y-13139984D02*
X-17380056Y-13149508D01*
X-17380056Y-13149508D02*
X-17370532Y-13159031D01*
X-17370532Y-13159031D02*
X-17361009Y-13178079D01*
X-17361009Y-13178079D02*
X-17351485Y-13216174D01*
X-17351485Y-13216174D02*
X-17351485Y-13263793D01*
X-17351485Y-13263793D02*
X-17361009Y-13301888D01*
X-17361009Y-13301888D02*
X-17370532Y-13320936D01*
X-17370532Y-13320936D02*
X-17380056Y-13330460D01*
X-17380056Y-13330460D02*
X-17399104Y-13339984D01*
X-17399104Y-13339984D02*
X-17418152Y-13339984D01*
X-17418152Y-13339984D02*
X-17437199Y-13330460D01*
X-17437199Y-13330460D02*
X-17446723Y-13320936D01*
X-17446723Y-13320936D02*
X-17456247Y-13301888D01*
X-17456247Y-13301888D02*
X-17465771Y-13263793D01*
X-17465771Y-13263793D02*
X-17465771Y-13216174D01*
X-17465771Y-13216174D02*
X-17456247Y-13178079D01*
X-17456247Y-13178079D02*
X-17446723Y-13159031D01*
X-17446723Y-13159031D02*
X-17437199Y-13149508D01*
X-17437199Y-13149508D02*
X-17418152Y-13139984D01*
X-17284818Y-13139984D02*
X-17161009Y-13139984D01*
X-17161009Y-13139984D02*
X-17227675Y-13216174D01*
X-17227675Y-13216174D02*
X-17199104Y-13216174D01*
X-17199104Y-13216174D02*
X-17180056Y-13225698D01*
X-17180056Y-13225698D02*
X-17170532Y-13235222D01*
X-17170532Y-13235222D02*
X-17161009Y-13254269D01*
X-17161009Y-13254269D02*
X-17161009Y-13301888D01*
X-17161009Y-13301888D02*
X-17170532Y-13320936D01*
X-17170532Y-13320936D02*
X-17180056Y-13330460D01*
X-17180056Y-13330460D02*
X-17199104Y-13339984D01*
X-17199104Y-13339984D02*
X-17256247Y-13339984D01*
X-17256247Y-13339984D02*
X-17275294Y-13330460D01*
X-17275294Y-13330460D02*
X-17284818Y-13320936D01*
X-17094342Y-13139984D02*
X-16961009Y-13139984D01*
X-16961009Y-13139984D02*
X-17046723Y-13339984D01*
X-16799104Y-13206650D02*
X-16799104Y-13339984D01*
X-16846723Y-13130460D02*
X-16894342Y-13273317D01*
X-16894342Y-13273317D02*
X-16770532Y-13273317D01*
X-16703866Y-13139984D02*
X-16703866Y-13178079D01*
X-16627675Y-13139984D02*
X-16627675Y-13178079D01*
X-16332437Y-13416174D02*
X-16341961Y-13406650D01*
X-16341961Y-13406650D02*
X-16361008Y-13378079D01*
X-16361008Y-13378079D02*
X-16370532Y-13359031D01*
X-16370532Y-13359031D02*
X-16380056Y-13330460D01*
X-16380056Y-13330460D02*
X-16389580Y-13282841D01*
X-16389580Y-13282841D02*
X-16389580Y-13244746D01*
X-16389580Y-13244746D02*
X-16380056Y-13197127D01*
X-16380056Y-13197127D02*
X-16370532Y-13168555D01*
X-16370532Y-13168555D02*
X-16361008Y-13149508D01*
X-16361008Y-13149508D02*
X-16341961Y-13120936D01*
X-16341961Y-13120936D02*
X-16332437Y-13111412D01*
X-16275294Y-13139984D02*
X-16151485Y-13139984D01*
X-16151485Y-13139984D02*
X-16218151Y-13216174D01*
X-16218151Y-13216174D02*
X-16189580Y-13216174D01*
X-16189580Y-13216174D02*
X-16170532Y-13225698D01*
X-16170532Y-13225698D02*
X-16161008Y-13235222D01*
X-16161008Y-13235222D02*
X-16151485Y-13254269D01*
X-16151485Y-13254269D02*
X-16151485Y-13301888D01*
X-16151485Y-13301888D02*
X-16161008Y-13320936D01*
X-16161008Y-13320936D02*
X-16170532Y-13330460D01*
X-16170532Y-13330460D02*
X-16189580Y-13339984D01*
X-16189580Y-13339984D02*
X-16246723Y-13339984D01*
X-16246723Y-13339984D02*
X-16265770Y-13330460D01*
X-16265770Y-13330460D02*
X-16275294Y-13320936D01*
X-15913389Y-13339984D02*
X-15913389Y-13139984D01*
X-15827675Y-13339984D02*
X-15827675Y-13235222D01*
X-15827675Y-13235222D02*
X-15837199Y-13216174D01*
X-15837199Y-13216174D02*
X-15856246Y-13206650D01*
X-15856246Y-13206650D02*
X-15884818Y-13206650D01*
X-15884818Y-13206650D02*
X-15903866Y-13216174D01*
X-15903866Y-13216174D02*
X-15913389Y-13225698D01*
X-15703866Y-13339984D02*
X-15722913Y-13330460D01*
X-15722913Y-13330460D02*
X-15732437Y-13320936D01*
X-15732437Y-13320936D02*
X-15741961Y-13301888D01*
X-15741961Y-13301888D02*
X-15741961Y-13244746D01*
X-15741961Y-13244746D02*
X-15732437Y-13225698D01*
X-15732437Y-13225698D02*
X-15722913Y-13216174D01*
X-15722913Y-13216174D02*
X-15703866Y-13206650D01*
X-15703866Y-13206650D02*
X-15675294Y-13206650D01*
X-15675294Y-13206650D02*
X-15656246Y-13216174D01*
X-15656246Y-13216174D02*
X-15646723Y-13225698D01*
X-15646723Y-13225698D02*
X-15637199Y-13244746D01*
X-15637199Y-13244746D02*
X-15637199Y-13301888D01*
X-15637199Y-13301888D02*
X-15646723Y-13320936D01*
X-15646723Y-13320936D02*
X-15656246Y-13330460D01*
X-15656246Y-13330460D02*
X-15675294Y-13339984D01*
X-15675294Y-13339984D02*
X-15703866Y-13339984D01*
X-15522913Y-13339984D02*
X-15541961Y-13330460D01*
X-15541961Y-13330460D02*
X-15551485Y-13311412D01*
X-15551485Y-13311412D02*
X-15551485Y-13139984D01*
X-15370532Y-13330460D02*
X-15389580Y-13339984D01*
X-15389580Y-13339984D02*
X-15427675Y-13339984D01*
X-15427675Y-13339984D02*
X-15446723Y-13330460D01*
X-15446723Y-13330460D02*
X-15456246Y-13311412D01*
X-15456246Y-13311412D02*
X-15456246Y-13235222D01*
X-15456246Y-13235222D02*
X-15446723Y-13216174D01*
X-15446723Y-13216174D02*
X-15427675Y-13206650D01*
X-15427675Y-13206650D02*
X-15389580Y-13206650D01*
X-15389580Y-13206650D02*
X-15370532Y-13216174D01*
X-15370532Y-13216174D02*
X-15361008Y-13235222D01*
X-15361008Y-13235222D02*
X-15361008Y-13254269D01*
X-15361008Y-13254269D02*
X-15456246Y-13273317D01*
X-15284818Y-13330460D02*
X-15265770Y-13339984D01*
X-15265770Y-13339984D02*
X-15227675Y-13339984D01*
X-15227675Y-13339984D02*
X-15208627Y-13330460D01*
X-15208627Y-13330460D02*
X-15199104Y-13311412D01*
X-15199104Y-13311412D02*
X-15199104Y-13301888D01*
X-15199104Y-13301888D02*
X-15208627Y-13282841D01*
X-15208627Y-13282841D02*
X-15227675Y-13273317D01*
X-15227675Y-13273317D02*
X-15256246Y-13273317D01*
X-15256246Y-13273317D02*
X-15275294Y-13263793D01*
X-15275294Y-13263793D02*
X-15284818Y-13244746D01*
X-15284818Y-13244746D02*
X-15284818Y-13235222D01*
X-15284818Y-13235222D02*
X-15275294Y-13216174D01*
X-15275294Y-13216174D02*
X-15256246Y-13206650D01*
X-15256246Y-13206650D02*
X-15227675Y-13206650D01*
X-15227675Y-13206650D02*
X-15208627Y-13216174D01*
X-15132437Y-13416174D02*
X-15122913Y-13406650D01*
X-15122913Y-13406650D02*
X-15103865Y-13378079D01*
X-15103865Y-13378079D02*
X-15094342Y-13359031D01*
X-15094342Y-13359031D02*
X-15084818Y-13330460D01*
X-15084818Y-13330460D02*
X-15075294Y-13282841D01*
X-15075294Y-13282841D02*
X-15075294Y-13244746D01*
X-15075294Y-13244746D02*
X-15084818Y-13197127D01*
X-15084818Y-13197127D02*
X-15094342Y-13168555D01*
X-15094342Y-13168555D02*
X-15103865Y-13149508D01*
X-15103865Y-13149508D02*
X-15122913Y-13120936D01*
X-15122913Y-13120936D02*
X-15132437Y-13111412D01*
D12*
X-20007500Y-13462500D02*
X-19907500Y-13562500D01*
X-19907500Y-13462500D02*
X-20007500Y-13562500D01*
X-19907500Y-13512500D02*
G75*
G02*
X-20007500Y-13512500I-50000J0D01*
G01*
X-20007500Y-13512500D02*
G75*
G02*
X-19907500Y-13512500I50000J0D01*
G01*
D11*
X-19541961Y-13603984D02*
X-19656247Y-13603984D01*
X-19599104Y-13603984D02*
X-19599104Y-13403984D01*
X-19599104Y-13403984D02*
X-19618152Y-13432555D01*
X-19618152Y-13432555D02*
X-19637199Y-13451603D01*
X-19637199Y-13451603D02*
X-19656247Y-13461127D01*
X-19456247Y-13584936D02*
X-19446723Y-13594460D01*
X-19446723Y-13594460D02*
X-19456247Y-13603984D01*
X-19456247Y-13603984D02*
X-19465771Y-13594460D01*
X-19465771Y-13594460D02*
X-19456247Y-13584936D01*
X-19456247Y-13584936D02*
X-19456247Y-13603984D01*
X-19322914Y-13403984D02*
X-19303866Y-13403984D01*
X-19303866Y-13403984D02*
X-19284818Y-13413508D01*
X-19284818Y-13413508D02*
X-19275295Y-13423031D01*
X-19275295Y-13423031D02*
X-19265771Y-13442079D01*
X-19265771Y-13442079D02*
X-19256247Y-13480174D01*
X-19256247Y-13480174D02*
X-19256247Y-13527793D01*
X-19256247Y-13527793D02*
X-19265771Y-13565888D01*
X-19265771Y-13565888D02*
X-19275295Y-13584936D01*
X-19275295Y-13584936D02*
X-19284818Y-13594460D01*
X-19284818Y-13594460D02*
X-19303866Y-13603984D01*
X-19303866Y-13603984D02*
X-19322914Y-13603984D01*
X-19322914Y-13603984D02*
X-19341961Y-13594460D01*
X-19341961Y-13594460D02*
X-19351485Y-13584936D01*
X-19351485Y-13584936D02*
X-19361009Y-13565888D01*
X-19361009Y-13565888D02*
X-19370533Y-13527793D01*
X-19370533Y-13527793D02*
X-19370533Y-13480174D01*
X-19370533Y-13480174D02*
X-19361009Y-13442079D01*
X-19361009Y-13442079D02*
X-19351485Y-13423031D01*
X-19351485Y-13423031D02*
X-19341961Y-13413508D01*
X-19341961Y-13413508D02*
X-19322914Y-13403984D01*
X-19132437Y-13403984D02*
X-19113390Y-13403984D01*
X-19113390Y-13403984D02*
X-19094342Y-13413508D01*
X-19094342Y-13413508D02*
X-19084818Y-13423031D01*
X-19084818Y-13423031D02*
X-19075295Y-13442079D01*
X-19075295Y-13442079D02*
X-19065771Y-13480174D01*
X-19065771Y-13480174D02*
X-19065771Y-13527793D01*
X-19065771Y-13527793D02*
X-19075295Y-13565888D01*
X-19075295Y-13565888D02*
X-19084818Y-13584936D01*
X-19084818Y-13584936D02*
X-19094342Y-13594460D01*
X-19094342Y-13594460D02*
X-19113390Y-13603984D01*
X-19113390Y-13603984D02*
X-19132437Y-13603984D01*
X-19132437Y-13603984D02*
X-19151485Y-13594460D01*
X-19151485Y-13594460D02*
X-19161009Y-13584936D01*
X-19161009Y-13584936D02*
X-19170533Y-13565888D01*
X-19170533Y-13565888D02*
X-19180056Y-13527793D01*
X-19180056Y-13527793D02*
X-19180056Y-13480174D01*
X-19180056Y-13480174D02*
X-19170533Y-13442079D01*
X-19170533Y-13442079D02*
X-19161009Y-13423031D01*
X-19161009Y-13423031D02*
X-19151485Y-13413508D01*
X-19151485Y-13413508D02*
X-19132437Y-13403984D01*
X-18941961Y-13403984D02*
X-18922914Y-13403984D01*
X-18922914Y-13403984D02*
X-18903866Y-13413508D01*
X-18903866Y-13413508D02*
X-18894342Y-13423031D01*
X-18894342Y-13423031D02*
X-18884818Y-13442079D01*
X-18884818Y-13442079D02*
X-18875295Y-13480174D01*
X-18875295Y-13480174D02*
X-18875295Y-13527793D01*
X-18875295Y-13527793D02*
X-18884818Y-13565888D01*
X-18884818Y-13565888D02*
X-18894342Y-13584936D01*
X-18894342Y-13584936D02*
X-18903866Y-13594460D01*
X-18903866Y-13594460D02*
X-18922914Y-13603984D01*
X-18922914Y-13603984D02*
X-18941961Y-13603984D01*
X-18941961Y-13603984D02*
X-18961009Y-13594460D01*
X-18961009Y-13594460D02*
X-18970533Y-13584936D01*
X-18970533Y-13584936D02*
X-18980056Y-13565888D01*
X-18980056Y-13565888D02*
X-18989580Y-13527793D01*
X-18989580Y-13527793D02*
X-18989580Y-13480174D01*
X-18989580Y-13480174D02*
X-18980056Y-13442079D01*
X-18980056Y-13442079D02*
X-18970533Y-13423031D01*
X-18970533Y-13423031D02*
X-18961009Y-13413508D01*
X-18961009Y-13413508D02*
X-18941961Y-13403984D01*
X-18789580Y-13603984D02*
X-18789580Y-13470650D01*
X-18789580Y-13489698D02*
X-18780056Y-13480174D01*
X-18780056Y-13480174D02*
X-18761009Y-13470650D01*
X-18761009Y-13470650D02*
X-18732437Y-13470650D01*
X-18732437Y-13470650D02*
X-18713390Y-13480174D01*
X-18713390Y-13480174D02*
X-18703866Y-13499222D01*
X-18703866Y-13499222D02*
X-18703866Y-13603984D01*
X-18703866Y-13499222D02*
X-18694342Y-13480174D01*
X-18694342Y-13480174D02*
X-18675295Y-13470650D01*
X-18675295Y-13470650D02*
X-18646723Y-13470650D01*
X-18646723Y-13470650D02*
X-18627675Y-13480174D01*
X-18627675Y-13480174D02*
X-18618152Y-13499222D01*
X-18618152Y-13499222D02*
X-18618152Y-13603984D01*
X-18522914Y-13603984D02*
X-18522914Y-13470650D01*
X-18522914Y-13489698D02*
X-18513390Y-13480174D01*
X-18513390Y-13480174D02*
X-18494342Y-13470650D01*
X-18494342Y-13470650D02*
X-18465771Y-13470650D01*
X-18465771Y-13470650D02*
X-18446723Y-13480174D01*
X-18446723Y-13480174D02*
X-18437199Y-13499222D01*
X-18437199Y-13499222D02*
X-18437199Y-13603984D01*
X-18437199Y-13499222D02*
X-18427675Y-13480174D01*
X-18427675Y-13480174D02*
X-18408628Y-13470650D01*
X-18408628Y-13470650D02*
X-18380056Y-13470650D01*
X-18380056Y-13470650D02*
X-18361009Y-13480174D01*
X-18361009Y-13480174D02*
X-18351485Y-13499222D01*
X-18351485Y-13499222D02*
X-18351485Y-13603984D01*
X-17961009Y-13394460D02*
X-18132437Y-13651603D01*
X-17703866Y-13403984D02*
X-17684818Y-13403984D01*
X-17684818Y-13403984D02*
X-17665771Y-13413508D01*
X-17665771Y-13413508D02*
X-17656247Y-13423031D01*
X-17656247Y-13423031D02*
X-17646723Y-13442079D01*
X-17646723Y-13442079D02*
X-17637199Y-13480174D01*
X-17637199Y-13480174D02*
X-17637199Y-13527793D01*
X-17637199Y-13527793D02*
X-17646723Y-13565888D01*
X-17646723Y-13565888D02*
X-17656247Y-13584936D01*
X-17656247Y-13584936D02*
X-17665771Y-13594460D01*
X-17665771Y-13594460D02*
X-17684818Y-13603984D01*
X-17684818Y-13603984D02*
X-17703866Y-13603984D01*
X-17703866Y-13603984D02*
X-17722913Y-13594460D01*
X-17722913Y-13594460D02*
X-17732437Y-13584936D01*
X-17732437Y-13584936D02*
X-17741961Y-13565888D01*
X-17741961Y-13565888D02*
X-17751485Y-13527793D01*
X-17751485Y-13527793D02*
X-17751485Y-13480174D01*
X-17751485Y-13480174D02*
X-17741961Y-13442079D01*
X-17741961Y-13442079D02*
X-17732437Y-13423031D01*
X-17732437Y-13423031D02*
X-17722913Y-13413508D01*
X-17722913Y-13413508D02*
X-17703866Y-13403984D01*
X-17551485Y-13584936D02*
X-17541961Y-13594460D01*
X-17541961Y-13594460D02*
X-17551485Y-13603984D01*
X-17551485Y-13603984D02*
X-17561009Y-13594460D01*
X-17561009Y-13594460D02*
X-17551485Y-13584936D01*
X-17551485Y-13584936D02*
X-17551485Y-13603984D01*
X-17418152Y-13403984D02*
X-17399104Y-13403984D01*
X-17399104Y-13403984D02*
X-17380056Y-13413508D01*
X-17380056Y-13413508D02*
X-17370532Y-13423031D01*
X-17370532Y-13423031D02*
X-17361009Y-13442079D01*
X-17361009Y-13442079D02*
X-17351485Y-13480174D01*
X-17351485Y-13480174D02*
X-17351485Y-13527793D01*
X-17351485Y-13527793D02*
X-17361009Y-13565888D01*
X-17361009Y-13565888D02*
X-17370532Y-13584936D01*
X-17370532Y-13584936D02*
X-17380056Y-13594460D01*
X-17380056Y-13594460D02*
X-17399104Y-13603984D01*
X-17399104Y-13603984D02*
X-17418152Y-13603984D01*
X-17418152Y-13603984D02*
X-17437199Y-13594460D01*
X-17437199Y-13594460D02*
X-17446723Y-13584936D01*
X-17446723Y-13584936D02*
X-17456247Y-13565888D01*
X-17456247Y-13565888D02*
X-17465771Y-13527793D01*
X-17465771Y-13527793D02*
X-17465771Y-13480174D01*
X-17465771Y-13480174D02*
X-17456247Y-13442079D01*
X-17456247Y-13442079D02*
X-17446723Y-13423031D01*
X-17446723Y-13423031D02*
X-17437199Y-13413508D01*
X-17437199Y-13413508D02*
X-17418152Y-13403984D01*
X-17284818Y-13403984D02*
X-17161009Y-13403984D01*
X-17161009Y-13403984D02*
X-17227675Y-13480174D01*
X-17227675Y-13480174D02*
X-17199104Y-13480174D01*
X-17199104Y-13480174D02*
X-17180056Y-13489698D01*
X-17180056Y-13489698D02*
X-17170532Y-13499222D01*
X-17170532Y-13499222D02*
X-17161009Y-13518269D01*
X-17161009Y-13518269D02*
X-17161009Y-13565888D01*
X-17161009Y-13565888D02*
X-17170532Y-13584936D01*
X-17170532Y-13584936D02*
X-17180056Y-13594460D01*
X-17180056Y-13594460D02*
X-17199104Y-13603984D01*
X-17199104Y-13603984D02*
X-17256247Y-13603984D01*
X-17256247Y-13603984D02*
X-17275294Y-13594460D01*
X-17275294Y-13594460D02*
X-17284818Y-13584936D01*
X-17065771Y-13603984D02*
X-17027675Y-13603984D01*
X-17027675Y-13603984D02*
X-17008628Y-13594460D01*
X-17008628Y-13594460D02*
X-16999104Y-13584936D01*
X-16999104Y-13584936D02*
X-16980056Y-13556365D01*
X-16980056Y-13556365D02*
X-16970532Y-13518269D01*
X-16970532Y-13518269D02*
X-16970532Y-13442079D01*
X-16970532Y-13442079D02*
X-16980056Y-13423031D01*
X-16980056Y-13423031D02*
X-16989580Y-13413508D01*
X-16989580Y-13413508D02*
X-17008628Y-13403984D01*
X-17008628Y-13403984D02*
X-17046723Y-13403984D01*
X-17046723Y-13403984D02*
X-17065771Y-13413508D01*
X-17065771Y-13413508D02*
X-17075294Y-13423031D01*
X-17075294Y-13423031D02*
X-17084818Y-13442079D01*
X-17084818Y-13442079D02*
X-17084818Y-13489698D01*
X-17084818Y-13489698D02*
X-17075294Y-13508746D01*
X-17075294Y-13508746D02*
X-17065771Y-13518269D01*
X-17065771Y-13518269D02*
X-17046723Y-13527793D01*
X-17046723Y-13527793D02*
X-17008628Y-13527793D01*
X-17008628Y-13527793D02*
X-16989580Y-13518269D01*
X-16989580Y-13518269D02*
X-16980056Y-13508746D01*
X-16980056Y-13508746D02*
X-16970532Y-13489698D01*
X-16799104Y-13470650D02*
X-16799104Y-13603984D01*
X-16846723Y-13394460D02*
X-16894342Y-13537317D01*
X-16894342Y-13537317D02*
X-16770532Y-13537317D01*
X-16703866Y-13403984D02*
X-16703866Y-13442079D01*
X-16627675Y-13403984D02*
X-16627675Y-13442079D01*
X-16332437Y-13680174D02*
X-16341961Y-13670650D01*
X-16341961Y-13670650D02*
X-16361008Y-13642079D01*
X-16361008Y-13642079D02*
X-16370532Y-13623031D01*
X-16370532Y-13623031D02*
X-16380056Y-13594460D01*
X-16380056Y-13594460D02*
X-16389580Y-13546841D01*
X-16389580Y-13546841D02*
X-16389580Y-13508746D01*
X-16389580Y-13508746D02*
X-16380056Y-13461127D01*
X-16380056Y-13461127D02*
X-16370532Y-13432555D01*
X-16370532Y-13432555D02*
X-16361008Y-13413508D01*
X-16361008Y-13413508D02*
X-16341961Y-13384936D01*
X-16341961Y-13384936D02*
X-16332437Y-13375412D01*
X-16170532Y-13470650D02*
X-16170532Y-13603984D01*
X-16218151Y-13394460D02*
X-16265770Y-13537317D01*
X-16265770Y-13537317D02*
X-16141961Y-13537317D01*
X-15913389Y-13603984D02*
X-15913389Y-13403984D01*
X-15827675Y-13603984D02*
X-15827675Y-13499222D01*
X-15827675Y-13499222D02*
X-15837199Y-13480174D01*
X-15837199Y-13480174D02*
X-15856246Y-13470650D01*
X-15856246Y-13470650D02*
X-15884818Y-13470650D01*
X-15884818Y-13470650D02*
X-15903866Y-13480174D01*
X-15903866Y-13480174D02*
X-15913389Y-13489698D01*
X-15703866Y-13603984D02*
X-15722913Y-13594460D01*
X-15722913Y-13594460D02*
X-15732437Y-13584936D01*
X-15732437Y-13584936D02*
X-15741961Y-13565888D01*
X-15741961Y-13565888D02*
X-15741961Y-13508746D01*
X-15741961Y-13508746D02*
X-15732437Y-13489698D01*
X-15732437Y-13489698D02*
X-15722913Y-13480174D01*
X-15722913Y-13480174D02*
X-15703866Y-13470650D01*
X-15703866Y-13470650D02*
X-15675294Y-13470650D01*
X-15675294Y-13470650D02*
X-15656246Y-13480174D01*
X-15656246Y-13480174D02*
X-15646723Y-13489698D01*
X-15646723Y-13489698D02*
X-15637199Y-13508746D01*
X-15637199Y-13508746D02*
X-15637199Y-13565888D01*
X-15637199Y-13565888D02*
X-15646723Y-13584936D01*
X-15646723Y-13584936D02*
X-15656246Y-13594460D01*
X-15656246Y-13594460D02*
X-15675294Y-13603984D01*
X-15675294Y-13603984D02*
X-15703866Y-13603984D01*
X-15522913Y-13603984D02*
X-15541961Y-13594460D01*
X-15541961Y-13594460D02*
X-15551485Y-13575412D01*
X-15551485Y-13575412D02*
X-15551485Y-13403984D01*
X-15370532Y-13594460D02*
X-15389580Y-13603984D01*
X-15389580Y-13603984D02*
X-15427675Y-13603984D01*
X-15427675Y-13603984D02*
X-15446723Y-13594460D01*
X-15446723Y-13594460D02*
X-15456246Y-13575412D01*
X-15456246Y-13575412D02*
X-15456246Y-13499222D01*
X-15456246Y-13499222D02*
X-15446723Y-13480174D01*
X-15446723Y-13480174D02*
X-15427675Y-13470650D01*
X-15427675Y-13470650D02*
X-15389580Y-13470650D01*
X-15389580Y-13470650D02*
X-15370532Y-13480174D01*
X-15370532Y-13480174D02*
X-15361008Y-13499222D01*
X-15361008Y-13499222D02*
X-15361008Y-13518269D01*
X-15361008Y-13518269D02*
X-15456246Y-13537317D01*
X-15284818Y-13594460D02*
X-15265770Y-13603984D01*
X-15265770Y-13603984D02*
X-15227675Y-13603984D01*
X-15227675Y-13603984D02*
X-15208627Y-13594460D01*
X-15208627Y-13594460D02*
X-15199104Y-13575412D01*
X-15199104Y-13575412D02*
X-15199104Y-13565888D01*
X-15199104Y-13565888D02*
X-15208627Y-13546841D01*
X-15208627Y-13546841D02*
X-15227675Y-13537317D01*
X-15227675Y-13537317D02*
X-15256246Y-13537317D01*
X-15256246Y-13537317D02*
X-15275294Y-13527793D01*
X-15275294Y-13527793D02*
X-15284818Y-13508746D01*
X-15284818Y-13508746D02*
X-15284818Y-13499222D01*
X-15284818Y-13499222D02*
X-15275294Y-13480174D01*
X-15275294Y-13480174D02*
X-15256246Y-13470650D01*
X-15256246Y-13470650D02*
X-15227675Y-13470650D01*
X-15227675Y-13470650D02*
X-15208627Y-13480174D01*
X-15132437Y-13680174D02*
X-15122913Y-13670650D01*
X-15122913Y-13670650D02*
X-15103865Y-13642079D01*
X-15103865Y-13642079D02*
X-15094342Y-13623031D01*
X-15094342Y-13623031D02*
X-15084818Y-13594460D01*
X-15084818Y-13594460D02*
X-15075294Y-13546841D01*
X-15075294Y-13546841D02*
X-15075294Y-13508746D01*
X-15075294Y-13508746D02*
X-15084818Y-13461127D01*
X-15084818Y-13461127D02*
X-15094342Y-13432555D01*
X-15094342Y-13432555D02*
X-15103865Y-13413508D01*
X-15103865Y-13413508D02*
X-15122913Y-13384936D01*
X-15122913Y-13384936D02*
X-15132437Y-13375412D01*
D13*
X-20017500Y-13721500D02*
X-19907500Y-13831500D01*
X-19907500Y-13721500D02*
X-20017500Y-13831500D01*
X-19962500Y-13721500D02*
X-19962500Y-13831500D01*
X-20017500Y-13776500D02*
X-19907500Y-13776500D01*
D11*
X-19541961Y-13867984D02*
X-19656247Y-13867984D01*
X-19599104Y-13867984D02*
X-19599104Y-13667984D01*
X-19599104Y-13667984D02*
X-19618152Y-13696555D01*
X-19618152Y-13696555D02*
X-19637199Y-13715603D01*
X-19637199Y-13715603D02*
X-19656247Y-13725127D01*
X-19456247Y-13848936D02*
X-19446723Y-13858460D01*
X-19446723Y-13858460D02*
X-19456247Y-13867984D01*
X-19456247Y-13867984D02*
X-19465771Y-13858460D01*
X-19465771Y-13858460D02*
X-19456247Y-13848936D01*
X-19456247Y-13848936D02*
X-19456247Y-13867984D01*
X-19256247Y-13867984D02*
X-19370533Y-13867984D01*
X-19313390Y-13867984D02*
X-19313390Y-13667984D01*
X-19313390Y-13667984D02*
X-19332437Y-13696555D01*
X-19332437Y-13696555D02*
X-19351485Y-13715603D01*
X-19351485Y-13715603D02*
X-19370533Y-13725127D01*
X-19132437Y-13667984D02*
X-19113390Y-13667984D01*
X-19113390Y-13667984D02*
X-19094342Y-13677508D01*
X-19094342Y-13677508D02*
X-19084818Y-13687031D01*
X-19084818Y-13687031D02*
X-19075295Y-13706079D01*
X-19075295Y-13706079D02*
X-19065771Y-13744174D01*
X-19065771Y-13744174D02*
X-19065771Y-13791793D01*
X-19065771Y-13791793D02*
X-19075295Y-13829888D01*
X-19075295Y-13829888D02*
X-19084818Y-13848936D01*
X-19084818Y-13848936D02*
X-19094342Y-13858460D01*
X-19094342Y-13858460D02*
X-19113390Y-13867984D01*
X-19113390Y-13867984D02*
X-19132437Y-13867984D01*
X-19132437Y-13867984D02*
X-19151485Y-13858460D01*
X-19151485Y-13858460D02*
X-19161009Y-13848936D01*
X-19161009Y-13848936D02*
X-19170533Y-13829888D01*
X-19170533Y-13829888D02*
X-19180056Y-13791793D01*
X-19180056Y-13791793D02*
X-19180056Y-13744174D01*
X-19180056Y-13744174D02*
X-19170533Y-13706079D01*
X-19170533Y-13706079D02*
X-19161009Y-13687031D01*
X-19161009Y-13687031D02*
X-19151485Y-13677508D01*
X-19151485Y-13677508D02*
X-19132437Y-13667984D01*
X-18941961Y-13667984D02*
X-18922914Y-13667984D01*
X-18922914Y-13667984D02*
X-18903866Y-13677508D01*
X-18903866Y-13677508D02*
X-18894342Y-13687031D01*
X-18894342Y-13687031D02*
X-18884818Y-13706079D01*
X-18884818Y-13706079D02*
X-18875295Y-13744174D01*
X-18875295Y-13744174D02*
X-18875295Y-13791793D01*
X-18875295Y-13791793D02*
X-18884818Y-13829888D01*
X-18884818Y-13829888D02*
X-18894342Y-13848936D01*
X-18894342Y-13848936D02*
X-18903866Y-13858460D01*
X-18903866Y-13858460D02*
X-18922914Y-13867984D01*
X-18922914Y-13867984D02*
X-18941961Y-13867984D01*
X-18941961Y-13867984D02*
X-18961009Y-13858460D01*
X-18961009Y-13858460D02*
X-18970533Y-13848936D01*
X-18970533Y-13848936D02*
X-18980056Y-13829888D01*
X-18980056Y-13829888D02*
X-18989580Y-13791793D01*
X-18989580Y-13791793D02*
X-18989580Y-13744174D01*
X-18989580Y-13744174D02*
X-18980056Y-13706079D01*
X-18980056Y-13706079D02*
X-18970533Y-13687031D01*
X-18970533Y-13687031D02*
X-18961009Y-13677508D01*
X-18961009Y-13677508D02*
X-18941961Y-13667984D01*
X-18789580Y-13867984D02*
X-18789580Y-13734650D01*
X-18789580Y-13753698D02*
X-18780056Y-13744174D01*
X-18780056Y-13744174D02*
X-18761009Y-13734650D01*
X-18761009Y-13734650D02*
X-18732437Y-13734650D01*
X-18732437Y-13734650D02*
X-18713390Y-13744174D01*
X-18713390Y-13744174D02*
X-18703866Y-13763222D01*
X-18703866Y-13763222D02*
X-18703866Y-13867984D01*
X-18703866Y-13763222D02*
X-18694342Y-13744174D01*
X-18694342Y-13744174D02*
X-18675295Y-13734650D01*
X-18675295Y-13734650D02*
X-18646723Y-13734650D01*
X-18646723Y-13734650D02*
X-18627675Y-13744174D01*
X-18627675Y-13744174D02*
X-18618152Y-13763222D01*
X-18618152Y-13763222D02*
X-18618152Y-13867984D01*
X-18522914Y-13867984D02*
X-18522914Y-13734650D01*
X-18522914Y-13753698D02*
X-18513390Y-13744174D01*
X-18513390Y-13744174D02*
X-18494342Y-13734650D01*
X-18494342Y-13734650D02*
X-18465771Y-13734650D01*
X-18465771Y-13734650D02*
X-18446723Y-13744174D01*
X-18446723Y-13744174D02*
X-18437199Y-13763222D01*
X-18437199Y-13763222D02*
X-18437199Y-13867984D01*
X-18437199Y-13763222D02*
X-18427675Y-13744174D01*
X-18427675Y-13744174D02*
X-18408628Y-13734650D01*
X-18408628Y-13734650D02*
X-18380056Y-13734650D01*
X-18380056Y-13734650D02*
X-18361009Y-13744174D01*
X-18361009Y-13744174D02*
X-18351485Y-13763222D01*
X-18351485Y-13763222D02*
X-18351485Y-13867984D01*
X-17961009Y-13658460D02*
X-18132437Y-13915603D01*
X-17703866Y-13667984D02*
X-17684818Y-13667984D01*
X-17684818Y-13667984D02*
X-17665771Y-13677508D01*
X-17665771Y-13677508D02*
X-17656247Y-13687031D01*
X-17656247Y-13687031D02*
X-17646723Y-13706079D01*
X-17646723Y-13706079D02*
X-17637199Y-13744174D01*
X-17637199Y-13744174D02*
X-17637199Y-13791793D01*
X-17637199Y-13791793D02*
X-17646723Y-13829888D01*
X-17646723Y-13829888D02*
X-17656247Y-13848936D01*
X-17656247Y-13848936D02*
X-17665771Y-13858460D01*
X-17665771Y-13858460D02*
X-17684818Y-13867984D01*
X-17684818Y-13867984D02*
X-17703866Y-13867984D01*
X-17703866Y-13867984D02*
X-17722913Y-13858460D01*
X-17722913Y-13858460D02*
X-17732437Y-13848936D01*
X-17732437Y-13848936D02*
X-17741961Y-13829888D01*
X-17741961Y-13829888D02*
X-17751485Y-13791793D01*
X-17751485Y-13791793D02*
X-17751485Y-13744174D01*
X-17751485Y-13744174D02*
X-17741961Y-13706079D01*
X-17741961Y-13706079D02*
X-17732437Y-13687031D01*
X-17732437Y-13687031D02*
X-17722913Y-13677508D01*
X-17722913Y-13677508D02*
X-17703866Y-13667984D01*
X-17551485Y-13848936D02*
X-17541961Y-13858460D01*
X-17541961Y-13858460D02*
X-17551485Y-13867984D01*
X-17551485Y-13867984D02*
X-17561009Y-13858460D01*
X-17561009Y-13858460D02*
X-17551485Y-13848936D01*
X-17551485Y-13848936D02*
X-17551485Y-13867984D01*
X-17418152Y-13667984D02*
X-17399104Y-13667984D01*
X-17399104Y-13667984D02*
X-17380056Y-13677508D01*
X-17380056Y-13677508D02*
X-17370532Y-13687031D01*
X-17370532Y-13687031D02*
X-17361009Y-13706079D01*
X-17361009Y-13706079D02*
X-17351485Y-13744174D01*
X-17351485Y-13744174D02*
X-17351485Y-13791793D01*
X-17351485Y-13791793D02*
X-17361009Y-13829888D01*
X-17361009Y-13829888D02*
X-17370532Y-13848936D01*
X-17370532Y-13848936D02*
X-17380056Y-13858460D01*
X-17380056Y-13858460D02*
X-17399104Y-13867984D01*
X-17399104Y-13867984D02*
X-17418152Y-13867984D01*
X-17418152Y-13867984D02*
X-17437199Y-13858460D01*
X-17437199Y-13858460D02*
X-17446723Y-13848936D01*
X-17446723Y-13848936D02*
X-17456247Y-13829888D01*
X-17456247Y-13829888D02*
X-17465771Y-13791793D01*
X-17465771Y-13791793D02*
X-17465771Y-13744174D01*
X-17465771Y-13744174D02*
X-17456247Y-13706079D01*
X-17456247Y-13706079D02*
X-17446723Y-13687031D01*
X-17446723Y-13687031D02*
X-17437199Y-13677508D01*
X-17437199Y-13677508D02*
X-17418152Y-13667984D01*
X-17180056Y-13734650D02*
X-17180056Y-13867984D01*
X-17227675Y-13658460D02*
X-17275294Y-13801317D01*
X-17275294Y-13801317D02*
X-17151485Y-13801317D01*
X-17094342Y-13667984D02*
X-16970532Y-13667984D01*
X-16970532Y-13667984D02*
X-17037199Y-13744174D01*
X-17037199Y-13744174D02*
X-17008628Y-13744174D01*
X-17008628Y-13744174D02*
X-16989580Y-13753698D01*
X-16989580Y-13753698D02*
X-16980056Y-13763222D01*
X-16980056Y-13763222D02*
X-16970532Y-13782269D01*
X-16970532Y-13782269D02*
X-16970532Y-13829888D01*
X-16970532Y-13829888D02*
X-16980056Y-13848936D01*
X-16980056Y-13848936D02*
X-16989580Y-13858460D01*
X-16989580Y-13858460D02*
X-17008628Y-13867984D01*
X-17008628Y-13867984D02*
X-17065771Y-13867984D01*
X-17065771Y-13867984D02*
X-17084818Y-13858460D01*
X-17084818Y-13858460D02*
X-17094342Y-13848936D01*
X-16903866Y-13667984D02*
X-16780056Y-13667984D01*
X-16780056Y-13667984D02*
X-16846723Y-13744174D01*
X-16846723Y-13744174D02*
X-16818151Y-13744174D01*
X-16818151Y-13744174D02*
X-16799104Y-13753698D01*
X-16799104Y-13753698D02*
X-16789580Y-13763222D01*
X-16789580Y-13763222D02*
X-16780056Y-13782269D01*
X-16780056Y-13782269D02*
X-16780056Y-13829888D01*
X-16780056Y-13829888D02*
X-16789580Y-13848936D01*
X-16789580Y-13848936D02*
X-16799104Y-13858460D01*
X-16799104Y-13858460D02*
X-16818151Y-13867984D01*
X-16818151Y-13867984D02*
X-16875294Y-13867984D01*
X-16875294Y-13867984D02*
X-16894342Y-13858460D01*
X-16894342Y-13858460D02*
X-16903866Y-13848936D01*
X-16703866Y-13667984D02*
X-16703866Y-13706079D01*
X-16627675Y-13667984D02*
X-16627675Y-13706079D01*
X-16332437Y-13944174D02*
X-16341961Y-13934650D01*
X-16341961Y-13934650D02*
X-16361008Y-13906079D01*
X-16361008Y-13906079D02*
X-16370532Y-13887031D01*
X-16370532Y-13887031D02*
X-16380056Y-13858460D01*
X-16380056Y-13858460D02*
X-16389580Y-13810841D01*
X-16389580Y-13810841D02*
X-16389580Y-13772746D01*
X-16389580Y-13772746D02*
X-16380056Y-13725127D01*
X-16380056Y-13725127D02*
X-16370532Y-13696555D01*
X-16370532Y-13696555D02*
X-16361008Y-13677508D01*
X-16361008Y-13677508D02*
X-16341961Y-13648936D01*
X-16341961Y-13648936D02*
X-16332437Y-13639412D01*
X-16170532Y-13734650D02*
X-16170532Y-13867984D01*
X-16218151Y-13658460D02*
X-16265770Y-13801317D01*
X-16265770Y-13801317D02*
X-16141961Y-13801317D01*
X-15913389Y-13867984D02*
X-15913389Y-13667984D01*
X-15827675Y-13867984D02*
X-15827675Y-13763222D01*
X-15827675Y-13763222D02*
X-15837199Y-13744174D01*
X-15837199Y-13744174D02*
X-15856246Y-13734650D01*
X-15856246Y-13734650D02*
X-15884818Y-13734650D01*
X-15884818Y-13734650D02*
X-15903866Y-13744174D01*
X-15903866Y-13744174D02*
X-15913389Y-13753698D01*
X-15703866Y-13867984D02*
X-15722913Y-13858460D01*
X-15722913Y-13858460D02*
X-15732437Y-13848936D01*
X-15732437Y-13848936D02*
X-15741961Y-13829888D01*
X-15741961Y-13829888D02*
X-15741961Y-13772746D01*
X-15741961Y-13772746D02*
X-15732437Y-13753698D01*
X-15732437Y-13753698D02*
X-15722913Y-13744174D01*
X-15722913Y-13744174D02*
X-15703866Y-13734650D01*
X-15703866Y-13734650D02*
X-15675294Y-13734650D01*
X-15675294Y-13734650D02*
X-15656246Y-13744174D01*
X-15656246Y-13744174D02*
X-15646723Y-13753698D01*
X-15646723Y-13753698D02*
X-15637199Y-13772746D01*
X-15637199Y-13772746D02*
X-15637199Y-13829888D01*
X-15637199Y-13829888D02*
X-15646723Y-13848936D01*
X-15646723Y-13848936D02*
X-15656246Y-13858460D01*
X-15656246Y-13858460D02*
X-15675294Y-13867984D01*
X-15675294Y-13867984D02*
X-15703866Y-13867984D01*
X-15522913Y-13867984D02*
X-15541961Y-13858460D01*
X-15541961Y-13858460D02*
X-15551485Y-13839412D01*
X-15551485Y-13839412D02*
X-15551485Y-13667984D01*
X-15370532Y-13858460D02*
X-15389580Y-13867984D01*
X-15389580Y-13867984D02*
X-15427675Y-13867984D01*
X-15427675Y-13867984D02*
X-15446723Y-13858460D01*
X-15446723Y-13858460D02*
X-15456246Y-13839412D01*
X-15456246Y-13839412D02*
X-15456246Y-13763222D01*
X-15456246Y-13763222D02*
X-15446723Y-13744174D01*
X-15446723Y-13744174D02*
X-15427675Y-13734650D01*
X-15427675Y-13734650D02*
X-15389580Y-13734650D01*
X-15389580Y-13734650D02*
X-15370532Y-13744174D01*
X-15370532Y-13744174D02*
X-15361008Y-13763222D01*
X-15361008Y-13763222D02*
X-15361008Y-13782269D01*
X-15361008Y-13782269D02*
X-15456246Y-13801317D01*
X-15284818Y-13858460D02*
X-15265770Y-13867984D01*
X-15265770Y-13867984D02*
X-15227675Y-13867984D01*
X-15227675Y-13867984D02*
X-15208627Y-13858460D01*
X-15208627Y-13858460D02*
X-15199104Y-13839412D01*
X-15199104Y-13839412D02*
X-15199104Y-13829888D01*
X-15199104Y-13829888D02*
X-15208627Y-13810841D01*
X-15208627Y-13810841D02*
X-15227675Y-13801317D01*
X-15227675Y-13801317D02*
X-15256246Y-13801317D01*
X-15256246Y-13801317D02*
X-15275294Y-13791793D01*
X-15275294Y-13791793D02*
X-15284818Y-13772746D01*
X-15284818Y-13772746D02*
X-15284818Y-13763222D01*
X-15284818Y-13763222D02*
X-15275294Y-13744174D01*
X-15275294Y-13744174D02*
X-15256246Y-13734650D01*
X-15256246Y-13734650D02*
X-15227675Y-13734650D01*
X-15227675Y-13734650D02*
X-15208627Y-13744174D01*
X-15132437Y-13944174D02*
X-15122913Y-13934650D01*
X-15122913Y-13934650D02*
X-15103865Y-13906079D01*
X-15103865Y-13906079D02*
X-15094342Y-13887031D01*
X-15094342Y-13887031D02*
X-15084818Y-13858460D01*
X-15084818Y-13858460D02*
X-15075294Y-13810841D01*
X-15075294Y-13810841D02*
X-15075294Y-13772746D01*
X-15075294Y-13772746D02*
X-15084818Y-13725127D01*
X-15084818Y-13725127D02*
X-15094342Y-13696555D01*
X-15094342Y-13696555D02*
X-15103865Y-13677508D01*
X-15103865Y-13677508D02*
X-15122913Y-13648936D01*
X-15122913Y-13648936D02*
X-15132437Y-13639412D01*
D14*
X-20037500Y-13975500D02*
X-19907500Y-14105500D01*
X-19907500Y-13975500D02*
X-20037500Y-14105500D01*
X-19926538Y-14086462D02*
X-19926538Y-13994538D01*
X-20018462Y-13994538D01*
X-20018462Y-14086462D01*
X-19926538Y-14086462D01*
D11*
X-19541961Y-14131984D02*
X-19656247Y-14131984D01*
X-19599104Y-14131984D02*
X-19599104Y-13931984D01*
X-19599104Y-13931984D02*
X-19618152Y-13960555D01*
X-19618152Y-13960555D02*
X-19637199Y-13979603D01*
X-19637199Y-13979603D02*
X-19656247Y-13989127D01*
X-19456247Y-14112936D02*
X-19446723Y-14122460D01*
X-19446723Y-14122460D02*
X-19456247Y-14131984D01*
X-19456247Y-14131984D02*
X-19465771Y-14122460D01*
X-19465771Y-14122460D02*
X-19456247Y-14112936D01*
X-19456247Y-14112936D02*
X-19456247Y-14131984D01*
X-19380056Y-13931984D02*
X-19256247Y-13931984D01*
X-19256247Y-13931984D02*
X-19322914Y-14008174D01*
X-19322914Y-14008174D02*
X-19294342Y-14008174D01*
X-19294342Y-14008174D02*
X-19275295Y-14017698D01*
X-19275295Y-14017698D02*
X-19265771Y-14027222D01*
X-19265771Y-14027222D02*
X-19256247Y-14046269D01*
X-19256247Y-14046269D02*
X-19256247Y-14093888D01*
X-19256247Y-14093888D02*
X-19265771Y-14112936D01*
X-19265771Y-14112936D02*
X-19275295Y-14122460D01*
X-19275295Y-14122460D02*
X-19294342Y-14131984D01*
X-19294342Y-14131984D02*
X-19351485Y-14131984D01*
X-19351485Y-14131984D02*
X-19370533Y-14122460D01*
X-19370533Y-14122460D02*
X-19380056Y-14112936D01*
X-19132437Y-13931984D02*
X-19113390Y-13931984D01*
X-19113390Y-13931984D02*
X-19094342Y-13941508D01*
X-19094342Y-13941508D02*
X-19084818Y-13951031D01*
X-19084818Y-13951031D02*
X-19075295Y-13970079D01*
X-19075295Y-13970079D02*
X-19065771Y-14008174D01*
X-19065771Y-14008174D02*
X-19065771Y-14055793D01*
X-19065771Y-14055793D02*
X-19075295Y-14093888D01*
X-19075295Y-14093888D02*
X-19084818Y-14112936D01*
X-19084818Y-14112936D02*
X-19094342Y-14122460D01*
X-19094342Y-14122460D02*
X-19113390Y-14131984D01*
X-19113390Y-14131984D02*
X-19132437Y-14131984D01*
X-19132437Y-14131984D02*
X-19151485Y-14122460D01*
X-19151485Y-14122460D02*
X-19161009Y-14112936D01*
X-19161009Y-14112936D02*
X-19170533Y-14093888D01*
X-19170533Y-14093888D02*
X-19180056Y-14055793D01*
X-19180056Y-14055793D02*
X-19180056Y-14008174D01*
X-19180056Y-14008174D02*
X-19170533Y-13970079D01*
X-19170533Y-13970079D02*
X-19161009Y-13951031D01*
X-19161009Y-13951031D02*
X-19151485Y-13941508D01*
X-19151485Y-13941508D02*
X-19132437Y-13931984D01*
X-18941961Y-13931984D02*
X-18922914Y-13931984D01*
X-18922914Y-13931984D02*
X-18903866Y-13941508D01*
X-18903866Y-13941508D02*
X-18894342Y-13951031D01*
X-18894342Y-13951031D02*
X-18884818Y-13970079D01*
X-18884818Y-13970079D02*
X-18875295Y-14008174D01*
X-18875295Y-14008174D02*
X-18875295Y-14055793D01*
X-18875295Y-14055793D02*
X-18884818Y-14093888D01*
X-18884818Y-14093888D02*
X-18894342Y-14112936D01*
X-18894342Y-14112936D02*
X-18903866Y-14122460D01*
X-18903866Y-14122460D02*
X-18922914Y-14131984D01*
X-18922914Y-14131984D02*
X-18941961Y-14131984D01*
X-18941961Y-14131984D02*
X-18961009Y-14122460D01*
X-18961009Y-14122460D02*
X-18970533Y-14112936D01*
X-18970533Y-14112936D02*
X-18980056Y-14093888D01*
X-18980056Y-14093888D02*
X-18989580Y-14055793D01*
X-18989580Y-14055793D02*
X-18989580Y-14008174D01*
X-18989580Y-14008174D02*
X-18980056Y-13970079D01*
X-18980056Y-13970079D02*
X-18970533Y-13951031D01*
X-18970533Y-13951031D02*
X-18961009Y-13941508D01*
X-18961009Y-13941508D02*
X-18941961Y-13931984D01*
X-18789580Y-14131984D02*
X-18789580Y-13998650D01*
X-18789580Y-14017698D02*
X-18780056Y-14008174D01*
X-18780056Y-14008174D02*
X-18761009Y-13998650D01*
X-18761009Y-13998650D02*
X-18732437Y-13998650D01*
X-18732437Y-13998650D02*
X-18713390Y-14008174D01*
X-18713390Y-14008174D02*
X-18703866Y-14027222D01*
X-18703866Y-14027222D02*
X-18703866Y-14131984D01*
X-18703866Y-14027222D02*
X-18694342Y-14008174D01*
X-18694342Y-14008174D02*
X-18675295Y-13998650D01*
X-18675295Y-13998650D02*
X-18646723Y-13998650D01*
X-18646723Y-13998650D02*
X-18627675Y-14008174D01*
X-18627675Y-14008174D02*
X-18618152Y-14027222D01*
X-18618152Y-14027222D02*
X-18618152Y-14131984D01*
X-18522914Y-14131984D02*
X-18522914Y-13998650D01*
X-18522914Y-14017698D02*
X-18513390Y-14008174D01*
X-18513390Y-14008174D02*
X-18494342Y-13998650D01*
X-18494342Y-13998650D02*
X-18465771Y-13998650D01*
X-18465771Y-13998650D02*
X-18446723Y-14008174D01*
X-18446723Y-14008174D02*
X-18437199Y-14027222D01*
X-18437199Y-14027222D02*
X-18437199Y-14131984D01*
X-18437199Y-14027222D02*
X-18427675Y-14008174D01*
X-18427675Y-14008174D02*
X-18408628Y-13998650D01*
X-18408628Y-13998650D02*
X-18380056Y-13998650D01*
X-18380056Y-13998650D02*
X-18361009Y-14008174D01*
X-18361009Y-14008174D02*
X-18351485Y-14027222D01*
X-18351485Y-14027222D02*
X-18351485Y-14131984D01*
X-17961009Y-13922460D02*
X-18132437Y-14179603D01*
X-17703866Y-13931984D02*
X-17684818Y-13931984D01*
X-17684818Y-13931984D02*
X-17665771Y-13941508D01*
X-17665771Y-13941508D02*
X-17656247Y-13951031D01*
X-17656247Y-13951031D02*
X-17646723Y-13970079D01*
X-17646723Y-13970079D02*
X-17637199Y-14008174D01*
X-17637199Y-14008174D02*
X-17637199Y-14055793D01*
X-17637199Y-14055793D02*
X-17646723Y-14093888D01*
X-17646723Y-14093888D02*
X-17656247Y-14112936D01*
X-17656247Y-14112936D02*
X-17665771Y-14122460D01*
X-17665771Y-14122460D02*
X-17684818Y-14131984D01*
X-17684818Y-14131984D02*
X-17703866Y-14131984D01*
X-17703866Y-14131984D02*
X-17722913Y-14122460D01*
X-17722913Y-14122460D02*
X-17732437Y-14112936D01*
X-17732437Y-14112936D02*
X-17741961Y-14093888D01*
X-17741961Y-14093888D02*
X-17751485Y-14055793D01*
X-17751485Y-14055793D02*
X-17751485Y-14008174D01*
X-17751485Y-14008174D02*
X-17741961Y-13970079D01*
X-17741961Y-13970079D02*
X-17732437Y-13951031D01*
X-17732437Y-13951031D02*
X-17722913Y-13941508D01*
X-17722913Y-13941508D02*
X-17703866Y-13931984D01*
X-17551485Y-14112936D02*
X-17541961Y-14122460D01*
X-17541961Y-14122460D02*
X-17551485Y-14131984D01*
X-17551485Y-14131984D02*
X-17561009Y-14122460D01*
X-17561009Y-14122460D02*
X-17551485Y-14112936D01*
X-17551485Y-14112936D02*
X-17551485Y-14131984D01*
X-17418152Y-13931984D02*
X-17399104Y-13931984D01*
X-17399104Y-13931984D02*
X-17380056Y-13941508D01*
X-17380056Y-13941508D02*
X-17370532Y-13951031D01*
X-17370532Y-13951031D02*
X-17361009Y-13970079D01*
X-17361009Y-13970079D02*
X-17351485Y-14008174D01*
X-17351485Y-14008174D02*
X-17351485Y-14055793D01*
X-17351485Y-14055793D02*
X-17361009Y-14093888D01*
X-17361009Y-14093888D02*
X-17370532Y-14112936D01*
X-17370532Y-14112936D02*
X-17380056Y-14122460D01*
X-17380056Y-14122460D02*
X-17399104Y-14131984D01*
X-17399104Y-14131984D02*
X-17418152Y-14131984D01*
X-17418152Y-14131984D02*
X-17437199Y-14122460D01*
X-17437199Y-14122460D02*
X-17446723Y-14112936D01*
X-17446723Y-14112936D02*
X-17456247Y-14093888D01*
X-17456247Y-14093888D02*
X-17465771Y-14055793D01*
X-17465771Y-14055793D02*
X-17465771Y-14008174D01*
X-17465771Y-14008174D02*
X-17456247Y-13970079D01*
X-17456247Y-13970079D02*
X-17446723Y-13951031D01*
X-17446723Y-13951031D02*
X-17437199Y-13941508D01*
X-17437199Y-13941508D02*
X-17418152Y-13931984D01*
X-17170532Y-13931984D02*
X-17265771Y-13931984D01*
X-17265771Y-13931984D02*
X-17275294Y-14027222D01*
X-17275294Y-14027222D02*
X-17265771Y-14017698D01*
X-17265771Y-14017698D02*
X-17246723Y-14008174D01*
X-17246723Y-14008174D02*
X-17199104Y-14008174D01*
X-17199104Y-14008174D02*
X-17180056Y-14017698D01*
X-17180056Y-14017698D02*
X-17170532Y-14027222D01*
X-17170532Y-14027222D02*
X-17161009Y-14046269D01*
X-17161009Y-14046269D02*
X-17161009Y-14093888D01*
X-17161009Y-14093888D02*
X-17170532Y-14112936D01*
X-17170532Y-14112936D02*
X-17180056Y-14122460D01*
X-17180056Y-14122460D02*
X-17199104Y-14131984D01*
X-17199104Y-14131984D02*
X-17246723Y-14131984D01*
X-17246723Y-14131984D02*
X-17265771Y-14122460D01*
X-17265771Y-14122460D02*
X-17275294Y-14112936D01*
X-16970532Y-14131984D02*
X-17084818Y-14131984D01*
X-17027675Y-14131984D02*
X-17027675Y-13931984D01*
X-17027675Y-13931984D02*
X-17046723Y-13960555D01*
X-17046723Y-13960555D02*
X-17065771Y-13979603D01*
X-17065771Y-13979603D02*
X-17084818Y-13989127D01*
X-16894342Y-13951031D02*
X-16884818Y-13941508D01*
X-16884818Y-13941508D02*
X-16865771Y-13931984D01*
X-16865771Y-13931984D02*
X-16818151Y-13931984D01*
X-16818151Y-13931984D02*
X-16799104Y-13941508D01*
X-16799104Y-13941508D02*
X-16789580Y-13951031D01*
X-16789580Y-13951031D02*
X-16780056Y-13970079D01*
X-16780056Y-13970079D02*
X-16780056Y-13989127D01*
X-16780056Y-13989127D02*
X-16789580Y-14017698D01*
X-16789580Y-14017698D02*
X-16903866Y-14131984D01*
X-16903866Y-14131984D02*
X-16780056Y-14131984D01*
X-16703866Y-13931984D02*
X-16703866Y-13970079D01*
X-16627675Y-13931984D02*
X-16627675Y-13970079D01*
X-16332437Y-14208174D02*
X-16341961Y-14198650D01*
X-16341961Y-14198650D02*
X-16361008Y-14170079D01*
X-16361008Y-14170079D02*
X-16370532Y-14151031D01*
X-16370532Y-14151031D02*
X-16380056Y-14122460D01*
X-16380056Y-14122460D02*
X-16389580Y-14074841D01*
X-16389580Y-14074841D02*
X-16389580Y-14036746D01*
X-16389580Y-14036746D02*
X-16380056Y-13989127D01*
X-16380056Y-13989127D02*
X-16370532Y-13960555D01*
X-16370532Y-13960555D02*
X-16361008Y-13941508D01*
X-16361008Y-13941508D02*
X-16341961Y-13912936D01*
X-16341961Y-13912936D02*
X-16332437Y-13903412D01*
X-16170532Y-13998650D02*
X-16170532Y-14131984D01*
X-16218151Y-13922460D02*
X-16265770Y-14065317D01*
X-16265770Y-14065317D02*
X-16141961Y-14065317D01*
X-15913389Y-14131984D02*
X-15913389Y-13931984D01*
X-15827675Y-14131984D02*
X-15827675Y-14027222D01*
X-15827675Y-14027222D02*
X-15837199Y-14008174D01*
X-15837199Y-14008174D02*
X-15856246Y-13998650D01*
X-15856246Y-13998650D02*
X-15884818Y-13998650D01*
X-15884818Y-13998650D02*
X-15903866Y-14008174D01*
X-15903866Y-14008174D02*
X-15913389Y-14017698D01*
X-15703866Y-14131984D02*
X-15722913Y-14122460D01*
X-15722913Y-14122460D02*
X-15732437Y-14112936D01*
X-15732437Y-14112936D02*
X-15741961Y-14093888D01*
X-15741961Y-14093888D02*
X-15741961Y-14036746D01*
X-15741961Y-14036746D02*
X-15732437Y-14017698D01*
X-15732437Y-14017698D02*
X-15722913Y-14008174D01*
X-15722913Y-14008174D02*
X-15703866Y-13998650D01*
X-15703866Y-13998650D02*
X-15675294Y-13998650D01*
X-15675294Y-13998650D02*
X-15656246Y-14008174D01*
X-15656246Y-14008174D02*
X-15646723Y-14017698D01*
X-15646723Y-14017698D02*
X-15637199Y-14036746D01*
X-15637199Y-14036746D02*
X-15637199Y-14093888D01*
X-15637199Y-14093888D02*
X-15646723Y-14112936D01*
X-15646723Y-14112936D02*
X-15656246Y-14122460D01*
X-15656246Y-14122460D02*
X-15675294Y-14131984D01*
X-15675294Y-14131984D02*
X-15703866Y-14131984D01*
X-15522913Y-14131984D02*
X-15541961Y-14122460D01*
X-15541961Y-14122460D02*
X-15551485Y-14103412D01*
X-15551485Y-14103412D02*
X-15551485Y-13931984D01*
X-15370532Y-14122460D02*
X-15389580Y-14131984D01*
X-15389580Y-14131984D02*
X-15427675Y-14131984D01*
X-15427675Y-14131984D02*
X-15446723Y-14122460D01*
X-15446723Y-14122460D02*
X-15456246Y-14103412D01*
X-15456246Y-14103412D02*
X-15456246Y-14027222D01*
X-15456246Y-14027222D02*
X-15446723Y-14008174D01*
X-15446723Y-14008174D02*
X-15427675Y-13998650D01*
X-15427675Y-13998650D02*
X-15389580Y-13998650D01*
X-15389580Y-13998650D02*
X-15370532Y-14008174D01*
X-15370532Y-14008174D02*
X-15361008Y-14027222D01*
X-15361008Y-14027222D02*
X-15361008Y-14046269D01*
X-15361008Y-14046269D02*
X-15456246Y-14065317D01*
X-15284818Y-14122460D02*
X-15265770Y-14131984D01*
X-15265770Y-14131984D02*
X-15227675Y-14131984D01*
X-15227675Y-14131984D02*
X-15208627Y-14122460D01*
X-15208627Y-14122460D02*
X-15199104Y-14103412D01*
X-15199104Y-14103412D02*
X-15199104Y-14093888D01*
X-15199104Y-14093888D02*
X-15208627Y-14074841D01*
X-15208627Y-14074841D02*
X-15227675Y-14065317D01*
X-15227675Y-14065317D02*
X-15256246Y-14065317D01*
X-15256246Y-14065317D02*
X-15275294Y-14055793D01*
X-15275294Y-14055793D02*
X-15284818Y-14036746D01*
X-15284818Y-14036746D02*
X-15284818Y-14027222D01*
X-15284818Y-14027222D02*
X-15275294Y-14008174D01*
X-15275294Y-14008174D02*
X-15256246Y-13998650D01*
X-15256246Y-13998650D02*
X-15227675Y-13998650D01*
X-15227675Y-13998650D02*
X-15208627Y-14008174D01*
X-15132437Y-14208174D02*
X-15122913Y-14198650D01*
X-15122913Y-14198650D02*
X-15103865Y-14170079D01*
X-15103865Y-14170079D02*
X-15094342Y-14151031D01*
X-15094342Y-14151031D02*
X-15084818Y-14122460D01*
X-15084818Y-14122460D02*
X-15075294Y-14074841D01*
X-15075294Y-14074841D02*
X-15075294Y-14036746D01*
X-15075294Y-14036746D02*
X-15084818Y-13989127D01*
X-15084818Y-13989127D02*
X-15094342Y-13960555D01*
X-15094342Y-13960555D02*
X-15103865Y-13941508D01*
X-15103865Y-13941508D02*
X-15122913Y-13912936D01*
X-15122913Y-13912936D02*
X-15132437Y-13903412D01*
D15*
X-20067500Y-14224500D02*
X-19907500Y-14384500D01*
X-19907500Y-14224500D02*
X-20067500Y-14384500D01*
X-19987500Y-14384500D02*
X-19907500Y-14304500D01*
X-19987500Y-14224500D01*
X-20067500Y-14304500D01*
X-19987500Y-14384500D01*
D11*
X-19541961Y-14395984D02*
X-19656247Y-14395984D01*
X-19599104Y-14395984D02*
X-19599104Y-14195984D01*
X-19599104Y-14195984D02*
X-19618152Y-14224555D01*
X-19618152Y-14224555D02*
X-19637199Y-14243603D01*
X-19637199Y-14243603D02*
X-19656247Y-14253127D01*
X-19456247Y-14376936D02*
X-19446723Y-14386460D01*
X-19446723Y-14386460D02*
X-19456247Y-14395984D01*
X-19456247Y-14395984D02*
X-19465771Y-14386460D01*
X-19465771Y-14386460D02*
X-19456247Y-14376936D01*
X-19456247Y-14376936D02*
X-19456247Y-14395984D01*
X-19275295Y-14195984D02*
X-19313390Y-14195984D01*
X-19313390Y-14195984D02*
X-19332437Y-14205508D01*
X-19332437Y-14205508D02*
X-19341961Y-14215031D01*
X-19341961Y-14215031D02*
X-19361009Y-14243603D01*
X-19361009Y-14243603D02*
X-19370533Y-14281698D01*
X-19370533Y-14281698D02*
X-19370533Y-14357888D01*
X-19370533Y-14357888D02*
X-19361009Y-14376936D01*
X-19361009Y-14376936D02*
X-19351485Y-14386460D01*
X-19351485Y-14386460D02*
X-19332437Y-14395984D01*
X-19332437Y-14395984D02*
X-19294342Y-14395984D01*
X-19294342Y-14395984D02*
X-19275295Y-14386460D01*
X-19275295Y-14386460D02*
X-19265771Y-14376936D01*
X-19265771Y-14376936D02*
X-19256247Y-14357888D01*
X-19256247Y-14357888D02*
X-19256247Y-14310269D01*
X-19256247Y-14310269D02*
X-19265771Y-14291222D01*
X-19265771Y-14291222D02*
X-19275295Y-14281698D01*
X-19275295Y-14281698D02*
X-19294342Y-14272174D01*
X-19294342Y-14272174D02*
X-19332437Y-14272174D01*
X-19332437Y-14272174D02*
X-19351485Y-14281698D01*
X-19351485Y-14281698D02*
X-19361009Y-14291222D01*
X-19361009Y-14291222D02*
X-19370533Y-14310269D01*
X-19132437Y-14195984D02*
X-19113390Y-14195984D01*
X-19113390Y-14195984D02*
X-19094342Y-14205508D01*
X-19094342Y-14205508D02*
X-19084818Y-14215031D01*
X-19084818Y-14215031D02*
X-19075295Y-14234079D01*
X-19075295Y-14234079D02*
X-19065771Y-14272174D01*
X-19065771Y-14272174D02*
X-19065771Y-14319793D01*
X-19065771Y-14319793D02*
X-19075295Y-14357888D01*
X-19075295Y-14357888D02*
X-19084818Y-14376936D01*
X-19084818Y-14376936D02*
X-19094342Y-14386460D01*
X-19094342Y-14386460D02*
X-19113390Y-14395984D01*
X-19113390Y-14395984D02*
X-19132437Y-14395984D01*
X-19132437Y-14395984D02*
X-19151485Y-14386460D01*
X-19151485Y-14386460D02*
X-19161009Y-14376936D01*
X-19161009Y-14376936D02*
X-19170533Y-14357888D01*
X-19170533Y-14357888D02*
X-19180056Y-14319793D01*
X-19180056Y-14319793D02*
X-19180056Y-14272174D01*
X-19180056Y-14272174D02*
X-19170533Y-14234079D01*
X-19170533Y-14234079D02*
X-19161009Y-14215031D01*
X-19161009Y-14215031D02*
X-19151485Y-14205508D01*
X-19151485Y-14205508D02*
X-19132437Y-14195984D01*
X-18941961Y-14195984D02*
X-18922914Y-14195984D01*
X-18922914Y-14195984D02*
X-18903866Y-14205508D01*
X-18903866Y-14205508D02*
X-18894342Y-14215031D01*
X-18894342Y-14215031D02*
X-18884818Y-14234079D01*
X-18884818Y-14234079D02*
X-18875295Y-14272174D01*
X-18875295Y-14272174D02*
X-18875295Y-14319793D01*
X-18875295Y-14319793D02*
X-18884818Y-14357888D01*
X-18884818Y-14357888D02*
X-18894342Y-14376936D01*
X-18894342Y-14376936D02*
X-18903866Y-14386460D01*
X-18903866Y-14386460D02*
X-18922914Y-14395984D01*
X-18922914Y-14395984D02*
X-18941961Y-14395984D01*
X-18941961Y-14395984D02*
X-18961009Y-14386460D01*
X-18961009Y-14386460D02*
X-18970533Y-14376936D01*
X-18970533Y-14376936D02*
X-18980056Y-14357888D01*
X-18980056Y-14357888D02*
X-18989580Y-14319793D01*
X-18989580Y-14319793D02*
X-18989580Y-14272174D01*
X-18989580Y-14272174D02*
X-18980056Y-14234079D01*
X-18980056Y-14234079D02*
X-18970533Y-14215031D01*
X-18970533Y-14215031D02*
X-18961009Y-14205508D01*
X-18961009Y-14205508D02*
X-18941961Y-14195984D01*
X-18789580Y-14395984D02*
X-18789580Y-14262650D01*
X-18789580Y-14281698D02*
X-18780056Y-14272174D01*
X-18780056Y-14272174D02*
X-18761009Y-14262650D01*
X-18761009Y-14262650D02*
X-18732437Y-14262650D01*
X-18732437Y-14262650D02*
X-18713390Y-14272174D01*
X-18713390Y-14272174D02*
X-18703866Y-14291222D01*
X-18703866Y-14291222D02*
X-18703866Y-14395984D01*
X-18703866Y-14291222D02*
X-18694342Y-14272174D01*
X-18694342Y-14272174D02*
X-18675295Y-14262650D01*
X-18675295Y-14262650D02*
X-18646723Y-14262650D01*
X-18646723Y-14262650D02*
X-18627675Y-14272174D01*
X-18627675Y-14272174D02*
X-18618152Y-14291222D01*
X-18618152Y-14291222D02*
X-18618152Y-14395984D01*
X-18522914Y-14395984D02*
X-18522914Y-14262650D01*
X-18522914Y-14281698D02*
X-18513390Y-14272174D01*
X-18513390Y-14272174D02*
X-18494342Y-14262650D01*
X-18494342Y-14262650D02*
X-18465771Y-14262650D01*
X-18465771Y-14262650D02*
X-18446723Y-14272174D01*
X-18446723Y-14272174D02*
X-18437199Y-14291222D01*
X-18437199Y-14291222D02*
X-18437199Y-14395984D01*
X-18437199Y-14291222D02*
X-18427675Y-14272174D01*
X-18427675Y-14272174D02*
X-18408628Y-14262650D01*
X-18408628Y-14262650D02*
X-18380056Y-14262650D01*
X-18380056Y-14262650D02*
X-18361009Y-14272174D01*
X-18361009Y-14272174D02*
X-18351485Y-14291222D01*
X-18351485Y-14291222D02*
X-18351485Y-14395984D01*
X-17961009Y-14186460D02*
X-18132437Y-14443603D01*
X-17703866Y-14195984D02*
X-17684818Y-14195984D01*
X-17684818Y-14195984D02*
X-17665771Y-14205508D01*
X-17665771Y-14205508D02*
X-17656247Y-14215031D01*
X-17656247Y-14215031D02*
X-17646723Y-14234079D01*
X-17646723Y-14234079D02*
X-17637199Y-14272174D01*
X-17637199Y-14272174D02*
X-17637199Y-14319793D01*
X-17637199Y-14319793D02*
X-17646723Y-14357888D01*
X-17646723Y-14357888D02*
X-17656247Y-14376936D01*
X-17656247Y-14376936D02*
X-17665771Y-14386460D01*
X-17665771Y-14386460D02*
X-17684818Y-14395984D01*
X-17684818Y-14395984D02*
X-17703866Y-14395984D01*
X-17703866Y-14395984D02*
X-17722913Y-14386460D01*
X-17722913Y-14386460D02*
X-17732437Y-14376936D01*
X-17732437Y-14376936D02*
X-17741961Y-14357888D01*
X-17741961Y-14357888D02*
X-17751485Y-14319793D01*
X-17751485Y-14319793D02*
X-17751485Y-14272174D01*
X-17751485Y-14272174D02*
X-17741961Y-14234079D01*
X-17741961Y-14234079D02*
X-17732437Y-14215031D01*
X-17732437Y-14215031D02*
X-17722913Y-14205508D01*
X-17722913Y-14205508D02*
X-17703866Y-14195984D01*
X-17551485Y-14376936D02*
X-17541961Y-14386460D01*
X-17541961Y-14386460D02*
X-17551485Y-14395984D01*
X-17551485Y-14395984D02*
X-17561009Y-14386460D01*
X-17561009Y-14386460D02*
X-17551485Y-14376936D01*
X-17551485Y-14376936D02*
X-17551485Y-14395984D01*
X-17418152Y-14195984D02*
X-17399104Y-14195984D01*
X-17399104Y-14195984D02*
X-17380056Y-14205508D01*
X-17380056Y-14205508D02*
X-17370532Y-14215031D01*
X-17370532Y-14215031D02*
X-17361009Y-14234079D01*
X-17361009Y-14234079D02*
X-17351485Y-14272174D01*
X-17351485Y-14272174D02*
X-17351485Y-14319793D01*
X-17351485Y-14319793D02*
X-17361009Y-14357888D01*
X-17361009Y-14357888D02*
X-17370532Y-14376936D01*
X-17370532Y-14376936D02*
X-17380056Y-14386460D01*
X-17380056Y-14386460D02*
X-17399104Y-14395984D01*
X-17399104Y-14395984D02*
X-17418152Y-14395984D01*
X-17418152Y-14395984D02*
X-17437199Y-14386460D01*
X-17437199Y-14386460D02*
X-17446723Y-14376936D01*
X-17446723Y-14376936D02*
X-17456247Y-14357888D01*
X-17456247Y-14357888D02*
X-17465771Y-14319793D01*
X-17465771Y-14319793D02*
X-17465771Y-14272174D01*
X-17465771Y-14272174D02*
X-17456247Y-14234079D01*
X-17456247Y-14234079D02*
X-17446723Y-14215031D01*
X-17446723Y-14215031D02*
X-17437199Y-14205508D01*
X-17437199Y-14205508D02*
X-17418152Y-14195984D01*
X-17180056Y-14195984D02*
X-17218152Y-14195984D01*
X-17218152Y-14195984D02*
X-17237199Y-14205508D01*
X-17237199Y-14205508D02*
X-17246723Y-14215031D01*
X-17246723Y-14215031D02*
X-17265771Y-14243603D01*
X-17265771Y-14243603D02*
X-17275294Y-14281698D01*
X-17275294Y-14281698D02*
X-17275294Y-14357888D01*
X-17275294Y-14357888D02*
X-17265771Y-14376936D01*
X-17265771Y-14376936D02*
X-17256247Y-14386460D01*
X-17256247Y-14386460D02*
X-17237199Y-14395984D01*
X-17237199Y-14395984D02*
X-17199104Y-14395984D01*
X-17199104Y-14395984D02*
X-17180056Y-14386460D01*
X-17180056Y-14386460D02*
X-17170532Y-14376936D01*
X-17170532Y-14376936D02*
X-17161009Y-14357888D01*
X-17161009Y-14357888D02*
X-17161009Y-14310269D01*
X-17161009Y-14310269D02*
X-17170532Y-14291222D01*
X-17170532Y-14291222D02*
X-17180056Y-14281698D01*
X-17180056Y-14281698D02*
X-17199104Y-14272174D01*
X-17199104Y-14272174D02*
X-17237199Y-14272174D01*
X-17237199Y-14272174D02*
X-17256247Y-14281698D01*
X-17256247Y-14281698D02*
X-17265771Y-14291222D01*
X-17265771Y-14291222D02*
X-17275294Y-14310269D01*
X-17094342Y-14195984D02*
X-16970532Y-14195984D01*
X-16970532Y-14195984D02*
X-17037199Y-14272174D01*
X-17037199Y-14272174D02*
X-17008628Y-14272174D01*
X-17008628Y-14272174D02*
X-16989580Y-14281698D01*
X-16989580Y-14281698D02*
X-16980056Y-14291222D01*
X-16980056Y-14291222D02*
X-16970532Y-14310269D01*
X-16970532Y-14310269D02*
X-16970532Y-14357888D01*
X-16970532Y-14357888D02*
X-16980056Y-14376936D01*
X-16980056Y-14376936D02*
X-16989580Y-14386460D01*
X-16989580Y-14386460D02*
X-17008628Y-14395984D01*
X-17008628Y-14395984D02*
X-17065771Y-14395984D01*
X-17065771Y-14395984D02*
X-17084818Y-14386460D01*
X-17084818Y-14386460D02*
X-17094342Y-14376936D01*
X-16846723Y-14195984D02*
X-16827675Y-14195984D01*
X-16827675Y-14195984D02*
X-16808628Y-14205508D01*
X-16808628Y-14205508D02*
X-16799104Y-14215031D01*
X-16799104Y-14215031D02*
X-16789580Y-14234079D01*
X-16789580Y-14234079D02*
X-16780056Y-14272174D01*
X-16780056Y-14272174D02*
X-16780056Y-14319793D01*
X-16780056Y-14319793D02*
X-16789580Y-14357888D01*
X-16789580Y-14357888D02*
X-16799104Y-14376936D01*
X-16799104Y-14376936D02*
X-16808628Y-14386460D01*
X-16808628Y-14386460D02*
X-16827675Y-14395984D01*
X-16827675Y-14395984D02*
X-16846723Y-14395984D01*
X-16846723Y-14395984D02*
X-16865771Y-14386460D01*
X-16865771Y-14386460D02*
X-16875294Y-14376936D01*
X-16875294Y-14376936D02*
X-16884818Y-14357888D01*
X-16884818Y-14357888D02*
X-16894342Y-14319793D01*
X-16894342Y-14319793D02*
X-16894342Y-14272174D01*
X-16894342Y-14272174D02*
X-16884818Y-14234079D01*
X-16884818Y-14234079D02*
X-16875294Y-14215031D01*
X-16875294Y-14215031D02*
X-16865771Y-14205508D01*
X-16865771Y-14205508D02*
X-16846723Y-14195984D01*
X-16703866Y-14195984D02*
X-16703866Y-14234079D01*
X-16627675Y-14195984D02*
X-16627675Y-14234079D01*
X-16332437Y-14472174D02*
X-16341961Y-14462650D01*
X-16341961Y-14462650D02*
X-16361008Y-14434079D01*
X-16361008Y-14434079D02*
X-16370532Y-14415031D01*
X-16370532Y-14415031D02*
X-16380056Y-14386460D01*
X-16380056Y-14386460D02*
X-16389580Y-14338841D01*
X-16389580Y-14338841D02*
X-16389580Y-14300746D01*
X-16389580Y-14300746D02*
X-16380056Y-14253127D01*
X-16380056Y-14253127D02*
X-16370532Y-14224555D01*
X-16370532Y-14224555D02*
X-16361008Y-14205508D01*
X-16361008Y-14205508D02*
X-16341961Y-14176936D01*
X-16341961Y-14176936D02*
X-16332437Y-14167412D01*
X-16170532Y-14195984D02*
X-16208628Y-14195984D01*
X-16208628Y-14195984D02*
X-16227675Y-14205508D01*
X-16227675Y-14205508D02*
X-16237199Y-14215031D01*
X-16237199Y-14215031D02*
X-16256247Y-14243603D01*
X-16256247Y-14243603D02*
X-16265770Y-14281698D01*
X-16265770Y-14281698D02*
X-16265770Y-14357888D01*
X-16265770Y-14357888D02*
X-16256247Y-14376936D01*
X-16256247Y-14376936D02*
X-16246723Y-14386460D01*
X-16246723Y-14386460D02*
X-16227675Y-14395984D01*
X-16227675Y-14395984D02*
X-16189580Y-14395984D01*
X-16189580Y-14395984D02*
X-16170532Y-14386460D01*
X-16170532Y-14386460D02*
X-16161008Y-14376936D01*
X-16161008Y-14376936D02*
X-16151485Y-14357888D01*
X-16151485Y-14357888D02*
X-16151485Y-14310269D01*
X-16151485Y-14310269D02*
X-16161008Y-14291222D01*
X-16161008Y-14291222D02*
X-16170532Y-14281698D01*
X-16170532Y-14281698D02*
X-16189580Y-14272174D01*
X-16189580Y-14272174D02*
X-16227675Y-14272174D01*
X-16227675Y-14272174D02*
X-16246723Y-14281698D01*
X-16246723Y-14281698D02*
X-16256247Y-14291222D01*
X-16256247Y-14291222D02*
X-16265770Y-14310269D01*
X-15913389Y-14395984D02*
X-15913389Y-14195984D01*
X-15827675Y-14395984D02*
X-15827675Y-14291222D01*
X-15827675Y-14291222D02*
X-15837199Y-14272174D01*
X-15837199Y-14272174D02*
X-15856246Y-14262650D01*
X-15856246Y-14262650D02*
X-15884818Y-14262650D01*
X-15884818Y-14262650D02*
X-15903866Y-14272174D01*
X-15903866Y-14272174D02*
X-15913389Y-14281698D01*
X-15703866Y-14395984D02*
X-15722913Y-14386460D01*
X-15722913Y-14386460D02*
X-15732437Y-14376936D01*
X-15732437Y-14376936D02*
X-15741961Y-14357888D01*
X-15741961Y-14357888D02*
X-15741961Y-14300746D01*
X-15741961Y-14300746D02*
X-15732437Y-14281698D01*
X-15732437Y-14281698D02*
X-15722913Y-14272174D01*
X-15722913Y-14272174D02*
X-15703866Y-14262650D01*
X-15703866Y-14262650D02*
X-15675294Y-14262650D01*
X-15675294Y-14262650D02*
X-15656246Y-14272174D01*
X-15656246Y-14272174D02*
X-15646723Y-14281698D01*
X-15646723Y-14281698D02*
X-15637199Y-14300746D01*
X-15637199Y-14300746D02*
X-15637199Y-14357888D01*
X-15637199Y-14357888D02*
X-15646723Y-14376936D01*
X-15646723Y-14376936D02*
X-15656246Y-14386460D01*
X-15656246Y-14386460D02*
X-15675294Y-14395984D01*
X-15675294Y-14395984D02*
X-15703866Y-14395984D01*
X-15522913Y-14395984D02*
X-15541961Y-14386460D01*
X-15541961Y-14386460D02*
X-15551485Y-14367412D01*
X-15551485Y-14367412D02*
X-15551485Y-14195984D01*
X-15370532Y-14386460D02*
X-15389580Y-14395984D01*
X-15389580Y-14395984D02*
X-15427675Y-14395984D01*
X-15427675Y-14395984D02*
X-15446723Y-14386460D01*
X-15446723Y-14386460D02*
X-15456246Y-14367412D01*
X-15456246Y-14367412D02*
X-15456246Y-14291222D01*
X-15456246Y-14291222D02*
X-15446723Y-14272174D01*
X-15446723Y-14272174D02*
X-15427675Y-14262650D01*
X-15427675Y-14262650D02*
X-15389580Y-14262650D01*
X-15389580Y-14262650D02*
X-15370532Y-14272174D01*
X-15370532Y-14272174D02*
X-15361008Y-14291222D01*
X-15361008Y-14291222D02*
X-15361008Y-14310269D01*
X-15361008Y-14310269D02*
X-15456246Y-14329317D01*
X-15284818Y-14386460D02*
X-15265770Y-14395984D01*
X-15265770Y-14395984D02*
X-15227675Y-14395984D01*
X-15227675Y-14395984D02*
X-15208627Y-14386460D01*
X-15208627Y-14386460D02*
X-15199104Y-14367412D01*
X-15199104Y-14367412D02*
X-15199104Y-14357888D01*
X-15199104Y-14357888D02*
X-15208627Y-14338841D01*
X-15208627Y-14338841D02*
X-15227675Y-14329317D01*
X-15227675Y-14329317D02*
X-15256246Y-14329317D01*
X-15256246Y-14329317D02*
X-15275294Y-14319793D01*
X-15275294Y-14319793D02*
X-15284818Y-14300746D01*
X-15284818Y-14300746D02*
X-15284818Y-14291222D01*
X-15284818Y-14291222D02*
X-15275294Y-14272174D01*
X-15275294Y-14272174D02*
X-15256246Y-14262650D01*
X-15256246Y-14262650D02*
X-15227675Y-14262650D01*
X-15227675Y-14262650D02*
X-15208627Y-14272174D01*
X-15132437Y-14472174D02*
X-15122913Y-14462650D01*
X-15122913Y-14462650D02*
X-15103865Y-14434079D01*
X-15103865Y-14434079D02*
X-15094342Y-14415031D01*
X-15094342Y-14415031D02*
X-15084818Y-14386460D01*
X-15084818Y-14386460D02*
X-15075294Y-14338841D01*
X-15075294Y-14338841D02*
X-15075294Y-14300746D01*
X-15075294Y-14300746D02*
X-15084818Y-14253127D01*
X-15084818Y-14253127D02*
X-15094342Y-14224555D01*
X-15094342Y-14224555D02*
X-15103865Y-14205508D01*
X-15103865Y-14205508D02*
X-15122913Y-14176936D01*
X-15122913Y-14176936D02*
X-15132437Y-14167412D01*
X-20007500Y-14484500D02*
X-20007500Y-14684500D01*
X-20107500Y-14584500D02*
X-19907500Y-14584500D01*
X-19907500Y-14584500D02*
G75*
G02*
X-20107500Y-14584500I-100000J0D01*
G01*
X-20107500Y-14584500D02*
G75*
G02*
X-19907500Y-14584500I100000J0D01*
G01*
X-19665771Y-14475984D02*
X-19541961Y-14475984D01*
X-19541961Y-14475984D02*
X-19608628Y-14552174D01*
X-19608628Y-14552174D02*
X-19580056Y-14552174D01*
X-19580056Y-14552174D02*
X-19561009Y-14561698D01*
X-19561009Y-14561698D02*
X-19551485Y-14571222D01*
X-19551485Y-14571222D02*
X-19541961Y-14590269D01*
X-19541961Y-14590269D02*
X-19541961Y-14637888D01*
X-19541961Y-14637888D02*
X-19551485Y-14656936D01*
X-19551485Y-14656936D02*
X-19561009Y-14666460D01*
X-19561009Y-14666460D02*
X-19580056Y-14675984D01*
X-19580056Y-14675984D02*
X-19637199Y-14675984D01*
X-19637199Y-14675984D02*
X-19656247Y-14666460D01*
X-19656247Y-14666460D02*
X-19665771Y-14656936D01*
X-19456247Y-14656936D02*
X-19446723Y-14666460D01*
X-19446723Y-14666460D02*
X-19456247Y-14675984D01*
X-19456247Y-14675984D02*
X-19465771Y-14666460D01*
X-19465771Y-14666460D02*
X-19456247Y-14656936D01*
X-19456247Y-14656936D02*
X-19456247Y-14675984D01*
X-19370533Y-14495031D02*
X-19361009Y-14485508D01*
X-19361009Y-14485508D02*
X-19341961Y-14475984D01*
X-19341961Y-14475984D02*
X-19294342Y-14475984D01*
X-19294342Y-14475984D02*
X-19275295Y-14485508D01*
X-19275295Y-14485508D02*
X-19265771Y-14495031D01*
X-19265771Y-14495031D02*
X-19256247Y-14514079D01*
X-19256247Y-14514079D02*
X-19256247Y-14533127D01*
X-19256247Y-14533127D02*
X-19265771Y-14561698D01*
X-19265771Y-14561698D02*
X-19380056Y-14675984D01*
X-19380056Y-14675984D02*
X-19256247Y-14675984D01*
X-19132437Y-14475984D02*
X-19113390Y-14475984D01*
X-19113390Y-14475984D02*
X-19094342Y-14485508D01*
X-19094342Y-14485508D02*
X-19084818Y-14495031D01*
X-19084818Y-14495031D02*
X-19075295Y-14514079D01*
X-19075295Y-14514079D02*
X-19065771Y-14552174D01*
X-19065771Y-14552174D02*
X-19065771Y-14599793D01*
X-19065771Y-14599793D02*
X-19075295Y-14637888D01*
X-19075295Y-14637888D02*
X-19084818Y-14656936D01*
X-19084818Y-14656936D02*
X-19094342Y-14666460D01*
X-19094342Y-14666460D02*
X-19113390Y-14675984D01*
X-19113390Y-14675984D02*
X-19132437Y-14675984D01*
X-19132437Y-14675984D02*
X-19151485Y-14666460D01*
X-19151485Y-14666460D02*
X-19161009Y-14656936D01*
X-19161009Y-14656936D02*
X-19170533Y-14637888D01*
X-19170533Y-14637888D02*
X-19180056Y-14599793D01*
X-19180056Y-14599793D02*
X-19180056Y-14552174D01*
X-19180056Y-14552174D02*
X-19170533Y-14514079D01*
X-19170533Y-14514079D02*
X-19161009Y-14495031D01*
X-19161009Y-14495031D02*
X-19151485Y-14485508D01*
X-19151485Y-14485508D02*
X-19132437Y-14475984D01*
X-18941961Y-14475984D02*
X-18922914Y-14475984D01*
X-18922914Y-14475984D02*
X-18903866Y-14485508D01*
X-18903866Y-14485508D02*
X-18894342Y-14495031D01*
X-18894342Y-14495031D02*
X-18884818Y-14514079D01*
X-18884818Y-14514079D02*
X-18875295Y-14552174D01*
X-18875295Y-14552174D02*
X-18875295Y-14599793D01*
X-18875295Y-14599793D02*
X-18884818Y-14637888D01*
X-18884818Y-14637888D02*
X-18894342Y-14656936D01*
X-18894342Y-14656936D02*
X-18903866Y-14666460D01*
X-18903866Y-14666460D02*
X-18922914Y-14675984D01*
X-18922914Y-14675984D02*
X-18941961Y-14675984D01*
X-18941961Y-14675984D02*
X-18961009Y-14666460D01*
X-18961009Y-14666460D02*
X-18970533Y-14656936D01*
X-18970533Y-14656936D02*
X-18980056Y-14637888D01*
X-18980056Y-14637888D02*
X-18989580Y-14599793D01*
X-18989580Y-14599793D02*
X-18989580Y-14552174D01*
X-18989580Y-14552174D02*
X-18980056Y-14514079D01*
X-18980056Y-14514079D02*
X-18970533Y-14495031D01*
X-18970533Y-14495031D02*
X-18961009Y-14485508D01*
X-18961009Y-14485508D02*
X-18941961Y-14475984D01*
X-18789580Y-14675984D02*
X-18789580Y-14542650D01*
X-18789580Y-14561698D02*
X-18780056Y-14552174D01*
X-18780056Y-14552174D02*
X-18761009Y-14542650D01*
X-18761009Y-14542650D02*
X-18732437Y-14542650D01*
X-18732437Y-14542650D02*
X-18713390Y-14552174D01*
X-18713390Y-14552174D02*
X-18703866Y-14571222D01*
X-18703866Y-14571222D02*
X-18703866Y-14675984D01*
X-18703866Y-14571222D02*
X-18694342Y-14552174D01*
X-18694342Y-14552174D02*
X-18675295Y-14542650D01*
X-18675295Y-14542650D02*
X-18646723Y-14542650D01*
X-18646723Y-14542650D02*
X-18627675Y-14552174D01*
X-18627675Y-14552174D02*
X-18618152Y-14571222D01*
X-18618152Y-14571222D02*
X-18618152Y-14675984D01*
X-18522914Y-14675984D02*
X-18522914Y-14542650D01*
X-18522914Y-14561698D02*
X-18513390Y-14552174D01*
X-18513390Y-14552174D02*
X-18494342Y-14542650D01*
X-18494342Y-14542650D02*
X-18465771Y-14542650D01*
X-18465771Y-14542650D02*
X-18446723Y-14552174D01*
X-18446723Y-14552174D02*
X-18437199Y-14571222D01*
X-18437199Y-14571222D02*
X-18437199Y-14675984D01*
X-18437199Y-14571222D02*
X-18427675Y-14552174D01*
X-18427675Y-14552174D02*
X-18408628Y-14542650D01*
X-18408628Y-14542650D02*
X-18380056Y-14542650D01*
X-18380056Y-14542650D02*
X-18361009Y-14552174D01*
X-18361009Y-14552174D02*
X-18351485Y-14571222D01*
X-18351485Y-14571222D02*
X-18351485Y-14675984D01*
X-17961009Y-14466460D02*
X-18132437Y-14723603D01*
X-17703866Y-14475984D02*
X-17684818Y-14475984D01*
X-17684818Y-14475984D02*
X-17665771Y-14485508D01*
X-17665771Y-14485508D02*
X-17656247Y-14495031D01*
X-17656247Y-14495031D02*
X-17646723Y-14514079D01*
X-17646723Y-14514079D02*
X-17637199Y-14552174D01*
X-17637199Y-14552174D02*
X-17637199Y-14599793D01*
X-17637199Y-14599793D02*
X-17646723Y-14637888D01*
X-17646723Y-14637888D02*
X-17656247Y-14656936D01*
X-17656247Y-14656936D02*
X-17665771Y-14666460D01*
X-17665771Y-14666460D02*
X-17684818Y-14675984D01*
X-17684818Y-14675984D02*
X-17703866Y-14675984D01*
X-17703866Y-14675984D02*
X-17722913Y-14666460D01*
X-17722913Y-14666460D02*
X-17732437Y-14656936D01*
X-17732437Y-14656936D02*
X-17741961Y-14637888D01*
X-17741961Y-14637888D02*
X-17751485Y-14599793D01*
X-17751485Y-14599793D02*
X-17751485Y-14552174D01*
X-17751485Y-14552174D02*
X-17741961Y-14514079D01*
X-17741961Y-14514079D02*
X-17732437Y-14495031D01*
X-17732437Y-14495031D02*
X-17722913Y-14485508D01*
X-17722913Y-14485508D02*
X-17703866Y-14475984D01*
X-17551485Y-14656936D02*
X-17541961Y-14666460D01*
X-17541961Y-14666460D02*
X-17551485Y-14675984D01*
X-17551485Y-14675984D02*
X-17561009Y-14666460D01*
X-17561009Y-14666460D02*
X-17551485Y-14656936D01*
X-17551485Y-14656936D02*
X-17551485Y-14675984D01*
X-17351485Y-14675984D02*
X-17465771Y-14675984D01*
X-17408628Y-14675984D02*
X-17408628Y-14475984D01*
X-17408628Y-14475984D02*
X-17427675Y-14504555D01*
X-17427675Y-14504555D02*
X-17446723Y-14523603D01*
X-17446723Y-14523603D02*
X-17465771Y-14533127D01*
X-17275294Y-14495031D02*
X-17265771Y-14485508D01*
X-17265771Y-14485508D02*
X-17246723Y-14475984D01*
X-17246723Y-14475984D02*
X-17199104Y-14475984D01*
X-17199104Y-14475984D02*
X-17180056Y-14485508D01*
X-17180056Y-14485508D02*
X-17170532Y-14495031D01*
X-17170532Y-14495031D02*
X-17161009Y-14514079D01*
X-17161009Y-14514079D02*
X-17161009Y-14533127D01*
X-17161009Y-14533127D02*
X-17170532Y-14561698D01*
X-17170532Y-14561698D02*
X-17284818Y-14675984D01*
X-17284818Y-14675984D02*
X-17161009Y-14675984D01*
X-16989580Y-14475984D02*
X-17027675Y-14475984D01*
X-17027675Y-14475984D02*
X-17046723Y-14485508D01*
X-17046723Y-14485508D02*
X-17056247Y-14495031D01*
X-17056247Y-14495031D02*
X-17075294Y-14523603D01*
X-17075294Y-14523603D02*
X-17084818Y-14561698D01*
X-17084818Y-14561698D02*
X-17084818Y-14637888D01*
X-17084818Y-14637888D02*
X-17075294Y-14656936D01*
X-17075294Y-14656936D02*
X-17065771Y-14666460D01*
X-17065771Y-14666460D02*
X-17046723Y-14675984D01*
X-17046723Y-14675984D02*
X-17008628Y-14675984D01*
X-17008628Y-14675984D02*
X-16989580Y-14666460D01*
X-16989580Y-14666460D02*
X-16980056Y-14656936D01*
X-16980056Y-14656936D02*
X-16970532Y-14637888D01*
X-16970532Y-14637888D02*
X-16970532Y-14590269D01*
X-16970532Y-14590269D02*
X-16980056Y-14571222D01*
X-16980056Y-14571222D02*
X-16989580Y-14561698D01*
X-16989580Y-14561698D02*
X-17008628Y-14552174D01*
X-17008628Y-14552174D02*
X-17046723Y-14552174D01*
X-17046723Y-14552174D02*
X-17065771Y-14561698D01*
X-17065771Y-14561698D02*
X-17075294Y-14571222D01*
X-17075294Y-14571222D02*
X-17084818Y-14590269D01*
X-16846723Y-14475984D02*
X-16827675Y-14475984D01*
X-16827675Y-14475984D02*
X-16808628Y-14485508D01*
X-16808628Y-14485508D02*
X-16799104Y-14495031D01*
X-16799104Y-14495031D02*
X-16789580Y-14514079D01*
X-16789580Y-14514079D02*
X-16780056Y-14552174D01*
X-16780056Y-14552174D02*
X-16780056Y-14599793D01*
X-16780056Y-14599793D02*
X-16789580Y-14637888D01*
X-16789580Y-14637888D02*
X-16799104Y-14656936D01*
X-16799104Y-14656936D02*
X-16808628Y-14666460D01*
X-16808628Y-14666460D02*
X-16827675Y-14675984D01*
X-16827675Y-14675984D02*
X-16846723Y-14675984D01*
X-16846723Y-14675984D02*
X-16865771Y-14666460D01*
X-16865771Y-14666460D02*
X-16875294Y-14656936D01*
X-16875294Y-14656936D02*
X-16884818Y-14637888D01*
X-16884818Y-14637888D02*
X-16894342Y-14599793D01*
X-16894342Y-14599793D02*
X-16894342Y-14552174D01*
X-16894342Y-14552174D02*
X-16884818Y-14514079D01*
X-16884818Y-14514079D02*
X-16875294Y-14495031D01*
X-16875294Y-14495031D02*
X-16865771Y-14485508D01*
X-16865771Y-14485508D02*
X-16846723Y-14475984D01*
X-16703866Y-14475984D02*
X-16703866Y-14514079D01*
X-16627675Y-14475984D02*
X-16627675Y-14514079D01*
X-16332437Y-14752174D02*
X-16341961Y-14742650D01*
X-16341961Y-14742650D02*
X-16361008Y-14714079D01*
X-16361008Y-14714079D02*
X-16370532Y-14695031D01*
X-16370532Y-14695031D02*
X-16380056Y-14666460D01*
X-16380056Y-14666460D02*
X-16389580Y-14618841D01*
X-16389580Y-14618841D02*
X-16389580Y-14580746D01*
X-16389580Y-14580746D02*
X-16380056Y-14533127D01*
X-16380056Y-14533127D02*
X-16370532Y-14504555D01*
X-16370532Y-14504555D02*
X-16361008Y-14485508D01*
X-16361008Y-14485508D02*
X-16341961Y-14456936D01*
X-16341961Y-14456936D02*
X-16332437Y-14447412D01*
X-16170532Y-14542650D02*
X-16170532Y-14675984D01*
X-16218151Y-14466460D02*
X-16265770Y-14609317D01*
X-16265770Y-14609317D02*
X-16141961Y-14609317D01*
X-15913389Y-14675984D02*
X-15913389Y-14475984D01*
X-15827675Y-14675984D02*
X-15827675Y-14571222D01*
X-15827675Y-14571222D02*
X-15837199Y-14552174D01*
X-15837199Y-14552174D02*
X-15856246Y-14542650D01*
X-15856246Y-14542650D02*
X-15884818Y-14542650D01*
X-15884818Y-14542650D02*
X-15903866Y-14552174D01*
X-15903866Y-14552174D02*
X-15913389Y-14561698D01*
X-15703866Y-14675984D02*
X-15722913Y-14666460D01*
X-15722913Y-14666460D02*
X-15732437Y-14656936D01*
X-15732437Y-14656936D02*
X-15741961Y-14637888D01*
X-15741961Y-14637888D02*
X-15741961Y-14580746D01*
X-15741961Y-14580746D02*
X-15732437Y-14561698D01*
X-15732437Y-14561698D02*
X-15722913Y-14552174D01*
X-15722913Y-14552174D02*
X-15703866Y-14542650D01*
X-15703866Y-14542650D02*
X-15675294Y-14542650D01*
X-15675294Y-14542650D02*
X-15656246Y-14552174D01*
X-15656246Y-14552174D02*
X-15646723Y-14561698D01*
X-15646723Y-14561698D02*
X-15637199Y-14580746D01*
X-15637199Y-14580746D02*
X-15637199Y-14637888D01*
X-15637199Y-14637888D02*
X-15646723Y-14656936D01*
X-15646723Y-14656936D02*
X-15656246Y-14666460D01*
X-15656246Y-14666460D02*
X-15675294Y-14675984D01*
X-15675294Y-14675984D02*
X-15703866Y-14675984D01*
X-15522913Y-14675984D02*
X-15541961Y-14666460D01*
X-15541961Y-14666460D02*
X-15551485Y-14647412D01*
X-15551485Y-14647412D02*
X-15551485Y-14475984D01*
X-15370532Y-14666460D02*
X-15389580Y-14675984D01*
X-15389580Y-14675984D02*
X-15427675Y-14675984D01*
X-15427675Y-14675984D02*
X-15446723Y-14666460D01*
X-15446723Y-14666460D02*
X-15456246Y-14647412D01*
X-15456246Y-14647412D02*
X-15456246Y-14571222D01*
X-15456246Y-14571222D02*
X-15446723Y-14552174D01*
X-15446723Y-14552174D02*
X-15427675Y-14542650D01*
X-15427675Y-14542650D02*
X-15389580Y-14542650D01*
X-15389580Y-14542650D02*
X-15370532Y-14552174D01*
X-15370532Y-14552174D02*
X-15361008Y-14571222D01*
X-15361008Y-14571222D02*
X-15361008Y-14590269D01*
X-15361008Y-14590269D02*
X-15456246Y-14609317D01*
X-15284818Y-14666460D02*
X-15265770Y-14675984D01*
X-15265770Y-14675984D02*
X-15227675Y-14675984D01*
X-15227675Y-14675984D02*
X-15208627Y-14666460D01*
X-15208627Y-14666460D02*
X-15199104Y-14647412D01*
X-15199104Y-14647412D02*
X-15199104Y-14637888D01*
X-15199104Y-14637888D02*
X-15208627Y-14618841D01*
X-15208627Y-14618841D02*
X-15227675Y-14609317D01*
X-15227675Y-14609317D02*
X-15256246Y-14609317D01*
X-15256246Y-14609317D02*
X-15275294Y-14599793D01*
X-15275294Y-14599793D02*
X-15284818Y-14580746D01*
X-15284818Y-14580746D02*
X-15284818Y-14571222D01*
X-15284818Y-14571222D02*
X-15275294Y-14552174D01*
X-15275294Y-14552174D02*
X-15256246Y-14542650D01*
X-15256246Y-14542650D02*
X-15227675Y-14542650D01*
X-15227675Y-14542650D02*
X-15208627Y-14552174D01*
X-15132437Y-14752174D02*
X-15122913Y-14742650D01*
X-15122913Y-14742650D02*
X-15103865Y-14714079D01*
X-15103865Y-14714079D02*
X-15094342Y-14695031D01*
X-15094342Y-14695031D02*
X-15084818Y-14666460D01*
X-15084818Y-14666460D02*
X-15075294Y-14618841D01*
X-15075294Y-14618841D02*
X-15075294Y-14580746D01*
X-15075294Y-14580746D02*
X-15084818Y-14533127D01*
X-15084818Y-14533127D02*
X-15094342Y-14504555D01*
X-15094342Y-14504555D02*
X-15103865Y-14485508D01*
X-15103865Y-14485508D02*
X-15122913Y-14456936D01*
X-15122913Y-14456936D02*
X-15132437Y-14447412D01*
X-14770532Y-14752174D02*
X-14780056Y-14742650D01*
X-14780056Y-14742650D02*
X-14799104Y-14714079D01*
X-14799104Y-14714079D02*
X-14808627Y-14695031D01*
X-14808627Y-14695031D02*
X-14818151Y-14666460D01*
X-14818151Y-14666460D02*
X-14827675Y-14618841D01*
X-14827675Y-14618841D02*
X-14827675Y-14580746D01*
X-14827675Y-14580746D02*
X-14818151Y-14533127D01*
X-14818151Y-14533127D02*
X-14808627Y-14504555D01*
X-14808627Y-14504555D02*
X-14799104Y-14485508D01*
X-14799104Y-14485508D02*
X-14780056Y-14456936D01*
X-14780056Y-14456936D02*
X-14770532Y-14447412D01*
X-14694342Y-14542650D02*
X-14694342Y-14675984D01*
X-14694342Y-14561698D02*
X-14684818Y-14552174D01*
X-14684818Y-14552174D02*
X-14665770Y-14542650D01*
X-14665770Y-14542650D02*
X-14637199Y-14542650D01*
X-14637199Y-14542650D02*
X-14618151Y-14552174D01*
X-14618151Y-14552174D02*
X-14608627Y-14571222D01*
X-14608627Y-14571222D02*
X-14608627Y-14675984D01*
X-14484818Y-14675984D02*
X-14503865Y-14666460D01*
X-14503865Y-14666460D02*
X-14513389Y-14656936D01*
X-14513389Y-14656936D02*
X-14522913Y-14637888D01*
X-14522913Y-14637888D02*
X-14522913Y-14580746D01*
X-14522913Y-14580746D02*
X-14513389Y-14561698D01*
X-14513389Y-14561698D02*
X-14503865Y-14552174D01*
X-14503865Y-14552174D02*
X-14484818Y-14542650D01*
X-14484818Y-14542650D02*
X-14456246Y-14542650D01*
X-14456246Y-14542650D02*
X-14437199Y-14552174D01*
X-14437199Y-14552174D02*
X-14427675Y-14561698D01*
X-14427675Y-14561698D02*
X-14418151Y-14580746D01*
X-14418151Y-14580746D02*
X-14418151Y-14637888D01*
X-14418151Y-14637888D02*
X-14427675Y-14656936D01*
X-14427675Y-14656936D02*
X-14437199Y-14666460D01*
X-14437199Y-14666460D02*
X-14456246Y-14675984D01*
X-14456246Y-14675984D02*
X-14484818Y-14675984D01*
X-14361008Y-14542650D02*
X-14284818Y-14542650D01*
X-14332437Y-14475984D02*
X-14332437Y-14647412D01*
X-14332437Y-14647412D02*
X-14322913Y-14666460D01*
X-14322913Y-14666460D02*
X-14303865Y-14675984D01*
X-14303865Y-14675984D02*
X-14284818Y-14675984D01*
X-14065770Y-14542650D02*
X-14065770Y-14742650D01*
X-14065770Y-14552174D02*
X-14046723Y-14542650D01*
X-14046723Y-14542650D02*
X-14008627Y-14542650D01*
X-14008627Y-14542650D02*
X-13989580Y-14552174D01*
X-13989580Y-14552174D02*
X-13980056Y-14561698D01*
X-13980056Y-14561698D02*
X-13970532Y-14580746D01*
X-13970532Y-14580746D02*
X-13970532Y-14637888D01*
X-13970532Y-14637888D02*
X-13980056Y-14656936D01*
X-13980056Y-14656936D02*
X-13989580Y-14666460D01*
X-13989580Y-14666460D02*
X-14008627Y-14675984D01*
X-14008627Y-14675984D02*
X-14046723Y-14675984D01*
X-14046723Y-14675984D02*
X-14065770Y-14666460D01*
X-13856246Y-14675984D02*
X-13875294Y-14666460D01*
X-13875294Y-14666460D02*
X-13884818Y-14647412D01*
X-13884818Y-14647412D02*
X-13884818Y-14475984D01*
X-13694342Y-14675984D02*
X-13694342Y-14571222D01*
X-13694342Y-14571222D02*
X-13703865Y-14552174D01*
X-13703865Y-14552174D02*
X-13722913Y-14542650D01*
X-13722913Y-14542650D02*
X-13761008Y-14542650D01*
X-13761008Y-14542650D02*
X-13780056Y-14552174D01*
X-13694342Y-14666460D02*
X-13713389Y-14675984D01*
X-13713389Y-14675984D02*
X-13761008Y-14675984D01*
X-13761008Y-14675984D02*
X-13780056Y-14666460D01*
X-13780056Y-14666460D02*
X-13789580Y-14647412D01*
X-13789580Y-14647412D02*
X-13789580Y-14628365D01*
X-13789580Y-14628365D02*
X-13780056Y-14609317D01*
X-13780056Y-14609317D02*
X-13761008Y-14599793D01*
X-13761008Y-14599793D02*
X-13713389Y-14599793D01*
X-13713389Y-14599793D02*
X-13694342Y-14590269D01*
X-13627675Y-14542650D02*
X-13551484Y-14542650D01*
X-13599103Y-14475984D02*
X-13599103Y-14647412D01*
X-13599103Y-14647412D02*
X-13589580Y-14666460D01*
X-13589580Y-14666460D02*
X-13570532Y-14675984D01*
X-13570532Y-14675984D02*
X-13551484Y-14675984D01*
X-13408627Y-14666460D02*
X-13427675Y-14675984D01*
X-13427675Y-14675984D02*
X-13465770Y-14675984D01*
X-13465770Y-14675984D02*
X-13484818Y-14666460D01*
X-13484818Y-14666460D02*
X-13494342Y-14647412D01*
X-13494342Y-14647412D02*
X-13494342Y-14571222D01*
X-13494342Y-14571222D02*
X-13484818Y-14552174D01*
X-13484818Y-14552174D02*
X-13465770Y-14542650D01*
X-13465770Y-14542650D02*
X-13427675Y-14542650D01*
X-13427675Y-14542650D02*
X-13408627Y-14552174D01*
X-13408627Y-14552174D02*
X-13399103Y-14571222D01*
X-13399103Y-14571222D02*
X-13399103Y-14590269D01*
X-13399103Y-14590269D02*
X-13494342Y-14609317D01*
X-13227675Y-14675984D02*
X-13227675Y-14475984D01*
X-13227675Y-14666460D02*
X-13246722Y-14675984D01*
X-13246722Y-14675984D02*
X-13284818Y-14675984D01*
X-13284818Y-14675984D02*
X-13303865Y-14666460D01*
X-13303865Y-14666460D02*
X-13313389Y-14656936D01*
X-13313389Y-14656936D02*
X-13322913Y-14637888D01*
X-13322913Y-14637888D02*
X-13322913Y-14580746D01*
X-13322913Y-14580746D02*
X-13313389Y-14561698D01*
X-13313389Y-14561698D02*
X-13303865Y-14552174D01*
X-13303865Y-14552174D02*
X-13284818Y-14542650D01*
X-13284818Y-14542650D02*
X-13246722Y-14542650D01*
X-13246722Y-14542650D02*
X-13227675Y-14552174D01*
X-13151484Y-14752174D02*
X-13141961Y-14742650D01*
X-13141961Y-14742650D02*
X-13122913Y-14714079D01*
X-13122913Y-14714079D02*
X-13113389Y-14695031D01*
X-13113389Y-14695031D02*
X-13103865Y-14666460D01*
X-13103865Y-14666460D02*
X-13094342Y-14618841D01*
X-13094342Y-14618841D02*
X-13094342Y-14580746D01*
X-13094342Y-14580746D02*
X-13103865Y-14533127D01*
X-13103865Y-14533127D02*
X-13113389Y-14504555D01*
X-13113389Y-14504555D02*
X-13122913Y-14485508D01*
X-13122913Y-14485508D02*
X-13141961Y-14456936D01*
X-13141961Y-14456936D02*
X-13151484Y-14447412D01*
M02*
