M48
; DRILL file {KiCad 9.0.4} date 2026-02-19T14:36:07+0000
; FORMAT={-:-/ absolute / metric / decimal}
; #@! TF.CreationDate,2026-02-19T14:36:07+00:00
; #@! TF.GenerationSoftware,Kicad,Pcbnew,9.0.4
; #@! TF.FileFunction,Plated,1,2,PTH
FMAT,2
METRIC
; #@! TA.AperFunction,Plated,PTH,ViaDrill
T1C0.250
; #@! TA.AperFunction,Plated,PTH,ComponentDrill
T2C0.700
; #@! TA.AperFunction,Plated,PTH,ComponentDrill
T3C0.760
; #@! TA.AperFunction,Plated,PTH,ComponentDrill
T4C0.800
; #@! TA.AperFunction,Plated,PTH,ComponentDrill
T5C0.950
; #@! TA.AperFunction,Plated,PTH,ComponentDrill
T6C1.000
; #@! TA.AperFunction,Plated,PTH,ComponentDrill
T7C1.100
; #@! TA.AperFunction,Plated,PTH,ComponentDrill
T8C1.200
; #@! TA.AperFunction,Plated,PTH,ComponentDrill
T9C1.300
%
G90
G05
T1
X63.395Y-79.59
X72.395Y-80.215
X80.295Y-52.415
X81.55Y-63.025
X82.945Y-51.915
X82.977Y-53.222
X83.59Y-84.115
X85.361Y-59.786
X87.416Y-52.565
X87.645Y-50.455
X90.97Y-67.34
X97.475Y-53.699
X97.95Y-60.705
T2
X40.63Y-87.905
X40.67Y-63.54
X43.13Y-87.905
X43.17Y-63.54
X47.36Y-49.495
X47.46Y-58.345
X49.86Y-49.495
X49.96Y-58.345
X76.25Y-78.975
X78.75Y-78.975
X83.87Y-48.79
X84.093Y-58.015
X84.1Y-65.425
X86.37Y-48.79
X86.593Y-58.015
X86.6Y-65.425
X98.36Y-70.675
X100.86Y-70.675
T3
X43.1Y-68.265
X43.1Y-70.805
X43.1Y-78.425
X43.1Y-83.505
T4
X46.18Y-88.465
X46.185Y-85.08
X46.23Y-78.285
X46.23Y-81.675
X46.995Y-61.26
X46.995Y-71.42
X50.52Y-61.24
X50.52Y-71.4
X56.34Y-88.465
X56.345Y-85.08
X56.39Y-78.285
X56.39Y-81.675
X79.945Y-49.64
X79.945Y-57.26
X86.41Y-71.255
X86.41Y-78.875
X88.95Y-71.255
X88.95Y-78.875
X89.38Y-62.685
X89.38Y-66.075
X89.39Y-48.585
X89.39Y-52.05
X89.42Y-55.575
X89.5Y-58.995
X92.75Y-85.015
X92.75Y-88.365
X92.77Y-78.345
X92.77Y-81.685
X93.675Y-37.875
X99.54Y-62.685
X99.54Y-66.075
X99.55Y-48.585
X99.55Y-52.05
X99.58Y-55.575
X99.66Y-58.995
X101.295Y-37.875
X102.87Y-40.985
X102.87Y-48.605
X102.91Y-85.015
X102.91Y-88.365
X102.93Y-78.345
X102.93Y-81.685
X105.41Y-40.985
X105.41Y-48.605
T5
X104.135Y-52.895
X104.135Y-55.395
X104.135Y-57.895
X104.135Y-60.395
X104.135Y-62.895
X104.135Y-65.395
T6
X43.145Y-50.99
X43.145Y-53.49
X71.14Y-35.125
X71.14Y-57.925
X71.14Y-63.005
X71.14Y-85.805
T7
X52.58Y-49.135
X62.74Y-49.135
X79.88Y-60.055
X79.88Y-70.215
T8
X52.67Y-33.64
X52.73Y-38.3
X65.37Y-33.64
X65.43Y-38.3
X76.74Y-87.795
X76.78Y-83.055
X76.945Y-33.29
X76.95Y-37.85
X89.44Y-87.795
X89.48Y-83.055
X89.645Y-33.29
X89.65Y-37.85
T9
X42.42Y-35.725
X47.5Y-35.725
X54.48Y-53.075
X54.48Y-63.235
X54.48Y-70.855
X62.1Y-53.075
X62.53Y-81.905
X62.53Y-86.985
M30
